<svg xmlns="http://www.w3.org/2000/svg" xmlns:xlink="http://www.w3.org/1999/xlink" width="1280" zoomAndPan="magnify" viewBox="0 0 960 540.000001" height="720" preserveAspectRatio="xMidYMid meet" version="1.0"><defs><clipPath id="8c3746ccd3"><path d="M 185.492188 107.148438 L 774.652344 107.148438 L 774.652344 485.199219 L 185.492188 485.199219 Z M 185.492188 107.148438 " clip-rule="nonzero"/></clipPath></defs><g clip-path="url(#8c3746ccd3)"><path fill="#000000" d="M 747.78125 161.203125 L 747.78125 134.195312 L 720.976562 134.195312 L 720.976562 107.1875 L 506.808594 107.1875 L 506.808594 134.195312 L 453.199219 134.195312 L 453.199219 107.1875 L 239.101562 107.1875 L 239.101562 134.195312 L 212.296875 134.195312 L 212.296875 161.203125 L 185.492188 161.203125 L 185.492188 431.144531 L 212.296875 431.144531 L 212.296875 458.152344 L 426.53125 458.152344 L 426.53125 485.160156 C 462.246094 485.160156 497.898438 485.160156 533.613281 485.160156 L 533.613281 458.152344 L 747.847656 458.152344 L 747.847656 431.144531 L 774.652344 431.144531 L 774.652344 161.203125 Z M 747.78125 161.203125 " fill-opacity="1" fill-rule="evenodd"/></g><path fill="#ded2a0" d="M 747.78125 404.136719 L 747.78125 161.203125 L 720.976562 161.203125 L 720.976562 134.195312 L 506.808594 134.195312 L 506.808594 161.203125 L 453.265625 161.203125 L 453.265625 134.195312 L 239.101562 134.195312 L 239.101562 161.203125 L 212.296875 161.203125 L 212.296875 431.144531 L 426.460938 431.144531 L 426.460938 458.152344 C 462.179688 458.152344 497.828125 458.152344 533.546875 458.152344 L 533.546875 431.144531 L 747.710938 431.144531 L 747.710938 404.136719 Z M 747.78125 404.136719 " fill-opacity="1" fill-rule="evenodd"/><path fill="#b9b085" d="M 506.808594 431.144531 L 533.613281 431.144531 L 533.613281 404.136719 L 747.78125 404.136719 L 747.78125 161.203125 L 721.042969 161.203125 L 721.042969 377.128906 L 506.808594 377.128906 L 506.808594 404.136719 L 480.070312 404.136719 L 480.070312 431.144531 Z M 506.808594 431.144531 " fill-opacity="1" fill-rule="evenodd"/><path fill="#996633" d="M 399.726562 431.144531 L 426.53125 431.144531 L 426.53125 458.152344 C 462.246094 458.152344 497.898438 458.152344 533.613281 458.152344 L 533.613281 431.144531 L 747.78125 431.144531 L 747.78125 404.136719 C 676.414062 404.136719 604.980469 404.136719 533.613281 404.136719 L 533.613281 431.144531 L 426.53125 431.144531 L 426.53125 404.136719 L 212.363281 404.136719 L 212.363281 431.144531 Z M 399.726562 431.144531 " fill-opacity="1" fill-rule="evenodd"/><path fill="#ded2a0" d="M 480.070312 404.136719 L 506.808594 404.136719 L 506.808594 377.128906 L 721.042969 377.128906 L 721.042969 134.195312 L 506.808594 134.195312 L 506.808594 161.203125 L 480.070312 161.203125 Z M 480.070312 404.136719 " fill-opacity="1" fill-rule="evenodd"/><path fill="#f4e8b3" d="M 453.265625 404.136719 L 480.070312 404.136719 L 480.070312 161.203125 L 453.265625 161.203125 L 453.265625 134.195312 L 239.101562 134.195312 L 239.101562 377.128906 C 310.46875 377.128906 381.902344 377.128906 453.265625 377.128906 Z M 453.265625 404.136719 " fill-opacity="1" fill-rule="evenodd"/><path fill="#ded2a0" d="M 239.101562 404.136719 L 426.53125 404.136719 L 426.53125 431.144531 L 480.070312 431.144531 L 480.070312 404.136719 L 453.265625 404.136719 L 453.265625 377.128906 L 239.101562 377.128906 L 239.101562 161.203125 L 212.363281 161.203125 L 212.363281 404.136719 Z M 239.101562 404.136719 " fill-opacity="1" fill-rule="evenodd"/><path fill="#808080" d="M 265.90625 188.144531 L 426.53125 188.144531 L 426.53125 161.136719 C 372.988281 161.136719 319.449219 161.136719 265.90625 161.136719 Z M 667.5 350.121094 L 694.238281 350.121094 L 694.238281 323.117188 C 640.695312 323.117188 587.15625 323.117188 533.613281 323.117188 L 533.613281 350.121094 Z M 399.726562 350.121094 L 426.53125 350.121094 L 426.53125 323.117188 C 372.988281 323.117188 319.449219 323.117188 265.90625 323.117188 L 265.90625 350.121094 Z M 667.5 296.175781 L 694.238281 296.175781 L 694.238281 269.167969 L 533.613281 269.167969 L 533.613281 296.175781 Z M 399.726562 296.175781 L 426.53125 296.175781 L 426.53125 269.167969 C 372.988281 269.167969 319.449219 269.167969 265.90625 269.167969 L 265.90625 296.175781 Z M 667.5 242.160156 L 694.238281 242.160156 L 694.238281 215.152344 L 533.613281 215.152344 L 533.613281 242.160156 Z M 399.726562 242.160156 L 426.53125 242.160156 L 426.53125 215.152344 C 372.988281 215.152344 319.449219 215.152344 265.90625 215.152344 L 265.90625 242.160156 Z M 667.5 188.144531 L 694.238281 188.144531 L 694.238281 161.136719 L 533.613281 161.136719 L 533.613281 188.144531 Z M 667.5 188.144531 " fill-opacity="1" fill-rule="evenodd"/></svg>