<svg xmlns="http://www.w3.org/2000/svg" xmlns:xlink="http://www.w3.org/1999/xlink" width="1280" zoomAndPan="magnify" viewBox="0 0 960 540.000001" height="720" preserveAspectRatio="xMidYMid meet" version="1.0"><defs><clipPath id="873251c72a"><path d="M 793 397.539062 L 922 397.539062 L 922 462 L 793 462 Z M 793 397.539062 " clip-rule="nonzero"/></clipPath><clipPath id="5056edcb58"><path d="M 806 456 L 909 456 L 909 539 L 806 539 Z M 806 456 " clip-rule="nonzero"/></clipPath><clipPath id="0a2ec765e2"><path d="M 817 397.539062 L 842 397.539062 L 842 462 L 817 462 Z M 817 397.539062 " clip-rule="nonzero"/></clipPath><clipPath id="0dddb49cb9"><path d="M 836 456 L 858 456 L 858 539 L 836 539 Z M 836 456 " clip-rule="nonzero"/></clipPath><clipPath id="84ed104de9"><path d="M 774.828125 533 L 783 533 L 783 539 L 774.828125 539 Z M 774.828125 533 " clip-rule="nonzero"/></clipPath><clipPath id="88a1d40c42"><path d="M 926 533 L 935 533 L 935 539 L 926 539 Z M 926 533 " clip-rule="nonzero"/></clipPath><clipPath id="879661b340"><path d="M 788 533 L 922 533 L 922 539 L 788 539 Z M 788 533 " clip-rule="nonzero"/></clipPath><clipPath id="7bb6af445a"><path d="M 811.703125 269.5 L 905.28125 269.5 L 905.28125 360.082031 L 811.703125 360.082031 Z M 811.703125 269.5 " clip-rule="nonzero"/></clipPath></defs><path fill="#23a24d" d="M 809.582031 453.601562 L 905.609375 453.601562 L 905.609375 536.355469 L 809.582031 536.355469 Z M 809.582031 453.601562 " fill-opacity="1" fill-rule="nonzero"/><path fill="#008429" d="M 913.972656 458.9375 L 801.21875 458.9375 C 798.472656 458.9375 796.246094 456.710938 796.246094 453.964844 L 796.246094 405.183594 C 796.246094 402.433594 798.472656 400.207031 801.21875 400.207031 L 913.976562 400.207031 C 916.722656 400.207031 918.945312 402.433594 918.945312 405.183594 L 918.945312 453.964844 C 918.945312 456.710938 916.722656 458.9375 913.972656 458.9375 Z M 913.972656 458.9375 " fill-opacity="1" fill-rule="nonzero"/><path fill="#00bc36" d="M 820.253906 400.207031 L 838.925781 400.207031 L 838.925781 458.9375 L 820.253906 458.9375 Z M 820.253906 400.207031 " fill-opacity="1" fill-rule="nonzero"/><path fill="#00cc3f" d="M 838.925781 458.9375 L 854.929688 458.9375 L 854.929688 536.355469 L 838.925781 536.355469 Z M 838.925781 458.9375 " fill-opacity="1" fill-rule="nonzero"/><g clip-path="url(#873251c72a)"><path fill="#4d007e" d="M 913.972656 461.609375 L 801.21875 461.609375 C 797.007812 461.609375 793.578125 458.179688 793.578125 453.964844 L 793.578125 405.183594 C 793.578125 400.96875 797.007812 397.539062 801.21875 397.539062 L 913.976562 397.539062 C 918.183594 397.539062 921.613281 400.96875 921.613281 405.183594 L 921.613281 453.964844 C 921.613281 458.179688 918.183594 461.609375 913.972656 461.609375 Z M 801.21875 402.878906 C 799.945312 402.878906 798.914062 403.914062 798.914062 405.183594 L 798.914062 453.964844 C 798.914062 455.234375 799.945312 456.269531 801.21875 456.269531 L 913.976562 456.269531 C 915.246094 456.269531 916.277344 455.234375 916.277344 453.964844 L 916.277344 405.183594 C 916.277344 403.914062 915.246094 402.878906 913.972656 402.878906 Z M 801.21875 402.878906 " fill-opacity="1" fill-rule="nonzero"/></g><g clip-path="url(#5056edcb58)"><path fill="#4d007e" d="M 905.609375 539.027344 L 809.582031 539.027344 C 808.113281 539.027344 806.917969 537.832031 806.917969 536.355469 L 806.917969 458.9375 C 806.917969 457.464844 808.113281 456.269531 809.582031 456.269531 L 905.609375 456.269531 C 907.082031 456.269531 908.277344 457.464844 908.277344 458.9375 L 908.277344 536.355469 C 908.277344 537.832031 907.082031 539.027344 905.609375 539.027344 Z M 812.25 533.6875 L 902.941406 533.6875 L 902.941406 461.609375 L 812.25 461.609375 Z M 812.25 533.6875 " fill-opacity="1" fill-rule="nonzero"/></g><g clip-path="url(#0a2ec765e2)"><path fill="#4d007e" d="M 838.925781 461.609375 L 820.253906 461.609375 C 818.78125 461.609375 817.585938 460.414062 817.585938 458.9375 L 817.585938 400.207031 C 817.585938 398.734375 818.78125 397.539062 820.253906 397.539062 L 838.925781 397.539062 C 840.398438 397.539062 841.59375 398.734375 841.59375 400.207031 L 841.59375 458.9375 C 841.59375 460.414062 840.398438 461.609375 838.925781 461.609375 Z M 822.921875 456.269531 L 836.257812 456.269531 L 836.257812 402.878906 L 822.921875 402.878906 Z M 822.921875 456.269531 " fill-opacity="1" fill-rule="nonzero"/></g><g clip-path="url(#0dddb49cb9)"><path fill="#4d007e" d="M 854.929688 539.027344 L 838.925781 539.027344 C 837.453125 539.027344 836.257812 537.832031 836.257812 536.355469 L 836.257812 458.9375 C 836.257812 457.464844 837.453125 456.269531 838.925781 456.269531 L 854.929688 456.269531 C 856.402344 456.269531 857.597656 457.464844 857.597656 458.9375 L 857.597656 536.355469 C 857.597656 537.832031 856.402344 539.027344 854.929688 539.027344 Z M 841.59375 533.6875 L 852.261719 533.6875 L 852.261719 461.609375 L 841.59375 461.609375 Z M 841.59375 533.6875 " fill-opacity="1" fill-rule="nonzero"/></g><g clip-path="url(#84ed104de9)"><path fill="#4d007e" d="M 780.242188 539.027344 L 777.574219 539.027344 C 776.101562 539.027344 774.90625 537.832031 774.90625 536.355469 C 774.90625 534.882812 776.101562 533.6875 777.574219 533.6875 L 780.242188 533.6875 C 781.714844 533.6875 782.910156 534.882812 782.910156 536.355469 C 782.910156 537.832031 781.714844 539.027344 780.242188 539.027344 Z M 780.242188 539.027344 " fill-opacity="1" fill-rule="nonzero"/></g><g clip-path="url(#88a1d40c42)"><path fill="#4d007e" d="M 932.28125 539.027344 L 929.613281 539.027344 C 928.144531 539.027344 926.949219 537.832031 926.949219 536.355469 C 926.949219 534.882812 928.144531 533.6875 929.613281 533.6875 L 932.28125 533.6875 C 933.753906 533.6875 934.949219 534.882812 934.949219 536.355469 C 934.949219 537.832031 933.753906 539.027344 932.28125 539.027344 Z M 932.28125 539.027344 " fill-opacity="1" fill-rule="nonzero"/></g><g clip-path="url(#879661b340)"><path fill="#4d007e" d="M 918.945312 539.027344 L 790.914062 539.027344 C 789.441406 539.027344 788.246094 537.832031 788.246094 536.355469 C 788.246094 534.882812 789.441406 533.6875 790.914062 533.6875 L 918.945312 533.6875 C 920.417969 533.6875 921.613281 534.882812 921.613281 536.355469 C 921.613281 537.832031 920.417969 539.027344 918.945312 539.027344 Z M 918.945312 539.027344 " fill-opacity="1" fill-rule="nonzero"/></g><path fill="#f36717" d="M 879.472656 343.867188 L 873.015625 343.867188 L 873.015625 347.097656 L 863.335938 347.097656 L 863.335938 350.324219 L 860.109375 350.324219 L 860.109375 353.554688 L 853.652344 353.554688 L 853.652344 350.324219 L 840.742188 350.324219 L 840.742188 347.097656 L 831.0625 347.097656 L 831.0625 350.324219 L 837.515625 350.324219 L 837.515625 353.554688 L 843.972656 353.554688 L 843.972656 356.78125 L 869.789062 356.78125 L 869.789062 353.554688 L 876.246094 353.554688 L 876.246094 350.324219 L 882.699219 350.324219 L 882.699219 347.097656 L 885.921875 347.097656 L 885.921875 343.867188 L 879.472656 343.867188 " fill-opacity="1" fill-rule="nonzero"/><path fill="#f36717" d="M 895.605469 314.804688 L 895.605469 324.492188 L 892.378906 324.492188 L 892.378906 330.953125 L 889.152344 330.953125 L 889.152344 334.179688 L 885.921875 334.179688 L 885.921875 343.867188 L 889.152344 343.867188 L 889.152344 340.636719 L 892.378906 340.636719 L 892.378906 334.179688 L 895.605469 334.179688 L 895.605469 327.722656 L 898.832031 327.722656 L 898.832031 324.492188 L 902.0625 324.492188 L 902.0625 314.804688 L 895.605469 314.804688 " fill-opacity="1" fill-rule="nonzero"/><path fill="#f68c1c" d="M 885.921875 343.867188 L 885.921875 340.636719 L 882.699219 340.636719 L 882.699219 343.867188 L 885.921875 343.867188 " fill-opacity="1" fill-rule="nonzero"/><path fill="#f68c1c" d="M 882.699219 321.265625 L 879.472656 321.265625 L 879.472656 327.722656 L 876.246094 327.722656 L 876.246094 330.953125 L 873.015625 330.953125 L 873.015625 334.179688 L 869.789062 334.179688 L 869.789062 337.40625 L 863.335938 337.40625 L 863.335938 340.636719 L 850.425781 340.636719 L 850.425781 337.40625 L 843.972656 337.40625 L 843.972656 334.179688 L 840.742188 334.179688 L 840.742188 330.953125 L 837.515625 330.953125 L 837.515625 327.722656 L 834.289062 327.722656 L 834.289062 321.265625 L 831.0625 321.265625 L 831.0625 308.347656 L 834.289062 308.347656 L 834.289062 301.890625 L 837.515625 301.890625 L 837.515625 298.660156 L 840.742188 298.660156 L 840.742188 295.433594 L 843.972656 295.433594 L 843.972656 292.203125 L 850.425781 292.203125 L 850.425781 288.976562 L 863.335938 288.976562 L 863.335938 292.203125 L 869.789062 292.203125 L 869.789062 295.433594 L 873.015625 295.433594 L 873.015625 298.660156 L 876.246094 298.660156 L 876.246094 301.890625 L 879.472656 301.890625 L 879.472656 308.347656 L 882.699219 308.347656 Z M 892.378906 311.574219 L 885.921875 311.574219 L 885.921875 301.890625 L 882.699219 301.890625 L 882.699219 298.660156 L 879.472656 298.660156 L 879.472656 295.433594 L 882.699219 295.433594 L 882.699219 288.976562 L 876.246094 288.976562 L 876.246094 292.203125 L 873.015625 292.203125 L 873.015625 288.976562 L 869.789062 288.976562 L 869.789062 285.746094 L 860.109375 285.746094 L 860.109375 276.058594 L 853.652344 276.058594 L 853.652344 285.746094 L 843.972656 285.746094 L 843.972656 288.976562 L 831.0625 288.976562 L 831.0625 301.890625 L 827.835938 301.890625 L 827.835938 311.574219 L 818.152344 311.574219 L 818.152344 318.035156 L 827.835938 318.035156 L 827.835938 327.722656 L 831.0625 327.722656 L 831.0625 337.40625 L 827.835938 337.40625 L 827.835938 343.867188 L 834.289062 343.867188 L 834.289062 340.636719 L 837.515625 340.636719 L 837.515625 337.40625 L 840.742188 337.40625 L 840.742188 340.636719 L 843.972656 340.636719 L 843.972656 343.867188 L 853.652344 343.867188 L 853.652344 353.554688 L 860.109375 353.554688 L 860.109375 343.867188 L 869.789062 343.867188 L 869.789062 340.636719 L 873.015625 340.636719 L 873.015625 337.40625 L 876.246094 337.40625 L 876.246094 340.636719 L 882.699219 340.636719 L 882.699219 334.179688 L 879.472656 334.179688 L 879.472656 330.953125 L 882.699219 330.953125 L 882.699219 327.722656 L 885.921875 327.722656 L 885.921875 318.035156 L 895.605469 318.035156 L 895.605469 311.574219 L 892.378906 311.574219 " fill-opacity="1" fill-rule="nonzero"/><path fill="#f68c1c" d="M 856.878906 301.890625 L 853.652344 301.890625 L 853.652344 305.121094 L 850.425781 305.121094 L 850.425781 308.347656 L 856.878906 308.347656 L 856.878906 327.722656 L 850.425781 327.722656 L 850.425781 330.953125 L 860.109375 330.953125 L 860.109375 298.660156 L 856.878906 298.660156 L 856.878906 301.890625 " fill-opacity="1" fill-rule="nonzero"/><path fill="#f68c1c" d="M 885.921875 285.746094 L 882.699219 285.746094 L 882.699219 288.976562 L 885.921875 288.976562 L 885.921875 285.746094 " fill-opacity="1" fill-rule="nonzero"/><path fill="#f3f02c" d="M 837.515625 340.636719 L 840.742188 340.636719 L 840.742188 337.40625 L 837.515625 337.40625 L 837.515625 340.636719 " fill-opacity="1" fill-rule="nonzero"/><path fill="#f3f02c" d="M 824.609375 330.953125 L 827.835938 330.953125 L 827.835938 327.722656 L 824.609375 327.722656 L 824.609375 330.953125 " fill-opacity="1" fill-rule="nonzero"/><path fill="#f3f02c" d="M 824.609375 321.265625 L 824.609375 318.035156 L 821.382812 318.035156 L 821.382812 327.722656 L 824.609375 327.722656 L 824.609375 321.265625 " fill-opacity="1" fill-rule="nonzero"/><path fill="#f3f02c" d="M 873.015625 305.121094 L 873.015625 301.890625 L 869.789062 301.890625 L 869.789062 298.660156 L 866.5625 298.660156 L 866.5625 295.433594 L 853.652344 295.433594 L 853.652344 298.660156 L 860.109375 298.660156 L 860.109375 330.953125 L 850.425781 330.953125 L 850.425781 324.492188 L 853.652344 324.492188 L 853.652344 308.347656 L 850.425781 308.347656 L 850.425781 301.890625 L 847.199219 301.890625 L 847.199219 305.121094 L 843.972656 305.121094 L 843.972656 308.347656 L 840.742188 308.347656 L 840.742188 318.035156 L 837.515625 318.035156 L 837.515625 324.492188 L 840.742188 324.492188 L 840.742188 327.722656 L 843.972656 327.722656 L 843.972656 330.953125 L 847.199219 330.953125 L 847.199219 334.179688 L 866.5625 334.179688 L 866.5625 330.953125 L 869.789062 330.953125 L 869.789062 327.722656 L 873.015625 327.722656 L 873.015625 324.492188 L 876.246094 324.492188 L 876.246094 305.121094 L 873.015625 305.121094 " fill-opacity="1" fill-rule="nonzero"/><path fill="#f3f02c" d="M 821.382812 305.121094 L 821.382812 311.574219 L 824.609375 311.574219 L 824.609375 301.890625 L 821.382812 301.890625 L 821.382812 305.121094 " fill-opacity="1" fill-rule="nonzero"/><path fill="#f3f02c" d="M 853.652344 298.660156 L 850.425781 298.660156 L 850.425781 301.890625 L 853.652344 301.890625 L 853.652344 298.660156 " fill-opacity="1" fill-rule="nonzero"/><path fill="#f3f02c" d="M 824.609375 298.660156 L 824.609375 301.890625 L 827.835938 301.890625 L 827.835938 295.433594 L 824.609375 295.433594 L 824.609375 298.660156 " fill-opacity="1" fill-rule="nonzero"/><path fill="#f3f02c" d="M 827.835938 295.433594 L 831.0625 295.433594 L 831.0625 292.203125 L 827.835938 292.203125 L 827.835938 295.433594 " fill-opacity="1" fill-rule="nonzero"/><path fill="#f3f02c" d="M 837.515625 285.746094 L 834.289062 285.746094 L 834.289062 288.976562 L 837.515625 288.976562 L 837.515625 285.746094 " fill-opacity="1" fill-rule="nonzero"/><path fill="#f3f02c" d="M 843.972656 285.746094 L 843.972656 282.515625 L 837.515625 282.515625 L 837.515625 285.746094 L 843.972656 285.746094 " fill-opacity="1" fill-rule="nonzero"/><path fill="#f3f02c" d="M 827.835938 285.746094 L 831.0625 285.746094 L 831.0625 282.515625 L 827.835938 282.515625 L 827.835938 285.746094 " fill-opacity="1" fill-rule="nonzero"/><path fill="#f3f02c" d="M 866.5625 282.515625 L 869.789062 282.515625 L 869.789062 279.289062 L 863.335938 279.289062 L 863.335938 276.058594 L 860.109375 276.058594 L 860.109375 282.515625 L 866.5625 282.515625 " fill-opacity="1" fill-rule="nonzero"/><path fill="#f3f02c" d="M 850.425781 282.515625 L 853.652344 282.515625 L 853.652344 276.058594 L 850.425781 276.058594 L 850.425781 279.289062 L 843.972656 279.289062 L 843.972656 282.515625 L 850.425781 282.515625 " fill-opacity="1" fill-rule="nonzero"/><path fill="#ffffff" d="M 853.652344 311.574219 L 853.652344 324.492188 L 850.425781 324.492188 L 850.425781 327.722656 L 856.878906 327.722656 L 856.878906 308.347656 L 853.652344 308.347656 L 853.652344 311.574219 " fill-opacity="1" fill-rule="nonzero"/><path fill="#ffffff" d="M 850.425781 305.121094 L 853.652344 305.121094 L 853.652344 301.890625 L 850.425781 301.890625 L 850.425781 305.121094 " fill-opacity="1" fill-rule="nonzero"/><path fill="#ffffff" d="M 818.152344 305.121094 L 818.152344 311.574219 L 821.382812 311.574219 L 821.382812 301.890625 L 818.152344 301.890625 L 818.152344 305.121094 " fill-opacity="1" fill-rule="nonzero"/><path fill="#ffffff" d="M 853.652344 298.660156 L 853.652344 301.890625 L 856.878906 301.890625 L 856.878906 298.660156 L 853.652344 298.660156 " fill-opacity="1" fill-rule="nonzero"/><path fill="#ffffff" d="M 853.652344 298.660156 L 853.652344 295.433594 L 847.199219 295.433594 L 847.199219 298.660156 L 843.972656 298.660156 L 843.972656 301.890625 L 840.742188 301.890625 L 840.742188 305.121094 L 837.515625 305.121094 L 837.515625 318.035156 L 840.742188 318.035156 L 840.742188 308.347656 L 843.972656 308.347656 L 843.972656 305.121094 L 847.199219 305.121094 L 847.199219 301.890625 L 850.425781 301.890625 L 850.425781 298.660156 L 853.652344 298.660156 " fill-opacity="1" fill-rule="nonzero"/><path fill="#ffffff" d="M 837.515625 282.515625 L 843.972656 282.515625 L 843.972656 279.289062 L 850.425781 279.289062 L 850.425781 276.058594 L 840.742188 276.058594 L 840.742188 279.289062 L 834.289062 279.289062 L 834.289062 282.515625 L 831.0625 282.515625 L 831.0625 285.746094 L 827.835938 285.746094 L 827.835938 288.976562 L 824.609375 288.976562 L 824.609375 292.203125 L 821.382812 292.203125 L 821.382812 301.890625 L 824.609375 301.890625 L 824.609375 295.433594 L 827.835938 295.433594 L 827.835938 292.203125 L 831.0625 292.203125 L 831.0625 288.976562 L 834.289062 288.976562 L 834.289062 285.746094 L 837.515625 285.746094 L 837.515625 282.515625 " fill-opacity="1" fill-rule="nonzero"/><path fill="#f9cd1a" d="M 847.199219 343.867188 L 843.972656 343.867188 L 843.972656 340.636719 L 834.289062 340.636719 L 834.289062 343.867188 L 827.835938 343.867188 L 827.835938 347.097656 L 840.742188 347.097656 L 840.742188 350.324219 L 853.652344 350.324219 L 853.652344 343.867188 L 847.199219 343.867188 " fill-opacity="1" fill-rule="nonzero"/><path fill="#f9cd1a" d="M 876.246094 340.636719 L 876.246094 337.40625 L 873.015625 337.40625 L 873.015625 340.636719 L 869.789062 340.636719 L 869.789062 343.867188 L 860.109375 343.867188 L 860.109375 350.324219 L 863.335938 350.324219 L 863.335938 347.097656 L 873.015625 347.097656 L 873.015625 343.867188 L 882.699219 343.867188 L 882.699219 340.636719 L 876.246094 340.636719 " fill-opacity="1" fill-rule="nonzero"/><path fill="#f9cd1a" d="M 847.199219 334.179688 L 847.199219 330.953125 L 843.972656 330.953125 L 843.972656 327.722656 L 840.742188 327.722656 L 840.742188 324.492188 L 837.515625 324.492188 L 837.515625 305.121094 L 840.742188 305.121094 L 840.742188 301.890625 L 843.972656 301.890625 L 843.972656 298.660156 L 847.199219 298.660156 L 847.199219 295.433594 L 866.5625 295.433594 L 866.5625 298.660156 L 869.789062 298.660156 L 869.789062 301.890625 L 873.015625 301.890625 L 873.015625 305.121094 L 876.246094 305.121094 L 876.246094 324.492188 L 873.015625 324.492188 L 873.015625 327.722656 L 869.789062 327.722656 L 869.789062 330.953125 L 866.5625 330.953125 L 866.5625 334.179688 Z M 863.335938 340.636719 L 863.335938 337.40625 L 869.789062 337.40625 L 869.789062 334.179688 L 873.015625 334.179688 L 873.015625 330.953125 L 876.246094 330.953125 L 876.246094 327.722656 L 879.472656 327.722656 L 879.472656 321.265625 L 882.699219 321.265625 L 882.699219 308.347656 L 879.472656 308.347656 L 879.472656 301.890625 L 876.246094 301.890625 L 876.246094 298.660156 L 873.015625 298.660156 L 873.015625 295.433594 L 869.789062 295.433594 L 869.789062 292.203125 L 863.335938 292.203125 L 863.335938 288.976562 L 850.425781 288.976562 L 850.425781 292.203125 L 843.972656 292.203125 L 843.972656 295.433594 L 840.742188 295.433594 L 840.742188 298.660156 L 837.515625 298.660156 L 837.515625 301.890625 L 834.289062 301.890625 L 834.289062 308.347656 L 831.0625 308.347656 L 831.0625 321.265625 L 834.289062 321.265625 L 834.289062 327.722656 L 837.515625 327.722656 L 837.515625 330.953125 L 840.742188 330.953125 L 840.742188 334.179688 L 843.972656 334.179688 L 843.972656 337.40625 L 850.425781 337.40625 L 850.425781 340.636719 L 863.335938 340.636719 " fill-opacity="1" fill-rule="nonzero"/><path fill="#f9cd1a" d="M 827.835938 337.40625 L 831.0625 337.40625 L 831.0625 327.722656 L 827.835938 327.722656 L 827.835938 330.953125 L 824.609375 330.953125 L 824.609375 327.722656 L 821.382812 327.722656 L 821.382812 318.035156 L 818.152344 318.035156 L 818.152344 301.890625 L 814.925781 301.890625 L 814.925781 327.722656 L 818.152344 327.722656 L 818.152344 334.179688 L 821.382812 334.179688 L 821.382812 340.636719 L 824.609375 340.636719 L 824.609375 343.867188 L 827.835938 343.867188 L 827.835938 337.40625 " fill-opacity="1" fill-rule="nonzero"/><path fill="#f9cd1a" d="M 827.835938 324.492188 L 827.835938 318.035156 L 824.609375 318.035156 L 824.609375 327.722656 L 827.835938 327.722656 L 827.835938 324.492188 " fill-opacity="1" fill-rule="nonzero"/><path fill="#f9cd1a" d="M 889.152344 318.035156 L 885.921875 318.035156 L 885.921875 327.722656 L 882.699219 327.722656 L 882.699219 330.953125 L 879.472656 330.953125 L 879.472656 334.179688 L 882.699219 334.179688 L 882.699219 340.636719 L 885.921875 340.636719 L 885.921875 334.179688 L 889.152344 334.179688 L 889.152344 330.953125 L 892.378906 330.953125 L 892.378906 324.492188 L 895.605469 324.492188 L 895.605469 318.035156 L 889.152344 318.035156 " fill-opacity="1" fill-rule="nonzero"/><path fill="#f9cd1a" d="M 895.605469 301.890625 L 895.605469 295.433594 L 892.378906 295.433594 L 892.378906 288.976562 L 889.152344 288.976562 L 889.152344 285.746094 L 885.921875 285.746094 L 885.921875 288.976562 L 882.699219 288.976562 L 882.699219 295.433594 L 879.472656 295.433594 L 879.472656 298.660156 L 882.699219 298.660156 L 882.699219 301.890625 L 885.921875 301.890625 L 885.921875 311.574219 L 895.605469 311.574219 L 895.605469 314.804688 L 902.0625 314.804688 L 902.0625 305.121094 L 898.832031 305.121094 L 898.832031 301.890625 L 895.605469 301.890625 " fill-opacity="1" fill-rule="nonzero"/><path fill="#f9cd1a" d="M 824.609375 305.121094 L 824.609375 311.574219 L 827.835938 311.574219 L 827.835938 301.890625 L 824.609375 301.890625 L 824.609375 305.121094 " fill-opacity="1" fill-rule="nonzero"/><path fill="#f9cd1a" d="M 821.382812 298.660156 L 821.382812 295.433594 L 818.152344 295.433594 L 818.152344 301.890625 L 821.382812 301.890625 L 821.382812 298.660156 " fill-opacity="1" fill-rule="nonzero"/><path fill="#f9cd1a" d="M 827.835938 298.660156 L 827.835938 301.890625 L 831.0625 301.890625 L 831.0625 295.433594 L 827.835938 295.433594 L 827.835938 298.660156 " fill-opacity="1" fill-rule="nonzero"/><path fill="#f9cd1a" d="M 824.609375 288.976562 L 821.382812 288.976562 L 821.382812 292.203125 L 824.609375 292.203125 L 824.609375 288.976562 " fill-opacity="1" fill-rule="nonzero"/><path fill="#f9cd1a" d="M 843.972656 288.976562 L 843.972656 285.746094 L 837.515625 285.746094 L 837.515625 288.976562 L 843.972656 288.976562 " fill-opacity="1" fill-rule="nonzero"/><path fill="#f9cd1a" d="M 827.835938 285.746094 L 824.609375 285.746094 L 824.609375 288.976562 L 827.835938 288.976562 L 827.835938 285.746094 " fill-opacity="1" fill-rule="nonzero"/><path fill="#f9cd1a" d="M 885.921875 285.746094 L 885.921875 282.515625 L 882.699219 282.515625 L 882.699219 279.289062 L 876.246094 279.289062 L 876.246094 276.058594 L 869.789062 276.058594 L 869.789062 272.828125 L 843.972656 272.828125 L 843.972656 276.058594 L 863.335938 276.058594 L 863.335938 279.289062 L 869.789062 279.289062 L 869.789062 282.515625 L 860.109375 282.515625 L 860.109375 285.746094 L 869.789062 285.746094 L 869.789062 288.976562 L 873.015625 288.976562 L 873.015625 292.203125 L 876.246094 292.203125 L 876.246094 288.976562 L 882.699219 288.976562 L 882.699219 285.746094 L 885.921875 285.746094 " fill-opacity="1" fill-rule="nonzero"/><path fill="#f9cd1a" d="M 850.425781 285.746094 L 853.652344 285.746094 L 853.652344 282.515625 L 843.972656 282.515625 L 843.972656 285.746094 L 850.425781 285.746094 " fill-opacity="1" fill-rule="nonzero"/><path fill="#f9cd1a" d="M 834.289062 279.289062 L 831.0625 279.289062 L 831.0625 282.515625 L 834.289062 282.515625 L 834.289062 279.289062 " fill-opacity="1" fill-rule="nonzero"/><path fill="#f9cd1a" d="M 840.742188 276.058594 L 837.515625 276.058594 L 837.515625 279.289062 L 840.742188 279.289062 L 840.742188 276.058594 " fill-opacity="1" fill-rule="nonzero"/><g clip-path="url(#7bb6af445a)"><path fill="#040606" d="M 895.605469 327.722656 L 895.605469 334.179688 L 892.378906 334.179688 L 892.378906 340.636719 L 889.152344 340.636719 L 889.152344 343.867188 L 885.921875 343.867188 L 885.921875 347.097656 L 882.699219 347.097656 L 882.699219 350.324219 L 876.246094 350.324219 L 876.246094 353.554688 L 869.789062 353.554688 L 869.789062 356.78125 L 843.972656 356.78125 L 843.972656 353.554688 L 837.515625 353.554688 L 837.515625 350.324219 L 831.0625 350.324219 L 831.0625 347.097656 L 827.835938 347.097656 L 827.835938 343.867188 L 824.609375 343.867188 L 824.609375 340.636719 L 821.382812 340.636719 L 821.382812 334.179688 L 818.152344 334.179688 L 818.152344 327.722656 L 814.925781 327.722656 L 814.925781 301.890625 L 818.152344 301.890625 L 818.152344 295.433594 L 821.382812 295.433594 L 821.382812 288.976562 L 824.609375 288.976562 L 824.609375 285.746094 L 827.835938 285.746094 L 827.835938 282.515625 L 831.0625 282.515625 L 831.0625 279.289062 L 837.515625 279.289062 L 837.515625 276.058594 L 843.972656 276.058594 L 843.972656 272.828125 L 869.789062 272.828125 L 869.789062 276.058594 L 876.246094 276.058594 L 876.246094 279.289062 L 882.699219 279.289062 L 882.699219 282.515625 L 885.921875 282.515625 L 885.921875 285.746094 L 889.152344 285.746094 L 889.152344 288.976562 L 892.378906 288.976562 L 892.378906 295.433594 L 895.605469 295.433594 L 895.605469 301.890625 L 898.832031 301.890625 L 898.832031 305.121094 L 902.0625 305.121094 L 902.0625 324.492188 L 898.832031 324.492188 L 898.832031 327.722656 Z M 902.0625 301.890625 L 902.0625 295.433594 L 898.832031 295.433594 L 898.832031 292.203125 L 895.605469 292.203125 L 895.605469 288.976562 L 892.378906 288.976562 L 892.378906 285.746094 L 889.152344 285.746094 L 889.152344 282.515625 L 885.921875 282.515625 L 885.921875 279.289062 L 882.699219 279.289062 L 882.699219 276.058594 L 879.472656 276.058594 L 879.472656 272.828125 L 872.929688 272.828125 L 873.015625 269.601562 L 840.742188 269.601562 L 840.742188 272.828125 L 834.289062 272.828125 L 834.289062 276.058594 L 827.835938 276.058594 L 827.835938 279.289062 L 824.609375 279.289062 L 824.609375 282.515625 L 821.382812 282.515625 L 821.382812 285.746094 L 818.152344 285.746094 L 818.152344 292.203125 L 814.925781 292.203125 L 814.925781 298.660156 L 811.699219 298.660156 L 811.699219 330.953125 L 814.925781 331.164062 L 814.925781 337.40625 L 818.152344 337.40625 L 818.152344 343.867188 L 824.609375 343.867188 L 824.609375 347.015625 L 827.835938 347.097656 L 827.835938 350.324219 L 831.0625 350.324219 L 831.0625 353.554688 L 837.515625 353.554688 L 837.515625 356.78125 L 840.742188 356.78125 L 840.742188 360.011719 L 869.789062 360.011719 L 869.789062 356.78125 L 876.246094 356.78125 L 876.246094 353.554688 L 882.699219 353.554688 L 882.699219 350.921875 L 885.921875 350.921875 L 885.921875 347.390625 L 889.101562 347.390625 L 889.152344 343.867188 L 892.378906 343.867188 L 892.378906 340.636719 L 895.605469 340.636719 L 895.605469 337.40625 L 898.832031 337.40625 L 898.832031 334.179688 L 898.855469 330.953125 L 898.832031 327.722656 L 902.0625 327.722656 L 902.0625 324.492188 L 905.289062 324.492188 L 905.289062 301.890625 L 902.0625 301.890625 " fill-opacity="1" fill-rule="nonzero"/></g></svg>