<svg xmlns="http://www.w3.org/2000/svg" xmlns:xlink="http://www.w3.org/1999/xlink" width="1280" zoomAndPan="magnify" viewBox="0 0 960 540.000001" height="720" preserveAspectRatio="xMidYMid meet" version="1.0"><defs><clipPath id="2618b5ef75"><path d="M 429 269.5 L 453 269.5 L 453 278 L 429 278 Z M 429 269.5 " clip-rule="nonzero"/></clipPath><clipPath id="55c26da691"><path d="M 459 345 L 468 345 L 468 352.597656 L 459 352.597656 Z M 459 345 " clip-rule="nonzero"/></clipPath><clipPath id="99bed591b0"><path d="M 475 269.5 L 498 269.5 L 498 278 L 475 278 Z M 475 269.5 " clip-rule="nonzero"/></clipPath><clipPath id="07ad0ebaec"><path d="M 414.707031 284 L 423 284 L 423 308 L 414.707031 308 Z M 414.707031 284 " clip-rule="nonzero"/></clipPath><clipPath id="75e669b2a5"><path d="M 505 284 L 512.773438 284 L 512.773438 308 L 505 308 Z M 505 284 " clip-rule="nonzero"/></clipPath></defs><path fill="#fc0310" d="M 505.21875 292.175781 L 505.21875 284.609375 L 497.679688 284.609375 L 497.679688 277.0625 L 475.058594 277.0625 L 475.058594 284.609375 L 467.503906 284.609375 L 467.503906 292.175781 L 459.960938 292.175781 L 459.960938 284.609375 L 452.421875 284.609375 L 452.421875 277.0625 L 429.785156 277.0625 L 429.785156 284.609375 L 422.246094 284.609375 L 422.246094 307.273438 L 429.785156 307.273438 L 429.785156 314.824219 L 437.339844 314.824219 L 437.339844 322.375 L 444.882812 322.375 L 444.882812 329.9375 L 452.421875 329.9375 L 452.421875 337.488281 L 459.960938 337.488281 L 459.960938 345.039062 L 467.503906 345.039062 L 467.503906 337.488281 L 475.058594 337.488281 L 475.058594 329.9375 L 482.597656 329.9375 L 482.597656 322.375 L 490.136719 322.375 L 490.136719 314.824219 L 497.679688 314.824219 L 497.679688 307.273438 L 505.21875 307.273438 Z M 505.21875 292.175781 " fill-opacity="1" fill-rule="nonzero"/><g clip-path="url(#2618b5ef75)"><path fill="#000000" d="M 444.882812 277.0625 L 452.421875 277.0625 L 452.421875 269.511719 L 429.785156 269.511719 L 429.785156 277.0625 Z M 444.882812 277.0625 " fill-opacity="1" fill-rule="nonzero"/></g><path fill="#000000" d="M 452.421875 277.0625 L 459.960938 277.0625 L 459.960938 284.609375 L 452.421875 284.609375 Z M 452.421875 277.0625 " fill-opacity="1" fill-rule="nonzero"/><path fill="#000000" d="M 459.960938 284.609375 L 467.503906 284.609375 L 467.503906 292.160156 L 459.960938 292.160156 Z M 459.960938 284.609375 " fill-opacity="1" fill-rule="nonzero"/><g clip-path="url(#55c26da691)"><path fill="#000000" d="M 459.960938 345.039062 L 467.503906 345.039062 L 467.503906 352.585938 L 459.960938 352.585938 Z M 459.960938 345.039062 " fill-opacity="1" fill-rule="nonzero"/></g><path fill="#000000" d="M 452.421875 337.488281 L 459.960938 337.488281 L 459.960938 345.039062 L 452.421875 345.039062 Z M 452.421875 337.488281 " fill-opacity="1" fill-rule="nonzero"/><path fill="#000000" d="M 444.882812 329.9375 L 452.421875 329.9375 L 452.421875 337.488281 L 444.882812 337.488281 Z M 444.882812 329.9375 " fill-opacity="1" fill-rule="nonzero"/><path fill="#000000" d="M 437.339844 322.375 L 444.882812 322.375 L 444.882812 329.921875 L 437.339844 329.921875 Z M 437.339844 322.375 " fill-opacity="1" fill-rule="nonzero"/><path fill="#000000" d="M 429.785156 314.824219 L 437.328125 314.824219 L 437.328125 322.375 L 429.785156 322.375 Z M 429.785156 314.824219 " fill-opacity="1" fill-rule="nonzero"/><path fill="#000000" d="M 422.246094 307.273438 L 429.785156 307.273438 L 429.785156 314.824219 L 422.246094 314.824219 Z M 422.246094 307.273438 " fill-opacity="1" fill-rule="nonzero"/><path fill="#000000" d="M 422.246094 277.0625 L 429.785156 277.0625 L 429.785156 284.609375 L 422.246094 284.609375 Z M 422.246094 277.0625 " fill-opacity="1" fill-rule="nonzero"/><g clip-path="url(#99bed591b0)"><path fill="#000000" d="M 490.136719 277.0625 L 497.679688 277.0625 L 497.679688 269.511719 L 475.058594 269.511719 L 475.058594 277.0625 Z M 490.136719 277.0625 " fill-opacity="1" fill-rule="nonzero"/></g><path fill="#000000" d="M 497.679688 277.0625 L 505.21875 277.0625 L 505.21875 284.609375 L 497.679688 284.609375 Z M 497.679688 277.0625 " fill-opacity="1" fill-rule="nonzero"/><path fill="#000000" d="M 467.503906 277.0625 L 475.042969 277.0625 L 475.042969 284.609375 L 467.503906 284.609375 Z M 467.503906 277.0625 " fill-opacity="1" fill-rule="nonzero"/><g clip-path="url(#07ad0ebaec)"><path fill="#000000" d="M 422.246094 292.175781 L 422.246094 284.609375 L 414.707031 284.609375 L 414.707031 307.273438 L 422.246094 307.273438 Z M 422.246094 292.175781 " fill-opacity="1" fill-rule="nonzero"/></g><path fill="#000000" d="M 467.503906 337.488281 L 475.042969 337.488281 L 475.042969 345.039062 L 467.503906 345.039062 Z M 467.503906 337.488281 " fill-opacity="1" fill-rule="nonzero"/><path fill="#000000" d="M 475.058594 329.9375 L 482.597656 329.9375 L 482.597656 337.488281 L 475.058594 337.488281 Z M 475.058594 329.9375 " fill-opacity="1" fill-rule="nonzero"/><path fill="#000000" d="M 482.597656 322.375 L 490.136719 322.375 L 490.136719 329.921875 L 482.597656 329.921875 Z M 482.597656 322.375 " fill-opacity="1" fill-rule="nonzero"/><path fill="#000000" d="M 490.136719 314.824219 L 497.679688 314.824219 L 497.679688 322.375 L 490.136719 322.375 Z M 490.136719 314.824219 " fill-opacity="1" fill-rule="nonzero"/><path fill="#000000" d="M 497.679688 307.273438 L 505.21875 307.273438 L 505.21875 314.824219 L 497.679688 314.824219 Z M 497.679688 307.273438 " fill-opacity="1" fill-rule="nonzero"/><g clip-path="url(#75e669b2a5)"><path fill="#000000" d="M 505.21875 284.609375 L 505.21875 307.273438 L 512.773438 307.273438 L 512.773438 284.609375 Z M 505.21875 284.609375 " fill-opacity="1" fill-rule="nonzero"/></g><path fill="#ffffff" d="M 429.785156 292.175781 L 437.386719 292.175781 L 437.386719 299.722656 L 429.785156 299.722656 Z M 429.785156 292.175781 " fill-opacity="1" fill-rule="nonzero"/><path fill="#ffffff" d="M 437.386719 284.609375 L 444.984375 284.609375 L 444.984375 292.160156 L 437.386719 292.160156 Z M 437.386719 284.609375 " fill-opacity="1" fill-rule="nonzero"/></svg>