<svg xmlns="http://www.w3.org/2000/svg" xmlns:xlink="http://www.w3.org/1999/xlink" width="1280" zoomAndPan="magnify" viewBox="0 0 960 540.000001" height="720" preserveAspectRatio="xMidYMid meet" version="1.0"><defs><clipPath id="ee68351d34"><path d="M 379.253906 186.660156 L 580.632812 186.660156 L 580.632812 388.039062 L 379.253906 388.039062 Z M 379.253906 186.660156 " clip-rule="nonzero"/></clipPath></defs><g clip-path="url(#ee68351d34)"><path fill="#ffffff" d="M 438.464844 186.660156 C 405.964844 186.660156 379.253906 213.335938 379.253906 245.875 L 379.253906 328.828125 C 379.253906 361.328125 405.929688 388.039062 438.464844 388.039062 L 521.421875 388.039062 C 553.921875 388.039062 580.632812 361.363281 580.632812 328.828125 L 580.632812 245.875 C 580.632812 213.371094 553.957031 186.660156 521.421875 186.660156 Z M 438.464844 204.96875 L 521.421875 204.96875 C 544.054688 204.96875 562.324219 223.242188 562.324219 245.875 L 562.324219 328.828125 C 562.324219 351.460938 544.054688 369.730469 521.421875 369.730469 L 438.464844 369.730469 C 415.832031 369.730469 397.5625 351.460938 397.5625 328.828125 L 397.5625 245.875 C 397.5625 223.242188 415.832031 204.96875 438.464844 204.96875 Z M 534.007812 224.992188 C 529.394531 224.992188 525.710938 228.675781 525.710938 233.289062 C 525.710938 237.898438 529.394531 241.582031 534.007812 241.582031 C 538.617188 241.582031 542.300781 237.898438 542.300781 233.289062 C 542.300781 228.675781 538.617188 224.992188 534.007812 224.992188 Z M 479.945312 232.429688 C 449.730469 232.429688 425.023438 257.136719 425.023438 287.351562 C 425.023438 317.5625 449.730469 342.273438 479.945312 342.273438 C 510.15625 342.273438 534.863281 317.5625 534.863281 287.351562 C 534.863281 257.136719 510.15625 232.429688 479.945312 232.429688 Z M 479.945312 250.738281 C 500.289062 250.738281 516.558594 267.003906 516.558594 287.351562 C 516.558594 307.695312 500.289062 323.964844 479.945312 323.964844 C 459.597656 323.964844 443.328125 307.695312 443.328125 287.351562 C 443.328125 267.003906 459.597656 250.738281 479.945312 250.738281 Z M 479.945312 250.738281 " fill-opacity="1" fill-rule="nonzero"/></g></svg>