<svg xmlns="http://www.w3.org/2000/svg" xmlns:xlink="http://www.w3.org/1999/xlink" width="1280" zoomAndPan="magnify" viewBox="0 0 960 540.000001" height="720" preserveAspectRatio="xMidYMid meet" version="1.0"><defs><clipPath id="3968decb5c"><path d="M 107 46 L 114.992188 46 L 114.992188 54 L 107 54 Z M 107 46 " clip-rule="nonzero"/></clipPath><clipPath id="ff8937ae36"><path d="M 51.734375 109.835938 L 58.902344 109.835938 L 58.902344 117.003906 L 51.734375 117.003906 Z M 51.734375 109.835938 " clip-rule="nonzero"/></clipPath><clipPath id="ee45619d4e"><path d="M 2.394531 109.835938 L 9.5625 109.835938 L 9.5625 117.003906 L 2.394531 117.003906 Z M 2.394531 109.835938 " clip-rule="nonzero"/></clipPath><clipPath id="4e3a2ccf1d"><path d="M 0.886719 25 L 3 25 L 3 33 L 0.886719 33 Z M 0.886719 25 " clip-rule="nonzero"/></clipPath><clipPath id="350ea49c15"><path d="M 234 46 L 241.816406 46 L 241.816406 54 L 234 54 Z M 234 46 " clip-rule="nonzero"/></clipPath><clipPath id="2b0ab6a4a1"><path d="M 178.558594 109.835938 L 185.730469 109.835938 L 185.730469 117.003906 L 178.558594 117.003906 Z M 178.558594 109.835938 " clip-rule="nonzero"/></clipPath><clipPath id="e6640169b3"><path d="M 129.21875 109.835938 L 136.386719 109.835938 L 136.386719 117.003906 L 129.21875 117.003906 Z M 129.21875 109.835938 " clip-rule="nonzero"/></clipPath><clipPath id="44e71e84bb"><path d="M 115.300781 53 L 123 53 L 123 61 L 115.300781 61 Z M 115.300781 53 " clip-rule="nonzero"/></clipPath><clipPath id="24ace99106"><path d="M 347 46 L 354.285156 46 L 354.285156 54 L 347 54 Z M 347 46 " clip-rule="nonzero"/></clipPath><clipPath id="c6841a9264"><path d="M 291.027344 109.835938 L 298.199219 109.835938 L 298.199219 117.003906 L 291.027344 117.003906 Z M 291.027344 109.835938 " clip-rule="nonzero"/></clipPath><clipPath id="ba72c53238"><path d="M 241.6875 109.835938 L 248.855469 109.835938 L 248.855469 117.003906 L 241.6875 117.003906 Z M 241.6875 109.835938 " clip-rule="nonzero"/></clipPath><clipPath id="2f3fc789b5"><path d="M 227.769531 53 L 235 53 L 235 61 L 227.769531 61 Z M 227.769531 53 " clip-rule="nonzero"/></clipPath><clipPath id="c14d743dce"><path d="M 461 46 L 468.382812 46 L 468.382812 54 L 461 54 Z M 461 46 " clip-rule="nonzero"/></clipPath><clipPath id="da2dae0ce5"><path d="M 405.125 109.835938 L 412.292969 109.835938 L 412.292969 117.003906 L 405.125 117.003906 Z M 405.125 109.835938 " clip-rule="nonzero"/></clipPath><clipPath id="19de328a65"><path d="M 355.78125 109.835938 L 362.953125 109.835938 L 362.953125 117.003906 L 355.78125 117.003906 Z M 355.78125 109.835938 " clip-rule="nonzero"/></clipPath><clipPath id="43dc8fb262"><path d="M 341.867188 53 L 349 53 L 349 61 L 341.867188 61 Z M 341.867188 53 " clip-rule="nonzero"/></clipPath><clipPath id="da02702e09"><path d="M 588 46 L 595.207031 46 L 595.207031 54 L 588 54 Z M 588 46 " clip-rule="nonzero"/></clipPath><clipPath id="7377612469"><path d="M 531.949219 109.835938 L 539 109.835938 L 539 117.003906 L 531.949219 117.003906 Z M 531.949219 109.835938 " clip-rule="nonzero"/></clipPath><clipPath id="e70f4ed983"><path d="M 482.609375 109.835938 L 489.777344 109.835938 L 489.777344 117.003906 L 482.609375 117.003906 Z M 482.609375 109.835938 " clip-rule="nonzero"/></clipPath><clipPath id="4240d572d4"><path d="M 468.691406 53 L 476 53 L 476 61 L 468.691406 61 Z M 468.691406 53 " clip-rule="nonzero"/></clipPath><clipPath id="47e1e344ca"><path d="M 715 46 L 722.03125 46 L 722.03125 54 L 715 54 Z M 715 46 " clip-rule="nonzero"/></clipPath><clipPath id="f19675c163"><path d="M 658.773438 109.835938 L 665.945312 109.835938 L 665.945312 117.003906 L 658.773438 117.003906 Z M 658.773438 109.835938 " clip-rule="nonzero"/></clipPath><clipPath id="f6538d2947"><path d="M 609.433594 109.835938 L 616.601562 109.835938 L 616.601562 117.003906 L 609.433594 117.003906 Z M 609.433594 109.835938 " clip-rule="nonzero"/></clipPath><clipPath id="47527baef9"><path d="M 595.515625 53 L 603 53 L 603 61 L 595.515625 61 Z M 595.515625 53 " clip-rule="nonzero"/></clipPath><clipPath id="855108f21f"><path d="M 842 46 L 849.265625 46 L 849.265625 54 L 842 54 Z M 842 46 " clip-rule="nonzero"/></clipPath><clipPath id="4433f3edae"><path d="M 786.007812 109.835938 L 793.179688 109.835938 L 793.179688 117.003906 L 786.007812 117.003906 Z M 786.007812 109.835938 " clip-rule="nonzero"/></clipPath><clipPath id="69d359e22d"><path d="M 736.667969 109.835938 L 743.835938 109.835938 L 743.835938 117.003906 L 736.667969 117.003906 Z M 736.667969 109.835938 " clip-rule="nonzero"/></clipPath><clipPath id="938f307aee"><path d="M 722.75 53 L 730 53 L 730 61 L 722.75 61 Z M 722.75 53 " clip-rule="nonzero"/></clipPath><clipPath id="cb59f14830"><path d="M 957 25 L 959.113281 25 L 959.113281 33 L 957 33 Z M 957 25 " clip-rule="nonzero"/></clipPath><clipPath id="68c7d40e3d"><path d="M 957 18 L 959.113281 18 L 959.113281 26 L 957 26 Z M 957 18 " clip-rule="nonzero"/></clipPath><clipPath id="e5aba94f5d"><path d="M 957 11 L 959.113281 11 L 959.113281 19 L 957 19 Z M 957 11 " clip-rule="nonzero"/></clipPath><clipPath id="11e553d48d"><path d="M 922.625 109.835938 L 929.792969 109.835938 L 929.792969 117.003906 L 922.625 117.003906 Z M 922.625 109.835938 " clip-rule="nonzero"/></clipPath><clipPath id="5d5e4f60d2"><path d="M 873.285156 109.835938 L 880.453125 109.835938 L 880.453125 117.003906 L 873.285156 117.003906 Z M 873.285156 109.835938 " clip-rule="nonzero"/></clipPath><clipPath id="f7de2e5151"><path d="M 859.367188 53 L 867 53 L 867 61 L 859.367188 61 Z M 859.367188 53 " clip-rule="nonzero"/></clipPath></defs><g clip-path="url(#3968decb5c)"><path fill="#fe9000" d="M 114.992188 46.71875 L 114.992188 53.746094 L 107.964844 53.746094 L 107.964844 46.71875 L 114.992188 46.71875 " fill-opacity="1" fill-rule="nonzero"/></g><path fill="#fe9000" d="M 107.964844 102.949219 L 107.964844 109.976562 L 100.9375 109.976562 L 100.9375 102.949219 L 107.964844 102.949219 " fill-opacity="1" fill-rule="nonzero"/><path fill="#fe9000" d="M 100.9375 18.601562 L 100.9375 25.628906 L 93.90625 25.628906 L 93.90625 18.601562 L 100.9375 18.601562 " fill-opacity="1" fill-rule="nonzero"/><path fill="#fe9000" d="M 93.90625 25.628906 L 93.90625 32.660156 L 86.878906 32.660156 L 86.878906 25.628906 L 93.90625 25.628906 " fill-opacity="1" fill-rule="nonzero"/><path fill="#f4db29" d="M 93.90625 18.601562 L 93.90625 25.628906 L 86.878906 25.628906 L 86.878906 18.601562 L 93.90625 18.601562 " fill-opacity="1" fill-rule="nonzero"/><path fill="#fe9000" d="M 93.90625 11.574219 L 93.90625 18.601562 L 86.878906 18.601562 L 86.878906 11.574219 L 93.90625 11.574219 " fill-opacity="1" fill-rule="nonzero"/><path fill="#fe9000" d="M 86.878906 18.601562 L 86.878906 25.628906 L 79.847656 25.628906 L 79.847656 18.601562 L 86.878906 18.601562 " fill-opacity="1" fill-rule="nonzero"/><path fill="#f4db29" d="M 79.847656 81.859375 L 79.847656 88.890625 L 72.820312 88.890625 L 72.820312 81.859375 L 79.847656 81.859375 " fill-opacity="1" fill-rule="nonzero"/><path fill="#f4db29" d="M 107.964844 -2.484375 L 107.964844 4.546875 L 100.9375 4.546875 L 100.9375 -2.484375 L 107.964844 -2.484375 " fill-opacity="1" fill-rule="nonzero"/><path fill="#fe9000" d="M 65.792969 102.949219 L 65.792969 109.976562 L 58.761719 109.976562 L 58.761719 102.949219 L 65.792969 102.949219 " fill-opacity="1" fill-rule="nonzero"/><g clip-path="url(#ff8937ae36)"><path fill="#fe9000" d="M 58.761719 109.976562 L 58.761719 117.003906 L 51.734375 117.003906 L 51.734375 109.976562 L 58.761719 109.976562 " fill-opacity="1" fill-rule="nonzero"/></g><path fill="#f4db29" d="M 58.761719 102.949219 L 58.761719 109.976562 L 51.734375 109.976562 L 51.734375 102.949219 L 58.761719 102.949219 " fill-opacity="1" fill-rule="nonzero"/><path fill="#fe9000" d="M 58.761719 95.917969 L 58.761719 102.949219 L 51.734375 102.949219 L 51.734375 95.917969 L 58.761719 95.917969 " fill-opacity="1" fill-rule="nonzero"/><path fill="#fe9000" d="M 65.792969 39.6875 L 65.792969 46.71875 L 58.761719 46.71875 L 58.761719 39.6875 L 65.792969 39.6875 " fill-opacity="1" fill-rule="nonzero"/><path fill="#fe9000" d="M 51.734375 102.949219 L 51.734375 109.976562 L 44.707031 109.976562 L 44.707031 102.949219 L 51.734375 102.949219 " fill-opacity="1" fill-rule="nonzero"/><path fill="#fe9000" d="M 58.761719 46.71875 L 58.761719 53.746094 L 51.734375 53.746094 L 51.734375 46.71875 L 58.761719 46.71875 " fill-opacity="1" fill-rule="nonzero"/><path fill="#f4db29" d="M 58.761719 39.6875 L 58.761719 46.71875 L 51.734375 46.71875 L 51.734375 39.6875 L 58.761719 39.6875 " fill-opacity="1" fill-rule="nonzero"/><path fill="#fe9000" d="M 58.761719 32.660156 L 58.761719 39.6875 L 51.734375 39.6875 L 51.734375 32.660156 L 58.761719 32.660156 " fill-opacity="1" fill-rule="nonzero"/><path fill="#fe9000" d="M 51.734375 53.746094 L 51.734375 60.777344 L 44.707031 60.777344 L 44.707031 53.746094 L 51.734375 53.746094 " fill-opacity="1" fill-rule="nonzero"/><path fill="#f4db29" d="M 51.734375 46.71875 L 51.734375 53.746094 L 44.707031 53.746094 L 44.707031 46.71875 L 51.734375 46.71875 " fill-opacity="1" fill-rule="nonzero"/><path fill="#fff9cf" d="M 51.734375 39.6875 L 51.734375 46.71875 L 44.707031 46.71875 L 44.707031 39.6875 L 51.734375 39.6875 " fill-opacity="1" fill-rule="nonzero"/><path fill="#f4db29" d="M 51.734375 32.660156 L 51.734375 39.6875 L 44.707031 39.6875 L 44.707031 32.660156 L 51.734375 32.660156 " fill-opacity="1" fill-rule="nonzero"/><path fill="#fe9000" d="M 51.734375 25.628906 L 51.734375 32.660156 L 44.707031 32.660156 L 44.707031 25.628906 L 51.734375 25.628906 " fill-opacity="1" fill-rule="nonzero"/><path fill="#fe9000" d="M 44.707031 46.71875 L 44.707031 53.746094 L 37.675781 53.746094 L 37.675781 46.71875 L 44.707031 46.71875 " fill-opacity="1" fill-rule="nonzero"/><path fill="#f4db29" d="M 44.707031 39.6875 L 44.707031 46.71875 L 37.675781 46.71875 L 37.675781 39.6875 L 44.707031 39.6875 " fill-opacity="1" fill-rule="nonzero"/><path fill="#fe9000" d="M 44.707031 32.660156 L 44.707031 39.6875 L 37.675781 39.6875 L 37.675781 32.660156 L 44.707031 32.660156 " fill-opacity="1" fill-rule="nonzero"/><path fill="#fe9000" d="M 37.675781 39.6875 L 37.675781 46.71875 L 30.648438 46.71875 L 30.648438 39.6875 L 37.675781 39.6875 " fill-opacity="1" fill-rule="nonzero"/><path fill="#fe9000" d="M 23.621094 81.859375 L 23.621094 88.890625 L 16.589844 88.890625 L 16.589844 81.859375 L 23.621094 81.859375 " fill-opacity="1" fill-rule="nonzero"/><path fill="#f4db29" d="M 23.621094 -2.484375 L 23.621094 4.546875 L 16.589844 4.546875 L 16.589844 -2.484375 L 23.621094 -2.484375 " fill-opacity="1" fill-rule="nonzero"/><path fill="#fe9000" d="M 16.589844 88.890625 L 16.589844 95.917969 L 9.5625 95.917969 L 9.5625 88.890625 L 16.589844 88.890625 " fill-opacity="1" fill-rule="nonzero"/><path fill="#f4db29" d="M 16.589844 81.859375 L 16.589844 88.890625 L 9.5625 88.890625 L 9.5625 81.859375 L 16.589844 81.859375 " fill-opacity="1" fill-rule="nonzero"/><path fill="#fe9000" d="M 16.589844 74.832031 L 16.589844 81.859375 L 9.5625 81.859375 L 9.5625 74.832031 L 16.589844 74.832031 " fill-opacity="1" fill-rule="nonzero"/><g clip-path="url(#ee45619d4e)"><path fill="#fe9000" d="M 9.5625 109.976562 L 9.5625 117.003906 L 2.53125 117.003906 L 2.53125 109.976562 L 9.5625 109.976562 " fill-opacity="1" fill-rule="nonzero"/></g><path fill="#fe9000" d="M 9.5625 81.859375 L 9.5625 88.890625 L 2.53125 88.890625 L 2.53125 81.859375 L 9.5625 81.859375 " fill-opacity="1" fill-rule="nonzero"/><g clip-path="url(#4e3a2ccf1d)"><path fill="#fe9000" d="M 2.53125 25.628906 L 2.53125 32.660156 L -4.492188 32.660156 L -4.492188 25.628906 L 2.53125 25.628906 " fill-opacity="1" fill-rule="nonzero"/></g><g clip-path="url(#350ea49c15)"><path fill="#fe9000" d="M 241.816406 46.71875 L 241.816406 53.746094 L 234.789062 53.746094 L 234.789062 46.71875 L 241.816406 46.71875 " fill-opacity="1" fill-rule="nonzero"/></g><path fill="#fe9000" d="M 234.789062 102.949219 L 234.789062 109.976562 L 227.761719 109.976562 L 227.761719 102.949219 L 234.789062 102.949219 " fill-opacity="1" fill-rule="nonzero"/><path fill="#fe9000" d="M 227.761719 18.601562 L 227.761719 25.628906 L 220.730469 25.628906 L 220.730469 18.601562 L 227.761719 18.601562 " fill-opacity="1" fill-rule="nonzero"/><path fill="#fe9000" d="M 220.730469 25.628906 L 220.730469 32.660156 L 213.703125 32.660156 L 213.703125 25.628906 L 220.730469 25.628906 " fill-opacity="1" fill-rule="nonzero"/><path fill="#f4db29" d="M 220.730469 18.601562 L 220.730469 25.628906 L 213.703125 25.628906 L 213.703125 18.601562 L 220.730469 18.601562 " fill-opacity="1" fill-rule="nonzero"/><path fill="#fe9000" d="M 220.730469 11.574219 L 220.730469 18.601562 L 213.703125 18.601562 L 213.703125 11.574219 L 220.730469 11.574219 " fill-opacity="1" fill-rule="nonzero"/><path fill="#fe9000" d="M 213.703125 18.601562 L 213.703125 25.628906 L 206.675781 25.628906 L 206.675781 18.601562 L 213.703125 18.601562 " fill-opacity="1" fill-rule="nonzero"/><path fill="#f4db29" d="M 206.675781 81.859375 L 206.675781 88.890625 L 199.648438 88.890625 L 199.648438 81.859375 L 206.675781 81.859375 " fill-opacity="1" fill-rule="nonzero"/><path fill="#f4db29" d="M 234.789062 -2.484375 L 234.789062 4.546875 L 227.761719 4.546875 L 227.761719 -2.484375 L 234.789062 -2.484375 " fill-opacity="1" fill-rule="nonzero"/><path fill="#fe9000" d="M 192.617188 102.949219 L 192.617188 109.976562 L 185.585938 109.976562 L 185.585938 102.949219 L 192.617188 102.949219 " fill-opacity="1" fill-rule="nonzero"/><g clip-path="url(#2b0ab6a4a1)"><path fill="#fe9000" d="M 185.585938 109.976562 L 185.585938 117.003906 L 178.558594 117.003906 L 178.558594 109.976562 L 185.585938 109.976562 " fill-opacity="1" fill-rule="nonzero"/></g><path fill="#f4db29" d="M 185.585938 102.949219 L 185.585938 109.976562 L 178.558594 109.976562 L 178.558594 102.949219 L 185.585938 102.949219 " fill-opacity="1" fill-rule="nonzero"/><path fill="#fe9000" d="M 185.585938 95.917969 L 185.585938 102.949219 L 178.558594 102.949219 L 178.558594 95.917969 L 185.585938 95.917969 " fill-opacity="1" fill-rule="nonzero"/><path fill="#fe9000" d="M 192.617188 39.6875 L 192.617188 46.71875 L 185.585938 46.71875 L 185.585938 39.6875 L 192.617188 39.6875 " fill-opacity="1" fill-rule="nonzero"/><path fill="#fe9000" d="M 178.558594 102.949219 L 178.558594 109.976562 L 171.53125 109.976562 L 171.53125 102.949219 L 178.558594 102.949219 " fill-opacity="1" fill-rule="nonzero"/><path fill="#fe9000" d="M 185.585938 46.71875 L 185.585938 53.746094 L 178.558594 53.746094 L 178.558594 46.71875 L 185.585938 46.71875 " fill-opacity="1" fill-rule="nonzero"/><path fill="#f4db29" d="M 185.585938 39.6875 L 185.585938 46.71875 L 178.558594 46.71875 L 178.558594 39.6875 L 185.585938 39.6875 " fill-opacity="1" fill-rule="nonzero"/><path fill="#fe9000" d="M 185.585938 32.660156 L 185.585938 39.6875 L 178.558594 39.6875 L 178.558594 32.660156 L 185.585938 32.660156 " fill-opacity="1" fill-rule="nonzero"/><path fill="#fe9000" d="M 178.558594 53.746094 L 178.558594 60.777344 L 171.53125 60.777344 L 171.53125 53.746094 L 178.558594 53.746094 " fill-opacity="1" fill-rule="nonzero"/><path fill="#f4db29" d="M 178.558594 46.71875 L 178.558594 53.746094 L 171.53125 53.746094 L 171.53125 46.71875 L 178.558594 46.71875 " fill-opacity="1" fill-rule="nonzero"/><path fill="#fff9cf" d="M 178.558594 39.6875 L 178.558594 46.71875 L 171.53125 46.71875 L 171.53125 39.6875 L 178.558594 39.6875 " fill-opacity="1" fill-rule="nonzero"/><path fill="#f4db29" d="M 178.558594 32.660156 L 178.558594 39.6875 L 171.53125 39.6875 L 171.53125 32.660156 L 178.558594 32.660156 " fill-opacity="1" fill-rule="nonzero"/><path fill="#fe9000" d="M 178.558594 25.628906 L 178.558594 32.660156 L 171.53125 32.660156 L 171.53125 25.628906 L 178.558594 25.628906 " fill-opacity="1" fill-rule="nonzero"/><path fill="#fe9000" d="M 171.53125 46.71875 L 171.53125 53.746094 L 164.503906 53.746094 L 164.503906 46.71875 L 171.53125 46.71875 " fill-opacity="1" fill-rule="nonzero"/><path fill="#f4db29" d="M 171.53125 39.6875 L 171.53125 46.71875 L 164.503906 46.71875 L 164.503906 39.6875 L 171.53125 39.6875 " fill-opacity="1" fill-rule="nonzero"/><path fill="#fe9000" d="M 171.53125 32.660156 L 171.53125 39.6875 L 164.503906 39.6875 L 164.503906 32.660156 L 171.53125 32.660156 " fill-opacity="1" fill-rule="nonzero"/><path fill="#fe9000" d="M 164.503906 39.6875 L 164.503906 46.71875 L 157.472656 46.71875 L 157.472656 39.6875 L 164.503906 39.6875 " fill-opacity="1" fill-rule="nonzero"/><path fill="#fe9000" d="M 150.445312 81.859375 L 150.445312 88.890625 L 143.417969 88.890625 L 143.417969 81.859375 L 150.445312 81.859375 " fill-opacity="1" fill-rule="nonzero"/><path fill="#f4db29" d="M 150.445312 -2.484375 L 150.445312 4.546875 L 143.417969 4.546875 L 143.417969 -2.484375 L 150.445312 -2.484375 " fill-opacity="1" fill-rule="nonzero"/><path fill="#fe9000" d="M 143.417969 88.890625 L 143.417969 95.917969 L 136.386719 95.917969 L 136.386719 88.890625 L 143.417969 88.890625 " fill-opacity="1" fill-rule="nonzero"/><path fill="#f4db29" d="M 143.417969 81.859375 L 143.417969 88.890625 L 136.386719 88.890625 L 136.386719 81.859375 L 143.417969 81.859375 " fill-opacity="1" fill-rule="nonzero"/><path fill="#fe9000" d="M 143.417969 74.832031 L 143.417969 81.859375 L 136.386719 81.859375 L 136.386719 74.832031 L 143.417969 74.832031 " fill-opacity="1" fill-rule="nonzero"/><g clip-path="url(#e6640169b3)"><path fill="#fe9000" d="M 136.386719 109.976562 L 136.386719 117.003906 L 129.355469 117.003906 L 129.355469 109.976562 L 136.386719 109.976562 " fill-opacity="1" fill-rule="nonzero"/></g><path fill="#fe9000" d="M 136.386719 81.859375 L 136.386719 88.890625 L 129.355469 88.890625 L 129.355469 81.859375 L 136.386719 81.859375 " fill-opacity="1" fill-rule="nonzero"/><path fill="#fe9000" d="M 129.355469 25.628906 L 129.355469 32.660156 L 122.332031 32.660156 L 122.332031 25.628906 L 129.355469 25.628906 " fill-opacity="1" fill-rule="nonzero"/><g clip-path="url(#44e71e84bb)"><path fill="#f4db29" d="M 122.332031 53.746094 L 122.332031 60.777344 L 115.300781 60.777344 L 115.300781 53.746094 L 122.332031 53.746094 " fill-opacity="1" fill-rule="nonzero"/></g><g clip-path="url(#24ace99106)"><path fill="#fe9000" d="M 354.285156 46.71875 L 354.285156 53.746094 L 347.257812 53.746094 L 347.257812 46.71875 L 354.285156 46.71875 " fill-opacity="1" fill-rule="nonzero"/></g><path fill="#fe9000" d="M 347.257812 102.949219 L 347.257812 109.976562 L 340.230469 109.976562 L 340.230469 102.949219 L 347.257812 102.949219 " fill-opacity="1" fill-rule="nonzero"/><path fill="#fe9000" d="M 340.230469 18.601562 L 340.230469 25.628906 L 333.199219 25.628906 L 333.199219 18.601562 L 340.230469 18.601562 " fill-opacity="1" fill-rule="nonzero"/><path fill="#fe9000" d="M 333.199219 25.628906 L 333.199219 32.660156 L 326.171875 32.660156 L 326.171875 25.628906 L 333.199219 25.628906 " fill-opacity="1" fill-rule="nonzero"/><path fill="#f4db29" d="M 333.199219 18.601562 L 333.199219 25.628906 L 326.171875 25.628906 L 326.171875 18.601562 L 333.199219 18.601562 " fill-opacity="1" fill-rule="nonzero"/><path fill="#fe9000" d="M 333.199219 11.574219 L 333.199219 18.601562 L 326.171875 18.601562 L 326.171875 11.574219 L 333.199219 11.574219 " fill-opacity="1" fill-rule="nonzero"/><path fill="#fe9000" d="M 326.171875 18.601562 L 326.171875 25.628906 L 319.144531 25.628906 L 319.144531 18.601562 L 326.171875 18.601562 " fill-opacity="1" fill-rule="nonzero"/><path fill="#f4db29" d="M 319.144531 81.859375 L 319.144531 88.890625 L 312.117188 88.890625 L 312.117188 81.859375 L 319.144531 81.859375 " fill-opacity="1" fill-rule="nonzero"/><path fill="#f4db29" d="M 347.257812 -2.484375 L 347.257812 4.546875 L 340.230469 4.546875 L 340.230469 -2.484375 L 347.257812 -2.484375 " fill-opacity="1" fill-rule="nonzero"/><path fill="#fe9000" d="M 305.085938 102.949219 L 305.085938 109.976562 L 298.054688 109.976562 L 298.054688 102.949219 L 305.085938 102.949219 " fill-opacity="1" fill-rule="nonzero"/><g clip-path="url(#c6841a9264)"><path fill="#fe9000" d="M 298.054688 109.976562 L 298.054688 117.003906 L 291.027344 117.003906 L 291.027344 109.976562 L 298.054688 109.976562 " fill-opacity="1" fill-rule="nonzero"/></g><path fill="#f4db29" d="M 298.054688 102.949219 L 298.054688 109.976562 L 291.027344 109.976562 L 291.027344 102.949219 L 298.054688 102.949219 " fill-opacity="1" fill-rule="nonzero"/><path fill="#fe9000" d="M 298.054688 95.917969 L 298.054688 102.949219 L 291.027344 102.949219 L 291.027344 95.917969 L 298.054688 95.917969 " fill-opacity="1" fill-rule="nonzero"/><path fill="#fe9000" d="M 305.085938 39.6875 L 305.085938 46.71875 L 298.054688 46.71875 L 298.054688 39.6875 L 305.085938 39.6875 " fill-opacity="1" fill-rule="nonzero"/><path fill="#fe9000" d="M 291.027344 102.949219 L 291.027344 109.976562 L 284 109.976562 L 284 102.949219 L 291.027344 102.949219 " fill-opacity="1" fill-rule="nonzero"/><path fill="#fe9000" d="M 298.054688 46.71875 L 298.054688 53.746094 L 291.027344 53.746094 L 291.027344 46.71875 L 298.054688 46.71875 " fill-opacity="1" fill-rule="nonzero"/><path fill="#f4db29" d="M 298.054688 39.6875 L 298.054688 46.71875 L 291.027344 46.71875 L 291.027344 39.6875 L 298.054688 39.6875 " fill-opacity="1" fill-rule="nonzero"/><path fill="#fe9000" d="M 298.054688 32.660156 L 298.054688 39.6875 L 291.027344 39.6875 L 291.027344 32.660156 L 298.054688 32.660156 " fill-opacity="1" fill-rule="nonzero"/><path fill="#fe9000" d="M 291.027344 53.746094 L 291.027344 60.777344 L 284 60.777344 L 284 53.746094 L 291.027344 53.746094 " fill-opacity="1" fill-rule="nonzero"/><path fill="#f4db29" d="M 291.027344 46.71875 L 291.027344 53.746094 L 284 53.746094 L 284 46.71875 L 291.027344 46.71875 " fill-opacity="1" fill-rule="nonzero"/><path fill="#fff9cf" d="M 291.027344 39.6875 L 291.027344 46.71875 L 284 46.71875 L 284 39.6875 L 291.027344 39.6875 " fill-opacity="1" fill-rule="nonzero"/><path fill="#f4db29" d="M 291.027344 32.660156 L 291.027344 39.6875 L 284 39.6875 L 284 32.660156 L 291.027344 32.660156 " fill-opacity="1" fill-rule="nonzero"/><path fill="#fe9000" d="M 291.027344 25.628906 L 291.027344 32.660156 L 284 32.660156 L 284 25.628906 L 291.027344 25.628906 " fill-opacity="1" fill-rule="nonzero"/><path fill="#fe9000" d="M 284 46.71875 L 284 53.746094 L 276.96875 53.746094 L 276.96875 46.71875 L 284 46.71875 " fill-opacity="1" fill-rule="nonzero"/><path fill="#f4db29" d="M 284 39.6875 L 284 46.71875 L 276.96875 46.71875 L 276.96875 39.6875 L 284 39.6875 " fill-opacity="1" fill-rule="nonzero"/><path fill="#fe9000" d="M 284 32.660156 L 284 39.6875 L 276.96875 39.6875 L 276.96875 32.660156 L 284 32.660156 " fill-opacity="1" fill-rule="nonzero"/><path fill="#fe9000" d="M 276.96875 39.6875 L 276.96875 46.71875 L 269.941406 46.71875 L 269.941406 39.6875 L 276.96875 39.6875 " fill-opacity="1" fill-rule="nonzero"/><path fill="#fe9000" d="M 262.914062 81.859375 L 262.914062 88.890625 L 255.886719 88.890625 L 255.886719 81.859375 L 262.914062 81.859375 " fill-opacity="1" fill-rule="nonzero"/><path fill="#f4db29" d="M 262.914062 -2.484375 L 262.914062 4.546875 L 255.886719 4.546875 L 255.886719 -2.484375 L 262.914062 -2.484375 " fill-opacity="1" fill-rule="nonzero"/><path fill="#fe9000" d="M 255.886719 88.890625 L 255.886719 95.917969 L 248.855469 95.917969 L 248.855469 88.890625 L 255.886719 88.890625 " fill-opacity="1" fill-rule="nonzero"/><path fill="#f4db29" d="M 255.886719 81.859375 L 255.886719 88.890625 L 248.855469 88.890625 L 248.855469 81.859375 L 255.886719 81.859375 " fill-opacity="1" fill-rule="nonzero"/><path fill="#fe9000" d="M 255.886719 74.832031 L 255.886719 81.859375 L 248.855469 81.859375 L 248.855469 74.832031 L 255.886719 74.832031 " fill-opacity="1" fill-rule="nonzero"/><g clip-path="url(#ba72c53238)"><path fill="#fe9000" d="M 248.855469 109.976562 L 248.855469 117.003906 L 241.824219 117.003906 L 241.824219 109.976562 L 248.855469 109.976562 " fill-opacity="1" fill-rule="nonzero"/></g><path fill="#fe9000" d="M 248.855469 81.859375 L 248.855469 88.890625 L 241.824219 88.890625 L 241.824219 81.859375 L 248.855469 81.859375 " fill-opacity="1" fill-rule="nonzero"/><path fill="#fe9000" d="M 241.824219 25.628906 L 241.824219 32.660156 L 234.800781 32.660156 L 234.800781 25.628906 L 241.824219 25.628906 " fill-opacity="1" fill-rule="nonzero"/><g clip-path="url(#2f3fc789b5)"><path fill="#f4db29" d="M 234.800781 53.746094 L 234.800781 60.777344 L 227.769531 60.777344 L 227.769531 53.746094 L 234.800781 53.746094 " fill-opacity="1" fill-rule="nonzero"/></g><g clip-path="url(#c14d743dce)"><path fill="#fe9000" d="M 468.382812 46.71875 L 468.382812 53.746094 L 461.355469 53.746094 L 461.355469 46.71875 L 468.382812 46.71875 " fill-opacity="1" fill-rule="nonzero"/></g><path fill="#fe9000" d="M 461.355469 102.949219 L 461.355469 109.976562 L 454.324219 109.976562 L 454.324219 102.949219 L 461.355469 102.949219 " fill-opacity="1" fill-rule="nonzero"/><path fill="#fe9000" d="M 454.324219 18.601562 L 454.324219 25.628906 L 447.296875 25.628906 L 447.296875 18.601562 L 454.324219 18.601562 " fill-opacity="1" fill-rule="nonzero"/><path fill="#fe9000" d="M 447.296875 25.628906 L 447.296875 32.660156 L 440.265625 32.660156 L 440.265625 25.628906 L 447.296875 25.628906 " fill-opacity="1" fill-rule="nonzero"/><path fill="#f4db29" d="M 447.296875 18.601562 L 447.296875 25.628906 L 440.265625 25.628906 L 440.265625 18.601562 L 447.296875 18.601562 " fill-opacity="1" fill-rule="nonzero"/><path fill="#fe9000" d="M 447.296875 11.574219 L 447.296875 18.601562 L 440.265625 18.601562 L 440.265625 11.574219 L 447.296875 11.574219 " fill-opacity="1" fill-rule="nonzero"/><path fill="#fe9000" d="M 440.265625 18.601562 L 440.265625 25.628906 L 433.238281 25.628906 L 433.238281 18.601562 L 440.265625 18.601562 " fill-opacity="1" fill-rule="nonzero"/><path fill="#f4db29" d="M 433.238281 81.859375 L 433.238281 88.890625 L 426.210938 88.890625 L 426.210938 81.859375 L 433.238281 81.859375 " fill-opacity="1" fill-rule="nonzero"/><path fill="#f4db29" d="M 461.355469 -2.484375 L 461.355469 4.546875 L 454.324219 4.546875 L 454.324219 -2.484375 L 461.355469 -2.484375 " fill-opacity="1" fill-rule="nonzero"/><path fill="#fe9000" d="M 419.179688 102.949219 L 419.179688 109.976562 L 412.152344 109.976562 L 412.152344 102.949219 L 419.179688 102.949219 " fill-opacity="1" fill-rule="nonzero"/><g clip-path="url(#da2dae0ce5)"><path fill="#fe9000" d="M 412.152344 109.976562 L 412.152344 117.003906 L 405.125 117.003906 L 405.125 109.976562 L 412.152344 109.976562 " fill-opacity="1" fill-rule="nonzero"/></g><path fill="#f4db29" d="M 412.152344 102.949219 L 412.152344 109.976562 L 405.125 109.976562 L 405.125 102.949219 L 412.152344 102.949219 " fill-opacity="1" fill-rule="nonzero"/><path fill="#fe9000" d="M 412.152344 95.917969 L 412.152344 102.949219 L 405.125 102.949219 L 405.125 95.917969 L 412.152344 95.917969 " fill-opacity="1" fill-rule="nonzero"/><path fill="#fe9000" d="M 419.179688 39.6875 L 419.179688 46.71875 L 412.152344 46.71875 L 412.152344 39.6875 L 419.179688 39.6875 " fill-opacity="1" fill-rule="nonzero"/><path fill="#fe9000" d="M 405.125 102.949219 L 405.125 109.976562 L 398.097656 109.976562 L 398.097656 102.949219 L 405.125 102.949219 " fill-opacity="1" fill-rule="nonzero"/><path fill="#fe9000" d="M 412.152344 46.71875 L 412.152344 53.746094 L 405.125 53.746094 L 405.125 46.71875 L 412.152344 46.71875 " fill-opacity="1" fill-rule="nonzero"/><path fill="#f4db29" d="M 412.152344 39.6875 L 412.152344 46.71875 L 405.125 46.71875 L 405.125 39.6875 L 412.152344 39.6875 " fill-opacity="1" fill-rule="nonzero"/><path fill="#fe9000" d="M 412.152344 32.660156 L 412.152344 39.6875 L 405.125 39.6875 L 405.125 32.660156 L 412.152344 32.660156 " fill-opacity="1" fill-rule="nonzero"/><path fill="#fe9000" d="M 405.125 53.746094 L 405.125 60.777344 L 398.097656 60.777344 L 398.097656 53.746094 L 405.125 53.746094 " fill-opacity="1" fill-rule="nonzero"/><path fill="#f4db29" d="M 405.125 46.71875 L 405.125 53.746094 L 398.097656 53.746094 L 398.097656 46.71875 L 405.125 46.71875 " fill-opacity="1" fill-rule="nonzero"/><path fill="#fff9cf" d="M 405.125 39.6875 L 405.125 46.71875 L 398.097656 46.71875 L 398.097656 39.6875 L 405.125 39.6875 " fill-opacity="1" fill-rule="nonzero"/><path fill="#f4db29" d="M 405.125 32.660156 L 405.125 39.6875 L 398.097656 39.6875 L 398.097656 32.660156 L 405.125 32.660156 " fill-opacity="1" fill-rule="nonzero"/><path fill="#fe9000" d="M 405.125 25.628906 L 405.125 32.660156 L 398.097656 32.660156 L 398.097656 25.628906 L 405.125 25.628906 " fill-opacity="1" fill-rule="nonzero"/><path fill="#fe9000" d="M 398.097656 46.71875 L 398.097656 53.746094 L 391.066406 53.746094 L 391.066406 46.71875 L 398.097656 46.71875 " fill-opacity="1" fill-rule="nonzero"/><path fill="#f4db29" d="M 398.097656 39.6875 L 398.097656 46.71875 L 391.066406 46.71875 L 391.066406 39.6875 L 398.097656 39.6875 " fill-opacity="1" fill-rule="nonzero"/><path fill="#fe9000" d="M 398.097656 32.660156 L 398.097656 39.6875 L 391.066406 39.6875 L 391.066406 32.660156 L 398.097656 32.660156 " fill-opacity="1" fill-rule="nonzero"/><path fill="#fe9000" d="M 391.066406 39.6875 L 391.066406 46.71875 L 384.035156 46.71875 L 384.035156 39.6875 L 391.066406 39.6875 " fill-opacity="1" fill-rule="nonzero"/><path fill="#fe9000" d="M 377.011719 81.859375 L 377.011719 88.890625 L 369.980469 88.890625 L 369.980469 81.859375 L 377.011719 81.859375 " fill-opacity="1" fill-rule="nonzero"/><path fill="#f4db29" d="M 377.011719 -2.484375 L 377.011719 4.546875 L 369.980469 4.546875 L 369.980469 -2.484375 L 377.011719 -2.484375 " fill-opacity="1" fill-rule="nonzero"/><path fill="#fe9000" d="M 369.980469 88.890625 L 369.980469 95.917969 L 362.953125 95.917969 L 362.953125 88.890625 L 369.980469 88.890625 " fill-opacity="1" fill-rule="nonzero"/><path fill="#f4db29" d="M 369.980469 81.859375 L 369.980469 88.890625 L 362.953125 88.890625 L 362.953125 81.859375 L 369.980469 81.859375 " fill-opacity="1" fill-rule="nonzero"/><path fill="#fe9000" d="M 369.980469 74.832031 L 369.980469 81.859375 L 362.953125 81.859375 L 362.953125 74.832031 L 369.980469 74.832031 " fill-opacity="1" fill-rule="nonzero"/><g clip-path="url(#19de328a65)"><path fill="#fe9000" d="M 362.953125 109.976562 L 362.953125 117.003906 L 355.921875 117.003906 L 355.921875 109.976562 L 362.953125 109.976562 " fill-opacity="1" fill-rule="nonzero"/></g><path fill="#fe9000" d="M 362.953125 81.859375 L 362.953125 88.890625 L 355.921875 88.890625 L 355.921875 81.859375 L 362.953125 81.859375 " fill-opacity="1" fill-rule="nonzero"/><path fill="#fe9000" d="M 355.921875 25.628906 L 355.921875 32.660156 L 348.894531 32.660156 L 348.894531 25.628906 L 355.921875 25.628906 " fill-opacity="1" fill-rule="nonzero"/><g clip-path="url(#43dc8fb262)"><path fill="#f4db29" d="M 348.894531 53.746094 L 348.894531 60.777344 L 341.867188 60.777344 L 341.867188 53.746094 L 348.894531 53.746094 " fill-opacity="1" fill-rule="nonzero"/></g><g clip-path="url(#da02702e09)"><path fill="#fe9000" d="M 595.207031 46.71875 L 595.207031 53.746094 L 588.179688 53.746094 L 588.179688 46.71875 L 595.207031 46.71875 " fill-opacity="1" fill-rule="nonzero"/></g><path fill="#fe9000" d="M 588.179688 102.949219 L 588.179688 109.976562 L 581.152344 109.976562 L 581.152344 102.949219 L 588.179688 102.949219 " fill-opacity="1" fill-rule="nonzero"/><path fill="#fe9000" d="M 581.152344 18.601562 L 581.152344 25.628906 L 574.121094 25.628906 L 574.121094 18.601562 L 581.152344 18.601562 " fill-opacity="1" fill-rule="nonzero"/><path fill="#fe9000" d="M 574.121094 25.628906 L 574.121094 32.660156 L 567.09375 32.660156 L 567.09375 25.628906 L 574.121094 25.628906 " fill-opacity="1" fill-rule="nonzero"/><path fill="#f4db29" d="M 574.121094 18.601562 L 574.121094 25.628906 L 567.09375 25.628906 L 567.09375 18.601562 L 574.121094 18.601562 " fill-opacity="1" fill-rule="nonzero"/><path fill="#fe9000" d="M 574.121094 11.574219 L 574.121094 18.601562 L 567.09375 18.601562 L 567.09375 11.574219 L 574.121094 11.574219 " fill-opacity="1" fill-rule="nonzero"/><path fill="#fe9000" d="M 567.09375 18.601562 L 567.09375 25.628906 L 560.0625 25.628906 L 560.0625 18.601562 L 567.09375 18.601562 " fill-opacity="1" fill-rule="nonzero"/><path fill="#f4db29" d="M 560.0625 81.859375 L 560.0625 88.890625 L 553.035156 88.890625 L 553.035156 81.859375 L 560.0625 81.859375 " fill-opacity="1" fill-rule="nonzero"/><path fill="#f4db29" d="M 588.179688 -2.484375 L 588.179688 4.546875 L 581.152344 4.546875 L 581.152344 -2.484375 L 588.179688 -2.484375 " fill-opacity="1" fill-rule="nonzero"/><path fill="#fe9000" d="M 546.007812 102.949219 L 546.007812 109.976562 L 538.976562 109.976562 L 538.976562 102.949219 L 546.007812 102.949219 " fill-opacity="1" fill-rule="nonzero"/><g clip-path="url(#7377612469)"><path fill="#fe9000" d="M 538.976562 109.976562 L 538.976562 117.003906 L 531.949219 117.003906 L 531.949219 109.976562 L 538.976562 109.976562 " fill-opacity="1" fill-rule="nonzero"/></g><path fill="#f4db29" d="M 538.976562 102.949219 L 538.976562 109.976562 L 531.949219 109.976562 L 531.949219 102.949219 L 538.976562 102.949219 " fill-opacity="1" fill-rule="nonzero"/><path fill="#fe9000" d="M 538.976562 95.917969 L 538.976562 102.949219 L 531.949219 102.949219 L 531.949219 95.917969 L 538.976562 95.917969 " fill-opacity="1" fill-rule="nonzero"/><path fill="#fe9000" d="M 546.007812 39.6875 L 546.007812 46.71875 L 538.976562 46.71875 L 538.976562 39.6875 L 546.007812 39.6875 " fill-opacity="1" fill-rule="nonzero"/><path fill="#fe9000" d="M 531.949219 102.949219 L 531.949219 109.976562 L 524.921875 109.976562 L 524.921875 102.949219 L 531.949219 102.949219 " fill-opacity="1" fill-rule="nonzero"/><path fill="#fe9000" d="M 538.976562 46.71875 L 538.976562 53.746094 L 531.949219 53.746094 L 531.949219 46.71875 L 538.976562 46.71875 " fill-opacity="1" fill-rule="nonzero"/><path fill="#f4db29" d="M 538.976562 39.6875 L 538.976562 46.71875 L 531.949219 46.71875 L 531.949219 39.6875 L 538.976562 39.6875 " fill-opacity="1" fill-rule="nonzero"/><path fill="#fe9000" d="M 538.976562 32.660156 L 538.976562 39.6875 L 531.949219 39.6875 L 531.949219 32.660156 L 538.976562 32.660156 " fill-opacity="1" fill-rule="nonzero"/><path fill="#fe9000" d="M 531.949219 53.746094 L 531.949219 60.777344 L 524.921875 60.777344 L 524.921875 53.746094 L 531.949219 53.746094 " fill-opacity="1" fill-rule="nonzero"/><path fill="#f4db29" d="M 531.949219 46.71875 L 531.949219 53.746094 L 524.921875 53.746094 L 524.921875 46.71875 L 531.949219 46.71875 " fill-opacity="1" fill-rule="nonzero"/><path fill="#fff9cf" d="M 531.949219 39.6875 L 531.949219 46.71875 L 524.921875 46.71875 L 524.921875 39.6875 L 531.949219 39.6875 " fill-opacity="1" fill-rule="nonzero"/><path fill="#f4db29" d="M 531.949219 32.660156 L 531.949219 39.6875 L 524.921875 39.6875 L 524.921875 32.660156 L 531.949219 32.660156 " fill-opacity="1" fill-rule="nonzero"/><path fill="#fe9000" d="M 531.949219 25.628906 L 531.949219 32.660156 L 524.921875 32.660156 L 524.921875 25.628906 L 531.949219 25.628906 " fill-opacity="1" fill-rule="nonzero"/><path fill="#fe9000" d="M 524.921875 46.71875 L 524.921875 53.746094 L 517.890625 53.746094 L 517.890625 46.71875 L 524.921875 46.71875 " fill-opacity="1" fill-rule="nonzero"/><path fill="#f4db29" d="M 524.921875 39.6875 L 524.921875 46.71875 L 517.890625 46.71875 L 517.890625 39.6875 L 524.921875 39.6875 " fill-opacity="1" fill-rule="nonzero"/><path fill="#fe9000" d="M 524.921875 32.660156 L 524.921875 39.6875 L 517.890625 39.6875 L 517.890625 32.660156 L 524.921875 32.660156 " fill-opacity="1" fill-rule="nonzero"/><path fill="#fe9000" d="M 517.890625 39.6875 L 517.890625 46.71875 L 510.863281 46.71875 L 510.863281 39.6875 L 517.890625 39.6875 " fill-opacity="1" fill-rule="nonzero"/><path fill="#fe9000" d="M 503.835938 81.859375 L 503.835938 88.890625 L 496.804688 88.890625 L 496.804688 81.859375 L 503.835938 81.859375 " fill-opacity="1" fill-rule="nonzero"/><path fill="#f4db29" d="M 503.835938 -2.484375 L 503.835938 4.546875 L 496.804688 4.546875 L 496.804688 -2.484375 L 503.835938 -2.484375 " fill-opacity="1" fill-rule="nonzero"/><path fill="#fe9000" d="M 496.804688 88.890625 L 496.804688 95.917969 L 489.777344 95.917969 L 489.777344 88.890625 L 496.804688 88.890625 " fill-opacity="1" fill-rule="nonzero"/><path fill="#f4db29" d="M 496.804688 81.859375 L 496.804688 88.890625 L 489.777344 88.890625 L 489.777344 81.859375 L 496.804688 81.859375 " fill-opacity="1" fill-rule="nonzero"/><path fill="#fe9000" d="M 496.804688 74.832031 L 496.804688 81.859375 L 489.777344 81.859375 L 489.777344 74.832031 L 496.804688 74.832031 " fill-opacity="1" fill-rule="nonzero"/><g clip-path="url(#e70f4ed983)"><path fill="#fe9000" d="M 489.777344 109.976562 L 489.777344 117.003906 L 482.746094 117.003906 L 482.746094 109.976562 L 489.777344 109.976562 " fill-opacity="1" fill-rule="nonzero"/></g><path fill="#fe9000" d="M 489.777344 81.859375 L 489.777344 88.890625 L 482.746094 88.890625 L 482.746094 81.859375 L 489.777344 81.859375 " fill-opacity="1" fill-rule="nonzero"/><path fill="#fe9000" d="M 482.746094 25.628906 L 482.746094 32.660156 L 475.722656 32.660156 L 475.722656 25.628906 L 482.746094 25.628906 " fill-opacity="1" fill-rule="nonzero"/><g clip-path="url(#4240d572d4)"><path fill="#f4db29" d="M 475.722656 53.746094 L 475.722656 60.777344 L 468.691406 60.777344 L 468.691406 53.746094 L 475.722656 53.746094 " fill-opacity="1" fill-rule="nonzero"/></g><g clip-path="url(#47e1e344ca)"><path fill="#fe9000" d="M 722.03125 46.71875 L 722.03125 53.746094 L 715.003906 53.746094 L 715.003906 46.71875 L 722.03125 46.71875 " fill-opacity="1" fill-rule="nonzero"/></g><path fill="#fe9000" d="M 715.003906 102.949219 L 715.003906 109.976562 L 707.976562 109.976562 L 707.976562 102.949219 L 715.003906 102.949219 " fill-opacity="1" fill-rule="nonzero"/><path fill="#fe9000" d="M 707.976562 18.601562 L 707.976562 25.628906 L 700.949219 25.628906 L 700.949219 18.601562 L 707.976562 18.601562 " fill-opacity="1" fill-rule="nonzero"/><path fill="#fe9000" d="M 700.949219 25.628906 L 700.949219 32.660156 L 693.917969 32.660156 L 693.917969 25.628906 L 700.949219 25.628906 " fill-opacity="1" fill-rule="nonzero"/><path fill="#f4db29" d="M 700.949219 18.601562 L 700.949219 25.628906 L 693.917969 25.628906 L 693.917969 18.601562 L 700.949219 18.601562 " fill-opacity="1" fill-rule="nonzero"/><path fill="#fe9000" d="M 700.949219 11.574219 L 700.949219 18.601562 L 693.917969 18.601562 L 693.917969 11.574219 L 700.949219 11.574219 " fill-opacity="1" fill-rule="nonzero"/><path fill="#fe9000" d="M 693.917969 18.601562 L 693.917969 25.628906 L 686.890625 25.628906 L 686.890625 18.601562 L 693.917969 18.601562 " fill-opacity="1" fill-rule="nonzero"/><path fill="#f4db29" d="M 686.890625 81.859375 L 686.890625 88.890625 L 679.863281 88.890625 L 679.863281 81.859375 L 686.890625 81.859375 " fill-opacity="1" fill-rule="nonzero"/><path fill="#f4db29" d="M 715.003906 -2.484375 L 715.003906 4.546875 L 707.976562 4.546875 L 707.976562 -2.484375 L 715.003906 -2.484375 " fill-opacity="1" fill-rule="nonzero"/><path fill="#fe9000" d="M 672.832031 102.949219 L 672.832031 109.976562 L 665.800781 109.976562 L 665.800781 102.949219 L 672.832031 102.949219 " fill-opacity="1" fill-rule="nonzero"/><g clip-path="url(#f19675c163)"><path fill="#fe9000" d="M 665.800781 109.976562 L 665.800781 117.003906 L 658.773438 117.003906 L 658.773438 109.976562 L 665.800781 109.976562 " fill-opacity="1" fill-rule="nonzero"/></g><path fill="#f4db29" d="M 665.800781 102.949219 L 665.800781 109.976562 L 658.773438 109.976562 L 658.773438 102.949219 L 665.800781 102.949219 " fill-opacity="1" fill-rule="nonzero"/><path fill="#fe9000" d="M 665.800781 95.917969 L 665.800781 102.949219 L 658.773438 102.949219 L 658.773438 95.917969 L 665.800781 95.917969 " fill-opacity="1" fill-rule="nonzero"/><path fill="#fe9000" d="M 672.832031 39.6875 L 672.832031 46.71875 L 665.800781 46.71875 L 665.800781 39.6875 L 672.832031 39.6875 " fill-opacity="1" fill-rule="nonzero"/><path fill="#fe9000" d="M 658.773438 102.949219 L 658.773438 109.976562 L 651.746094 109.976562 L 651.746094 102.949219 L 658.773438 102.949219 " fill-opacity="1" fill-rule="nonzero"/><path fill="#fe9000" d="M 665.800781 46.71875 L 665.800781 53.746094 L 658.773438 53.746094 L 658.773438 46.71875 L 665.800781 46.71875 " fill-opacity="1" fill-rule="nonzero"/><path fill="#f4db29" d="M 665.800781 39.6875 L 665.800781 46.71875 L 658.773438 46.71875 L 658.773438 39.6875 L 665.800781 39.6875 " fill-opacity="1" fill-rule="nonzero"/><path fill="#fe9000" d="M 665.800781 32.660156 L 665.800781 39.6875 L 658.773438 39.6875 L 658.773438 32.660156 L 665.800781 32.660156 " fill-opacity="1" fill-rule="nonzero"/><path fill="#fe9000" d="M 658.773438 53.746094 L 658.773438 60.777344 L 651.746094 60.777344 L 651.746094 53.746094 L 658.773438 53.746094 " fill-opacity="1" fill-rule="nonzero"/><path fill="#f4db29" d="M 658.773438 46.71875 L 658.773438 53.746094 L 651.746094 53.746094 L 651.746094 46.71875 L 658.773438 46.71875 " fill-opacity="1" fill-rule="nonzero"/><path fill="#fff9cf" d="M 658.773438 39.6875 L 658.773438 46.71875 L 651.746094 46.71875 L 651.746094 39.6875 L 658.773438 39.6875 " fill-opacity="1" fill-rule="nonzero"/><path fill="#f4db29" d="M 658.773438 32.660156 L 658.773438 39.6875 L 651.746094 39.6875 L 651.746094 32.660156 L 658.773438 32.660156 " fill-opacity="1" fill-rule="nonzero"/><path fill="#fe9000" d="M 658.773438 25.628906 L 658.773438 32.660156 L 651.746094 32.660156 L 651.746094 25.628906 L 658.773438 25.628906 " fill-opacity="1" fill-rule="nonzero"/><path fill="#fe9000" d="M 651.746094 46.71875 L 651.746094 53.746094 L 644.71875 53.746094 L 644.71875 46.71875 L 651.746094 46.71875 " fill-opacity="1" fill-rule="nonzero"/><path fill="#f4db29" d="M 651.746094 39.6875 L 651.746094 46.71875 L 644.71875 46.71875 L 644.71875 39.6875 L 651.746094 39.6875 " fill-opacity="1" fill-rule="nonzero"/><path fill="#fe9000" d="M 651.746094 32.660156 L 651.746094 39.6875 L 644.71875 39.6875 L 644.71875 32.660156 L 651.746094 32.660156 " fill-opacity="1" fill-rule="nonzero"/><path fill="#fe9000" d="M 644.71875 39.6875 L 644.71875 46.71875 L 637.6875 46.71875 L 637.6875 39.6875 L 644.71875 39.6875 " fill-opacity="1" fill-rule="nonzero"/><path fill="#fe9000" d="M 630.660156 81.859375 L 630.660156 88.890625 L 623.632812 88.890625 L 623.632812 81.859375 L 630.660156 81.859375 " fill-opacity="1" fill-rule="nonzero"/><path fill="#f4db29" d="M 630.660156 -2.484375 L 630.660156 4.546875 L 623.632812 4.546875 L 623.632812 -2.484375 L 630.660156 -2.484375 " fill-opacity="1" fill-rule="nonzero"/><path fill="#fe9000" d="M 623.632812 88.890625 L 623.632812 95.917969 L 616.601562 95.917969 L 616.601562 88.890625 L 623.632812 88.890625 " fill-opacity="1" fill-rule="nonzero"/><path fill="#f4db29" d="M 623.632812 81.859375 L 623.632812 88.890625 L 616.601562 88.890625 L 616.601562 81.859375 L 623.632812 81.859375 " fill-opacity="1" fill-rule="nonzero"/><path fill="#fe9000" d="M 623.632812 74.832031 L 623.632812 81.859375 L 616.601562 81.859375 L 616.601562 74.832031 L 623.632812 74.832031 " fill-opacity="1" fill-rule="nonzero"/><g clip-path="url(#f6538d2947)"><path fill="#fe9000" d="M 616.601562 109.976562 L 616.601562 117.003906 L 609.570312 117.003906 L 609.570312 109.976562 L 616.601562 109.976562 " fill-opacity="1" fill-rule="nonzero"/></g><path fill="#fe9000" d="M 616.601562 81.859375 L 616.601562 88.890625 L 609.570312 88.890625 L 609.570312 81.859375 L 616.601562 81.859375 " fill-opacity="1" fill-rule="nonzero"/><path fill="#fe9000" d="M 609.570312 25.628906 L 609.570312 32.660156 L 602.546875 32.660156 L 602.546875 25.628906 L 609.570312 25.628906 " fill-opacity="1" fill-rule="nonzero"/><g clip-path="url(#47527baef9)"><path fill="#f4db29" d="M 602.546875 53.746094 L 602.546875 60.777344 L 595.515625 60.777344 L 595.515625 53.746094 L 602.546875 53.746094 " fill-opacity="1" fill-rule="nonzero"/></g><g clip-path="url(#855108f21f)"><path fill="#fe9000" d="M 849.265625 46.71875 L 849.265625 53.746094 L 842.238281 53.746094 L 842.238281 46.71875 L 849.265625 46.71875 " fill-opacity="1" fill-rule="nonzero"/></g><path fill="#fe9000" d="M 842.238281 102.949219 L 842.238281 109.976562 L 835.210938 109.976562 L 835.210938 102.949219 L 842.238281 102.949219 " fill-opacity="1" fill-rule="nonzero"/><path fill="#fe9000" d="M 835.210938 18.601562 L 835.210938 25.628906 L 828.183594 25.628906 L 828.183594 18.601562 L 835.210938 18.601562 " fill-opacity="1" fill-rule="nonzero"/><path fill="#fe9000" d="M 828.183594 25.628906 L 828.183594 32.660156 L 821.152344 32.660156 L 821.152344 25.628906 L 828.183594 25.628906 " fill-opacity="1" fill-rule="nonzero"/><path fill="#f4db29" d="M 828.183594 18.601562 L 828.183594 25.628906 L 821.152344 25.628906 L 821.152344 18.601562 L 828.183594 18.601562 " fill-opacity="1" fill-rule="nonzero"/><path fill="#fe9000" d="M 828.183594 11.574219 L 828.183594 18.601562 L 821.152344 18.601562 L 821.152344 11.574219 L 828.183594 11.574219 " fill-opacity="1" fill-rule="nonzero"/><path fill="#fe9000" d="M 821.152344 18.601562 L 821.152344 25.628906 L 814.125 25.628906 L 814.125 18.601562 L 821.152344 18.601562 " fill-opacity="1" fill-rule="nonzero"/><path fill="#f4db29" d="M 814.125 81.859375 L 814.125 88.890625 L 807.097656 88.890625 L 807.097656 81.859375 L 814.125 81.859375 " fill-opacity="1" fill-rule="nonzero"/><path fill="#f4db29" d="M 842.238281 -2.484375 L 842.238281 4.546875 L 835.210938 4.546875 L 835.210938 -2.484375 L 842.238281 -2.484375 " fill-opacity="1" fill-rule="nonzero"/><path fill="#fe9000" d="M 800.066406 102.949219 L 800.066406 109.976562 L 793.035156 109.976562 L 793.035156 102.949219 L 800.066406 102.949219 " fill-opacity="1" fill-rule="nonzero"/><g clip-path="url(#4433f3edae)"><path fill="#fe9000" d="M 793.035156 109.976562 L 793.035156 117.003906 L 786.007812 117.003906 L 786.007812 109.976562 L 793.035156 109.976562 " fill-opacity="1" fill-rule="nonzero"/></g><path fill="#f4db29" d="M 793.035156 102.949219 L 793.035156 109.976562 L 786.007812 109.976562 L 786.007812 102.949219 L 793.035156 102.949219 " fill-opacity="1" fill-rule="nonzero"/><path fill="#fe9000" d="M 793.035156 95.917969 L 793.035156 102.949219 L 786.007812 102.949219 L 786.007812 95.917969 L 793.035156 95.917969 " fill-opacity="1" fill-rule="nonzero"/><path fill="#fe9000" d="M 800.066406 39.6875 L 800.066406 46.71875 L 793.035156 46.71875 L 793.035156 39.6875 L 800.066406 39.6875 " fill-opacity="1" fill-rule="nonzero"/><path fill="#fe9000" d="M 786.007812 102.949219 L 786.007812 109.976562 L 778.980469 109.976562 L 778.980469 102.949219 L 786.007812 102.949219 " fill-opacity="1" fill-rule="nonzero"/><path fill="#fe9000" d="M 793.035156 46.71875 L 793.035156 53.746094 L 786.007812 53.746094 L 786.007812 46.71875 L 793.035156 46.71875 " fill-opacity="1" fill-rule="nonzero"/><path fill="#f4db29" d="M 793.035156 39.6875 L 793.035156 46.71875 L 786.007812 46.71875 L 786.007812 39.6875 L 793.035156 39.6875 " fill-opacity="1" fill-rule="nonzero"/><path fill="#fe9000" d="M 793.035156 32.660156 L 793.035156 39.6875 L 786.007812 39.6875 L 786.007812 32.660156 L 793.035156 32.660156 " fill-opacity="1" fill-rule="nonzero"/><path fill="#fe9000" d="M 786.007812 53.746094 L 786.007812 60.777344 L 778.980469 60.777344 L 778.980469 53.746094 L 786.007812 53.746094 " fill-opacity="1" fill-rule="nonzero"/><path fill="#f4db29" d="M 786.007812 46.71875 L 786.007812 53.746094 L 778.980469 53.746094 L 778.980469 46.71875 L 786.007812 46.71875 " fill-opacity="1" fill-rule="nonzero"/><path fill="#fff9cf" d="M 786.007812 39.6875 L 786.007812 46.71875 L 778.980469 46.71875 L 778.980469 39.6875 L 786.007812 39.6875 " fill-opacity="1" fill-rule="nonzero"/><path fill="#f4db29" d="M 786.007812 32.660156 L 786.007812 39.6875 L 778.980469 39.6875 L 778.980469 32.660156 L 786.007812 32.660156 " fill-opacity="1" fill-rule="nonzero"/><path fill="#fe9000" d="M 786.007812 25.628906 L 786.007812 32.660156 L 778.980469 32.660156 L 778.980469 25.628906 L 786.007812 25.628906 " fill-opacity="1" fill-rule="nonzero"/><path fill="#fe9000" d="M 778.980469 46.71875 L 778.980469 53.746094 L 771.953125 53.746094 L 771.953125 46.71875 L 778.980469 46.71875 " fill-opacity="1" fill-rule="nonzero"/><path fill="#f4db29" d="M 778.980469 39.6875 L 778.980469 46.71875 L 771.953125 46.71875 L 771.953125 39.6875 L 778.980469 39.6875 " fill-opacity="1" fill-rule="nonzero"/><path fill="#fe9000" d="M 778.980469 32.660156 L 778.980469 39.6875 L 771.953125 39.6875 L 771.953125 32.660156 L 778.980469 32.660156 " fill-opacity="1" fill-rule="nonzero"/><path fill="#fe9000" d="M 771.953125 39.6875 L 771.953125 46.71875 L 764.921875 46.71875 L 764.921875 39.6875 L 771.953125 39.6875 " fill-opacity="1" fill-rule="nonzero"/><path fill="#fe9000" d="M 757.894531 81.859375 L 757.894531 88.890625 L 750.867188 88.890625 L 750.867188 81.859375 L 757.894531 81.859375 " fill-opacity="1" fill-rule="nonzero"/><path fill="#f4db29" d="M 757.894531 -2.484375 L 757.894531 4.546875 L 750.867188 4.546875 L 750.867188 -2.484375 L 757.894531 -2.484375 " fill-opacity="1" fill-rule="nonzero"/><path fill="#fe9000" d="M 750.867188 88.890625 L 750.867188 95.917969 L 743.835938 95.917969 L 743.835938 88.890625 L 750.867188 88.890625 " fill-opacity="1" fill-rule="nonzero"/><path fill="#f4db29" d="M 750.867188 81.859375 L 750.867188 88.890625 L 743.835938 88.890625 L 743.835938 81.859375 L 750.867188 81.859375 " fill-opacity="1" fill-rule="nonzero"/><path fill="#fe9000" d="M 750.867188 74.832031 L 750.867188 81.859375 L 743.835938 81.859375 L 743.835938 74.832031 L 750.867188 74.832031 " fill-opacity="1" fill-rule="nonzero"/><g clip-path="url(#69d359e22d)"><path fill="#fe9000" d="M 743.835938 109.976562 L 743.835938 117.003906 L 736.804688 117.003906 L 736.804688 109.976562 L 743.835938 109.976562 " fill-opacity="1" fill-rule="nonzero"/></g><path fill="#fe9000" d="M 743.835938 81.859375 L 743.835938 88.890625 L 736.804688 88.890625 L 736.804688 81.859375 L 743.835938 81.859375 " fill-opacity="1" fill-rule="nonzero"/><path fill="#fe9000" d="M 736.804688 25.628906 L 736.804688 32.660156 L 729.78125 32.660156 L 729.78125 25.628906 L 736.804688 25.628906 " fill-opacity="1" fill-rule="nonzero"/><g clip-path="url(#938f307aee)"><path fill="#f4db29" d="M 729.78125 53.746094 L 729.78125 60.777344 L 722.75 60.777344 L 722.75 53.746094 L 729.78125 53.746094 " fill-opacity="1" fill-rule="nonzero"/></g><g clip-path="url(#cb59f14830)"><path fill="#fe9000" d="M 964.796875 25.628906 L 964.796875 32.660156 L 957.769531 32.660156 L 957.769531 25.628906 L 964.796875 25.628906 " fill-opacity="1" fill-rule="nonzero"/></g><g clip-path="url(#68c7d40e3d)"><path fill="#f4db29" d="M 964.796875 18.601562 L 964.796875 25.628906 L 957.769531 25.628906 L 957.769531 18.601562 L 964.796875 18.601562 " fill-opacity="1" fill-rule="nonzero"/></g><g clip-path="url(#e5aba94f5d)"><path fill="#fe9000" d="M 964.796875 11.574219 L 964.796875 18.601562 L 957.769531 18.601562 L 957.769531 11.574219 L 964.796875 11.574219 " fill-opacity="1" fill-rule="nonzero"/></g><path fill="#fe9000" d="M 957.769531 18.601562 L 957.769531 25.628906 L 950.742188 25.628906 L 950.742188 18.601562 L 957.769531 18.601562 " fill-opacity="1" fill-rule="nonzero"/><path fill="#f4db29" d="M 950.742188 81.859375 L 950.742188 88.890625 L 943.710938 88.890625 L 943.710938 81.859375 L 950.742188 81.859375 " fill-opacity="1" fill-rule="nonzero"/><path fill="#fe9000" d="M 936.683594 102.949219 L 936.683594 109.976562 L 929.652344 109.976562 L 929.652344 102.949219 L 936.683594 102.949219 " fill-opacity="1" fill-rule="nonzero"/><g clip-path="url(#11e553d48d)"><path fill="#fe9000" d="M 929.652344 109.976562 L 929.652344 117.003906 L 922.625 117.003906 L 922.625 109.976562 L 929.652344 109.976562 " fill-opacity="1" fill-rule="nonzero"/></g><path fill="#f4db29" d="M 929.652344 102.949219 L 929.652344 109.976562 L 922.625 109.976562 L 922.625 102.949219 L 929.652344 102.949219 " fill-opacity="1" fill-rule="nonzero"/><path fill="#fe9000" d="M 929.652344 95.917969 L 929.652344 102.949219 L 922.625 102.949219 L 922.625 95.917969 L 929.652344 95.917969 " fill-opacity="1" fill-rule="nonzero"/><path fill="#fe9000" d="M 936.683594 39.6875 L 936.683594 46.71875 L 929.652344 46.71875 L 929.652344 39.6875 L 936.683594 39.6875 " fill-opacity="1" fill-rule="nonzero"/><path fill="#fe9000" d="M 922.625 102.949219 L 922.625 109.976562 L 915.597656 109.976562 L 915.597656 102.949219 L 922.625 102.949219 " fill-opacity="1" fill-rule="nonzero"/><path fill="#fe9000" d="M 929.652344 46.71875 L 929.652344 53.746094 L 922.625 53.746094 L 922.625 46.71875 L 929.652344 46.71875 " fill-opacity="1" fill-rule="nonzero"/><path fill="#f4db29" d="M 929.652344 39.6875 L 929.652344 46.71875 L 922.625 46.71875 L 922.625 39.6875 L 929.652344 39.6875 " fill-opacity="1" fill-rule="nonzero"/><path fill="#fe9000" d="M 929.652344 32.660156 L 929.652344 39.6875 L 922.625 39.6875 L 922.625 32.660156 L 929.652344 32.660156 " fill-opacity="1" fill-rule="nonzero"/><path fill="#fe9000" d="M 922.625 53.746094 L 922.625 60.777344 L 915.597656 60.777344 L 915.597656 53.746094 L 922.625 53.746094 " fill-opacity="1" fill-rule="nonzero"/><path fill="#f4db29" d="M 922.625 46.71875 L 922.625 53.746094 L 915.597656 53.746094 L 915.597656 46.71875 L 922.625 46.71875 " fill-opacity="1" fill-rule="nonzero"/><path fill="#fff9cf" d="M 922.625 39.6875 L 922.625 46.71875 L 915.597656 46.71875 L 915.597656 39.6875 L 922.625 39.6875 " fill-opacity="1" fill-rule="nonzero"/><path fill="#f4db29" d="M 922.625 32.660156 L 922.625 39.6875 L 915.597656 39.6875 L 915.597656 32.660156 L 922.625 32.660156 " fill-opacity="1" fill-rule="nonzero"/><path fill="#fe9000" d="M 922.625 25.628906 L 922.625 32.660156 L 915.597656 32.660156 L 915.597656 25.628906 L 922.625 25.628906 " fill-opacity="1" fill-rule="nonzero"/><path fill="#fe9000" d="M 915.597656 46.71875 L 915.597656 53.746094 L 908.566406 53.746094 L 908.566406 46.71875 L 915.597656 46.71875 " fill-opacity="1" fill-rule="nonzero"/><path fill="#f4db29" d="M 915.597656 39.6875 L 915.597656 46.71875 L 908.566406 46.71875 L 908.566406 39.6875 L 915.597656 39.6875 " fill-opacity="1" fill-rule="nonzero"/><path fill="#fe9000" d="M 915.597656 32.660156 L 915.597656 39.6875 L 908.566406 39.6875 L 908.566406 32.660156 L 915.597656 32.660156 " fill-opacity="1" fill-rule="nonzero"/><path fill="#fe9000" d="M 908.566406 39.6875 L 908.566406 46.71875 L 901.539062 46.71875 L 901.539062 39.6875 L 908.566406 39.6875 " fill-opacity="1" fill-rule="nonzero"/><path fill="#fe9000" d="M 894.511719 81.859375 L 894.511719 88.890625 L 887.480469 88.890625 L 887.480469 81.859375 L 894.511719 81.859375 " fill-opacity="1" fill-rule="nonzero"/><path fill="#f4db29" d="M 894.511719 -2.484375 L 894.511719 4.546875 L 887.480469 4.546875 L 887.480469 -2.484375 L 894.511719 -2.484375 " fill-opacity="1" fill-rule="nonzero"/><path fill="#fe9000" d="M 887.480469 88.890625 L 887.480469 95.917969 L 880.453125 95.917969 L 880.453125 88.890625 L 887.480469 88.890625 " fill-opacity="1" fill-rule="nonzero"/><path fill="#f4db29" d="M 887.480469 81.859375 L 887.480469 88.890625 L 880.453125 88.890625 L 880.453125 81.859375 L 887.480469 81.859375 " fill-opacity="1" fill-rule="nonzero"/><path fill="#fe9000" d="M 887.480469 74.832031 L 887.480469 81.859375 L 880.453125 81.859375 L 880.453125 74.832031 L 887.480469 74.832031 " fill-opacity="1" fill-rule="nonzero"/><g clip-path="url(#5d5e4f60d2)"><path fill="#fe9000" d="M 880.453125 109.976562 L 880.453125 117.003906 L 873.421875 117.003906 L 873.421875 109.976562 L 880.453125 109.976562 " fill-opacity="1" fill-rule="nonzero"/></g><path fill="#fe9000" d="M 880.453125 81.859375 L 880.453125 88.890625 L 873.421875 88.890625 L 873.421875 81.859375 L 880.453125 81.859375 " fill-opacity="1" fill-rule="nonzero"/><path fill="#fe9000" d="M 873.421875 25.628906 L 873.421875 32.660156 L 866.398438 32.660156 L 866.398438 25.628906 L 873.421875 25.628906 " fill-opacity="1" fill-rule="nonzero"/><g clip-path="url(#f7de2e5151)"><path fill="#f4db29" d="M 866.398438 53.746094 L 866.398438 60.777344 L 859.367188 60.777344 L 859.367188 53.746094 L 866.398438 53.746094 " fill-opacity="1" fill-rule="nonzero"/></g></svg>