<svg xmlns="http://www.w3.org/2000/svg" xmlns:xlink="http://www.w3.org/1999/xlink" width="1280" zoomAndPan="magnify" viewBox="0 0 960 540.000001" height="720" preserveAspectRatio="xMidYMid meet" version="1.0"><defs><clipPath id="23b1dedaa7"><path d="M 374.195312 193.242188 L 586.054688 193.242188 L 586.054688 405.101562 L 374.195312 405.101562 Z M 374.195312 193.242188 " clip-rule="nonzero"/></clipPath></defs><path fill="#ffffff" d="M 495.195312 286.835938 L 550.179688 227.945312 L 536.457031 227.511719 L 488.941406 278.457031 L 450.589844 227.121094 L 401.382812 226.25 L 461.839844 307.46875 L 404.292969 369.140625 L 417.886719 369.703125 L 468.09375 315.894531 L 508.136719 369.746094 L 558.824219 372.050781 Z M 418.234375 234.894531 L 446.378906 235.371094 L 541.582031 362.929688 L 512.480469 361.582031 Z M 418.234375 234.894531 " fill-opacity="1" fill-rule="nonzero"/><g clip-path="url(#23b1dedaa7)"><path stroke-linecap="butt" transform="matrix(0.434313, 0, 0, 0.434313, 374.196133, 193.24295)" fill="none" stroke-linejoin="miter" d="M 426.399291 483.098215 L 61.400817 483.098215 C 30.101357 483.098215 4.702025 457.698883 4.702025 426.399423 L 4.702025 61.400949 C 4.60309 30.002554 30.002422 4.603222 61.301882 4.603222 L 426.300355 4.603222 C 457.599815 4.603222 482.999147 30.002554 482.999147 61.302014 L 482.999147 426.300487 C 483.098083 457.698883 457.698751 483.098215 426.399291 483.098215 Z M 426.399291 483.098215 " stroke="#000000" stroke-width="9.277" stroke-opacity="1" stroke-miterlimit="10"/></g></svg>