<svg xmlns="http://www.w3.org/2000/svg" xmlns:xlink="http://www.w3.org/1999/xlink" width="1280" zoomAndPan="magnify" viewBox="0 0 960 540.000001" height="720" preserveAspectRatio="xMidYMid meet" version="1.0"><defs><clipPath id="d56d4ccc44"><path d="M 466 138 L 727.265625 138 L 727.265625 401 L 466 401 Z M 466 138 " clip-rule="nonzero"/></clipPath><clipPath id="5c39f97f25"><path d="M 206.230469 374 L 727.265625 374 L 727.265625 427.054688 L 206.230469 427.054688 Z M 206.230469 374 " clip-rule="nonzero"/></clipPath><clipPath id="0c75a8f6d3"><path d="M 466 111.886719 L 702 111.886719 L 702 375 L 466 375 Z M 466 111.886719 " clip-rule="nonzero"/></clipPath><clipPath id="05f75b8f6b"><path d="M 232 111.886719 L 467 111.886719 L 467 375 L 232 375 Z M 232 111.886719 " clip-rule="nonzero"/></clipPath><clipPath id="78ea154442"><path d="M 206.230469 138 L 467 138 L 467 401 L 206.230469 401 Z M 206.230469 138 " clip-rule="nonzero"/></clipPath></defs><g clip-path="url(#d56d4ccc44)"><path fill="#b9b085" d="M 492.785156 400.777344 L 518.824219 400.777344 L 518.824219 374.503906 L 727.265625 374.503906 L 727.265625 138.164062 L 701.222656 138.164062 L 701.222656 348.230469 L 492.785156 348.230469 L 492.785156 374.503906 L 466.746094 374.503906 L 466.746094 400.777344 Z M 492.785156 400.777344 " fill-opacity="1" fill-rule="evenodd"/></g><g clip-path="url(#5c39f97f25)"><path fill="#a97539" d="M 388.566406 400.777344 L 414.605469 400.777344 L 414.605469 427.050781 C 449.367188 427.050781 484.066406 427.050781 518.824219 427.050781 L 518.824219 400.777344 L 727.265625 400.777344 L 727.265625 374.503906 C 657.804688 374.503906 588.34375 374.503906 518.824219 374.503906 L 518.824219 400.777344 L 414.667969 400.777344 L 414.667969 374.503906 L 206.230469 374.503906 L 206.230469 400.777344 Z M 388.566406 400.777344 " fill-opacity="1" fill-rule="evenodd"/></g><g clip-path="url(#0c75a8f6d3)"><path fill="#ded2a0" d="M 466.746094 374.503906 L 492.785156 374.503906 L 492.785156 348.230469 L 701.222656 348.230469 L 701.222656 111.890625 L 492.785156 111.890625 L 492.785156 138.164062 L 466.746094 138.164062 Z M 466.746094 374.503906 " fill-opacity="1" fill-rule="evenodd"/></g><g clip-path="url(#05f75b8f6b)"><path fill="#f4e8b3" d="M 440.707031 374.503906 L 466.746094 374.503906 L 466.746094 138.164062 L 440.707031 138.164062 L 440.707031 111.890625 L 232.269531 111.890625 L 232.269531 348.230469 C 301.726562 348.230469 371.1875 348.230469 440.707031 348.230469 Z M 440.707031 374.503906 " fill-opacity="1" fill-rule="evenodd"/></g><g clip-path="url(#78ea154442)"><path fill="#ded2a0" d="M 232.269531 374.503906 L 414.667969 374.503906 L 414.667969 400.777344 L 466.746094 400.777344 L 466.746094 374.503906 L 440.707031 374.503906 L 440.707031 348.230469 L 232.269531 348.230469 L 232.269531 138.164062 L 206.230469 138.164062 L 206.230469 374.503906 Z M 232.269531 374.503906 " fill-opacity="1" fill-rule="evenodd"/></g><path fill="#808080" d="M 258.308594 164.378906 L 414.605469 164.378906 L 414.605469 138.105469 C 362.527344 138.105469 310.386719 138.105469 258.308594 138.105469 Z M 649.085938 321.957031 L 675.125 321.957031 L 675.125 295.683594 C 623.042969 295.683594 570.90625 295.683594 518.824219 295.683594 L 518.824219 321.957031 Z M 388.566406 321.957031 L 414.605469 321.957031 L 414.605469 295.683594 C 362.527344 295.683594 310.386719 295.683594 258.308594 295.683594 L 258.308594 321.957031 Z M 649.085938 269.472656 L 675.125 269.472656 L 675.125 243.199219 L 518.824219 243.199219 L 518.824219 269.472656 Z M 388.566406 269.472656 L 414.605469 269.472656 L 414.605469 243.199219 C 362.527344 243.199219 310.386719 243.199219 258.308594 243.199219 L 258.308594 269.472656 Z M 649.085938 216.925781 L 675.125 216.925781 L 675.125 190.652344 L 518.824219 190.652344 L 518.824219 216.925781 Z M 388.566406 216.925781 L 414.605469 216.925781 L 414.605469 190.652344 C 362.527344 190.652344 310.386719 190.652344 258.308594 190.652344 L 258.308594 216.925781 Z M 649.085938 164.378906 L 675.125 164.378906 L 675.125 138.105469 L 518.824219 138.105469 L 518.824219 164.378906 Z M 649.085938 164.378906 " fill-opacity="1" fill-rule="evenodd"/></svg>