<svg xmlns="http://www.w3.org/2000/svg" viewBox="0 0 370.94 431.23"><defs><style>.cls-1{fill:#007090;}.cls-2{fill:#01a7c2;}.cls-3{fill:#eaebed;}.cls-4{fill:#a3bac3;}.cls-5{fill:#fe6d73;}.cls-6,.cls-7,.cls-8{fill:none;stroke-miterlimit:10;}.cls-6{stroke:#eaebed;}.cls-7{stroke:#007090;}.cls-8{stroke:#000;stroke-width:3px;}</style></defs><g id="Layer_2" data-name="Layer 2"><g id="Layer_39" data-name="Layer 39"><path class="cls-1" d="M0,113.31V317.92a11.15,11.15,0,0,0,5.51,9.62L179.84,429.7a11.14,11.14,0,0,0,11.27,0L365.43,327.54a11.13,11.13,0,0,0,5.51-9.62V113.31a11.13,11.13,0,0,0-5.51-9.62L191.11,1.53a11.14,11.14,0,0,0-11.27,0L5.51,103.69A11.15,11.15,0,0,0,0,113.31Z"/><polygon class="cls-2" points="248.35 316.41 306.49 350.92 306.06 146.24 248.35 112.38 248.35 316.41"/><polygon class="cls-3" points="9.95 114.06 9.95 318.1 186.65 420.11 9.95 114.06"/><polygon class="cls-3" points="9.95 112.37 186.65 216.08 361.08 114.38 184.27 12.56 9.95 112.37"/><polygon class="cls-3" points="306.06 216.57 363.35 183.5 363.35 114.06 186.65 216.08 186.65 420.11 249.62 318.62 363.35 318.1 363.35 248.67 306.06 216.57"/><polygon class="cls-4" points="306.49 146.89 306.49 216.08 249.62 181.77 306.49 146.89"/><polygon class="cls-5" points="186.65 216.08 249.62 180.81 249.62 383.75 186.65 420.11 186.65 216.08"/><polygon class="cls-5" points="306.49 146.89 306.49 167.72 306.49 196.23 306.49 216.08 363.35 183.25 363.35 163.4 363.35 133.91 363.35 114.06 306.49 146.89"/><polygon class="cls-5" points="306.49 282.72 306.49 302.56 306.49 331.08 306.49 350.92 363.35 318.1 363.35 298.25 363.35 268.75 363.35 248.91 306.49 282.72"/><polygon class="cls-5" points="230.3 261.84 230.3 280.98 230.3 306.67 243.76 322.22 306.48 282.83 306.48 262.99 306.48 233.49 306.49 216.08 230.3 261.84"/><polygon class="cls-4" points="306.49 282.72 306.49 282.72 306.49 350.92 249.62 318.62 306.49 282.72"/><polygon class="cls-2" points="123.67 383.75 186.65 420.11 186.65 216.08 123.67 179.72 123.67 383.75"/><polygon class="cls-2" points="9.95 318.1 72.92 354.45 72.92 150.42 9.95 114.06 9.95 318.1"/><polygon class="cls-2" points="64.41 349.21 127.39 385.57 127.39 181.53 64.41 145.18 64.41 349.21"/><polygon class="cls-4" points="60.7 214.08 60.7 232.35 60.7 260.87 60.7 280.71 117.56 314.52 117.56 314.46 123.67 318.1 123.67 298.25 123.67 268.75 123.67 250.59 60.7 214.08"/><polygon class="cls-3" points="124.02 250.51 123.67 248.91 123.67 319.96 60.7 282.17 124.02 250.51"/><polygon class="cls-4" points="248.82 111.72 248.35 182.49 306.48 146.88 248.82 111.72"/><polygon class="cls-4" points="271.58 65.61 206.85 191.2 187.07 204.64 136.5 150.01 128.44 141.31 271.58 65.61"/><polygon class="cls-4" points="271.58 65.61 128.44 141.31 113.12 159.48 122.09 135.63 271.58 65.61"/><polygon class="cls-4" points="271.58 65.61 122.09 135.63 46.6 110.92 69.11 97.43 271.58 65.61"/><polygon class="cls-4" points="128.44 141.31 136.5 150.01 113.12 159.48 128.44 141.31"/><polyline class="cls-6" points="128.44 141.31 136.5 150.01 187.07 204.64"/><line class="cls-6" x1="206.85" y1="191.2" x2="187.07" y2="204.64"/><line class="cls-6" x1="271.58" y1="65.61" x2="206.85" y2="191.2"/><line class="cls-6" x1="69.11" y1="97.43" x2="271.58" y2="65.61"/><line class="cls-6" x1="46.6" y1="110.92" x2="69.11" y2="97.43"/><line class="cls-6" x1="122.09" y1="135.63" x2="46.6" y2="110.92"/><line class="cls-6" x1="113.12" y1="159.48" x2="122.09" y2="135.63"/><line class="cls-6" x1="128.44" y1="141.31" x2="113.12" y2="159.48"/><line class="cls-6" x1="136.5" y1="150.01" x2="113.12" y2="159.48"/><line class="cls-6" x1="128.44" y1="141.31" x2="271.58" y2="65.61"/><line class="cls-6" x1="122.09" y1="135.63" x2="271.58" y2="65.61"/><polygon class="cls-3" points="248.96 110.49 248.67 178.84 188.93 143.85 248.96 110.49"/><line class="cls-7" x1="249.62" y1="178.84" x2="249.62" y2="383.75"/><line class="cls-7" x1="60.7" y1="143.36" x2="237.29" y2="42.67"/><line class="cls-7" x1="123.68" y1="179.72" x2="303.46" y2="80.87"/><line class="cls-7" x1="250.39" y1="179.28" x2="72.93" y2="76.18"/><line class="cls-7" x1="307.14" y1="146.87" x2="137.8" y2="41.63"/><line class="cls-7" x1="60.7" y1="142.63" x2="60.7" y2="347.4"/><line class="cls-7" x1="123.68" y1="178.84" x2="123.68" y2="384.19"/><line class="cls-7" x1="186.65" y1="287.62" x2="9.95" y2="183.72"/><line class="cls-7" x1="186.65" y1="357" x2="9.95" y2="253.09"/><line class="cls-7" x1="307.14" y1="146.87" x2="306.49" y2="349.54"/><line class="cls-7" x1="306.49" y1="216.08" x2="186.65" y2="287.62"/><line class="cls-7" x1="306.49" y1="282.72" x2="186.65" y2="357.23"/><line class="cls-8" x1="363.35" y1="114.06" x2="363.35" y2="184.31"/><line class="cls-8" x1="186.65" y1="216.08" x2="186.65" y2="420.11"/><line class="cls-8" x1="186.65" y1="216.08" x2="248.96" y2="180.1"/><line class="cls-8" x1="248.93" y1="251.25" x2="249.61" y2="178.84"/><line class="cls-8" x1="306.06" y1="216.57" x2="249.62" y2="250.03"/><line class="cls-8" x1="306.06" y1="145.6" x2="306.06" y2="216.57"/><line class="cls-8" x1="362.65" y1="115.4" x2="305.29" y2="146.96"/><line class="cls-8" x1="306.06" y1="216.57" x2="364.12" y2="182.97"/><line class="cls-8" x1="185.82" y1="420.59" x2="250.18" y2="383.43"/><line class="cls-8" x1="249.62" y1="318.62" x2="249.62" y2="384.81"/><line class="cls-8" x1="306.49" y1="282.72" x2="248.86" y2="319.82"/><line class="cls-8" x1="306.49" y1="351.72" x2="306.49" y2="282.72"/><line class="cls-8" x1="364.13" y1="317.34" x2="307.21" y2="350.3"/><line class="cls-8" x1="363.35" y1="248.91" x2="363.35" y2="318.67"/><line class="cls-8" x1="306.49" y1="282.72" x2="362.8" y2="250.23"/><line class="cls-8" x1="306.06" y1="216.57" x2="306.49" y2="282.72"/><line class="cls-8" x1="9.02" y1="113.53" x2="186.65" y2="216.08"/><line class="cls-8" x1="9.95" y1="318.09" x2="9.95" y2="114.94"/><line class="cls-8" x1="187.16" y1="420.41" x2="9.22" y2="316.83"/><polygon class="cls-8" points="121.86 317.95 62.52 282.33 62.52 216.92 121.86 251.69 121.86 317.95"/></g></g></svg>