<svg xmlns="http://www.w3.org/2000/svg" viewBox="0 0 400.66 410.11"><defs><style>.cls-1{fill:#01a7c2;}.cls-2{fill:#eaebed;}.cls-3{fill:#a3bac3;}.cls-4{fill:#fe6d73;}.cls-5,.cls-6,.cls-7{fill:none;stroke-miterlimit:10;}.cls-5{stroke:#eaebed;}.cls-6{stroke:#007090;}.cls-7{stroke:#000;stroke-width:3px;}</style></defs><g id="Layer_2" data-name="Layer 2"><g id="Layer_34" data-name="Layer 34"><polygon class="cls-1" points="196.75 248.39 244.26 276.61 243.92 109.28 196.75 81.6 196.75 248.39"/><polygon class="cls-2" points="1.85 82.97 1.85 249.77 146.3 333.16 1.85 82.97"/><polygon class="cls-2" points="1.85 81.59 146.3 166.37 288.9 83.24 144.35 0 1.85 81.59"/><polygon class="cls-2" points="243.92 166.77 290.75 139.73 290.75 82.97 146.3 166.37 146.3 333.16 197.78 250.2 290.75 249.77 290.75 193.01 243.92 166.77"/><polygon class="cls-3" points="244.26 109.81 244.26 166.37 197.78 138.32 244.26 109.81"/><polygon class="cls-4" points="146.3 166.37 197.78 137.54 197.78 303.44 146.3 333.17 146.3 166.37"/><polygon class="cls-4" points="244.26 109.81 244.26 126.84 244.26 150.15 244.26 166.37 290.75 139.53 290.75 123.31 290.75 99.2 290.75 82.97 244.26 109.81"/><polygon class="cls-4" points="244.26 220.85 244.26 237.07 244.26 260.38 244.26 276.61 290.75 249.77 290.75 233.54 290.75 209.43 290.75 193.21 244.26 220.85"/><polygon class="cls-4" points="181.99 203.78 181.99 219.43 181.99 240.42 192.99 253.14 244.26 220.94 244.26 204.72 244.26 180.6 244.26 166.37 181.99 203.78"/><polygon class="cls-3" points="244.26 220.85 244.26 220.85 244.26 276.61 197.78 250.2 244.26 220.85"/><polygon class="cls-1" points="94.82 303.44 146.3 333.17 146.3 166.37 94.82 136.65 94.82 303.44"/><polygon class="cls-1" points="1.85 249.77 53.33 279.49 53.33 112.7 1.85 82.97 1.85 249.77"/><polygon class="cls-1" points="46.37 275.2 97.85 304.93 97.85 138.13 46.37 108.41 46.37 275.2"/><polygon class="cls-3" points="43.34 164.74 43.34 179.68 43.34 202.99 43.34 219.21 89.82 246.85 89.82 246.8 94.82 249.77 94.82 233.54 94.82 209.43 94.82 194.58 43.34 164.74"/><polygon class="cls-2" points="95.1 194.52 94.82 193.21 94.82 251.29 43.34 220.4 95.1 194.52"/><polygon class="cls-3" points="197.12 81.06 196.74 138.91 244.26 109.8 197.12 81.06"/><polygon class="cls-3" points="215.73 43.38 162.82 146.04 146.64 157.02 105.32 112.37 98.73 105.25 215.73 43.38"/><polygon class="cls-3" points="215.73 43.38 98.73 105.25 86.19 120.11 93.52 100.62 215.73 43.38"/><polygon class="cls-3" points="215.73 43.38 93.52 100.62 31.82 80.41 50.22 69.38 215.73 43.38"/><polygon class="cls-3" points="98.73 105.25 105.32 112.37 105.31 112.37 86.19 120.11 98.73 105.25"/><polyline class="cls-5" points="98.73 105.25 105.32 112.37 146.64 157.02"/><line class="cls-5" x1="162.82" y1="146.04" x2="146.64" y2="157.02"/><line class="cls-5" x1="215.73" y1="43.38" x2="162.82" y2="146.04"/><line class="cls-5" x1="50.22" y1="69.38" x2="215.73" y2="43.38"/><line class="cls-5" x1="31.82" y1="80.41" x2="50.22" y2="69.38"/><line class="cls-5" x1="93.52" y1="100.62" x2="31.82" y2="80.41"/><line class="cls-5" x1="86.19" y1="120.11" x2="93.52" y2="100.62"/><line class="cls-5" x1="98.73" y1="105.25" x2="86.19" y2="120.11"/><line class="cls-5" x1="105.3" y1="112.37" x2="86.19" y2="120.11"/><line class="cls-5" x1="98.73" y1="105.25" x2="215.73" y2="43.38"/><line class="cls-5" x1="93.52" y1="100.62" x2="215.73" y2="43.38"/><polygon class="cls-2" points="197.24 80.06 197 135.93 148.16 107.33 197.24 80.06"/><line class="cls-6" x1="197.78" y1="135.93" x2="197.78" y2="303.44"/><line class="cls-6" x1="43.34" y1="106.93" x2="187.7" y2="24.61"/><line class="cls-6" x1="94.82" y1="136.65" x2="241.79" y2="55.84"/><line class="cls-6" x1="198.41" y1="136.29" x2="53.33" y2="52.01"/><line class="cls-6" x1="244.8" y1="109.79" x2="106.37" y2="23.76"/><line class="cls-6" x1="43.34" y1="106.33" x2="43.34" y2="273.72"/><line class="cls-6" x1="94.82" y1="135.93" x2="94.82" y2="303.8"/><line class="cls-6" x1="146.3" y1="224.86" x2="1.85" y2="139.91"/><line class="cls-6" x1="146.3" y1="281.57" x2="1.85" y2="196.63"/><line class="cls-6" x1="244.8" y1="109.79" x2="244.27" y2="275.47"/><line class="cls-6" x1="244.27" y1="166.37" x2="146.3" y2="224.86"/><line class="cls-6" x1="244.27" y1="220.85" x2="146.3" y2="281.76"/><polygon class="cls-3" points="360.56 363.71 360.56 319.24 360.49 319.19 360.49 317.43 322.47 295.48 322.62 340.04 322.7 340.08 322.7 341.86 360.56 363.71"/><polygon class="cls-4" points="322.52 295.4 361.03 273.16 361.11 273.21 362.64 272.33 400.66 294.27 361.99 316.43 361.92 316.38 360.38 317.26 322.52 295.4"/><polygon class="cls-2" points="400.66 294.27 400.66 340.68 360.59 363.66 360.49 317.43 400.66 294.27"/><polygon class="cls-3" points="282.36 364.47 282.36 320 282.28 319.95 282.28 318.18 244.26 296.24 244.42 340.8 244.49 340.84 244.5 342.61 282.36 364.47"/><polygon class="cls-4" points="244.31 296.16 282.83 273.92 282.91 273.97 284.44 273.08 322.45 295.03 283.78 317.18 283.71 317.14 282.17 318.02 244.31 296.16"/><polygon class="cls-2" points="322.45 295.03 322.45 341.43 282.38 364.42 282.28 318.18 322.45 295.03"/><polygon class="cls-3" points="358.91 410.11 358.91 365.64 358.83 365.59 358.83 363.83 320.82 341.88 320.97 386.44 321.04 386.48 321.05 388.25 358.91 410.11"/><polygon class="cls-4" points="320.86 341.8 359.38 319.56 359.46 319.61 360.99 318.73 399 340.67 360.33 362.82 360.26 362.78 358.72 363.66 320.86 341.8"/><polygon class="cls-2" points="399 340.67 399 387.08 358.93 410.06 358.83 363.83 399 340.67"/><polygon class="cls-1" points="38.09 384.15 38.09 339.67 38.01 339.63 38.01 337.86 0 315.91 0.15 360.47 0.22 360.52 0.23 362.29 38.09 384.15"/><polygon class="cls-2" points="0.04 315.83 38.56 293.6 38.64 293.64 40.17 292.76 78.19 314.71 39.52 336.86 39.44 336.81 37.91 337.69 0.04 315.83"/><polygon class="cls-3" points="78.19 314.71 78.19 361.11 38.12 384.09 38.01 337.86 78.19 314.71"/><polygon class="cls-3" points="399 366.11 399 387.08 358.8 409.66 399 366.11"/><line class="cls-7" x1="290.75" y1="82.97" x2="290.75" y2="140.4"/><line class="cls-7" x1="146.3" y1="166.37" x2="146.3" y2="333.16"/><line class="cls-7" x1="146.3" y1="166.37" x2="197.24" y2="136.96"/><line class="cls-7" x1="197.22" y1="195.12" x2="197.77" y2="135.93"/><line class="cls-7" x1="243.92" y1="166.77" x2="197.78" y2="194.12"/><line class="cls-7" x1="243.92" y1="108.75" x2="243.92" y2="166.77"/><line class="cls-7" x1="290.18" y1="84.07" x2="243.29" y2="109.87"/><line class="cls-7" x1="243.92" y1="166.77" x2="291.38" y2="139.31"/><line class="cls-7" x1="145.62" y1="333.56" x2="198.24" y2="303.18"/><line class="cls-7" x1="197.78" y1="250.2" x2="197.78" y2="304.3"/><line class="cls-7" x1="244.27" y1="220.85" x2="197.16" y2="251.18"/><line class="cls-7" x1="244.27" y1="277.25" x2="244.27" y2="220.85"/><line class="cls-7" x1="291.39" y1="249.15" x2="244.85" y2="276.09"/><line class="cls-7" x1="290.75" y1="193.21" x2="290.75" y2="250.24"/><line class="cls-7" x1="244.27" y1="220.85" x2="290.3" y2="194.29"/><line class="cls-7" x1="243.92" y1="166.77" x2="244.27" y2="220.85"/><line class="cls-7" x1="1.09" y1="82.54" x2="146.3" y2="166.37"/><line class="cls-7" x1="1.85" y1="249.77" x2="1.85" y2="83.69"/><line class="cls-7" x1="146.72" y1="333.41" x2="1.26" y2="248.74"/><polygon class="cls-7" points="93.33 249.65 44.83 220.53 44.83 167.06 93.33 195.49 93.33 249.65"/></g></g></svg>