<svg xmlns="http://www.w3.org/2000/svg" xmlns:xlink="http://www.w3.org/1999/xlink" width="1280" zoomAndPan="magnify" viewBox="0 0 960 540.000001" height="720" preserveAspectRatio="xMidYMid meet" version="1.0"><defs><clipPath id="ee2625bb74"><path d="M 141 238 L 263.585938 238 L 263.585938 362 L 141 362 Z M 141 238 " clip-rule="nonzero"/></clipPath><clipPath id="3ef91dc7e8"><path d="M 20.285156 348 L 263.585938 348 L 263.585938 373.332031 L 20.285156 373.332031 Z M 20.285156 348 " clip-rule="nonzero"/></clipPath><clipPath id="882d6554eb"><path d="M 141 225.855469 L 252 225.855469 L 252 349 L 141 349 Z M 141 225.855469 " clip-rule="nonzero"/></clipPath><clipPath id="c6992f8984"><path d="M 32 225.855469 L 142 225.855469 L 142 349 L 32 349 Z M 32 225.855469 " clip-rule="nonzero"/></clipPath><clipPath id="95108bcf10"><path d="M 20.285156 238 L 142 238 L 142 362 L 20.285156 362 Z M 20.285156 238 " clip-rule="nonzero"/></clipPath><clipPath id="be10f66b44"><path d="M 372.109375 231.414062 L 599.6875 231.414062 L 599.6875 372.902344 L 372.109375 372.902344 Z M 372.109375 231.414062 " clip-rule="nonzero"/></clipPath><clipPath id="f122e0cc26"><path d="M 372.109375 350 L 599.6875 350 L 599.6875 372.902344 L 372.109375 372.902344 Z M 372.109375 350 " clip-rule="nonzero"/></clipPath><clipPath id="953d8fad9f"><path d="M 372.109375 246 L 486 246 L 486 366 L 372.109375 366 Z M 372.109375 246 " clip-rule="nonzero"/></clipPath><clipPath id="9502a35039"><path d="M 485 246 L 599.6875 246 L 599.6875 366 L 485 366 Z M 485 246 " clip-rule="nonzero"/></clipPath><clipPath id="d9d5b5e8dc"><path d="M 485 231.414062 L 585 231.414062 L 585 344 L 485 344 Z M 485 231.414062 " clip-rule="nonzero"/></clipPath><clipPath id="69e98b38b7"><path d="M 387 231.414062 L 486 231.414062 L 486 344 L 387 344 Z M 387 231.414062 " clip-rule="nonzero"/></clipPath><clipPath id="1bc193bbf2"><path d="M 704.347656 218.707031 L 939.410156 218.707031 L 939.410156 369.925781 L 704.347656 369.925781 Z M 704.347656 218.707031 " clip-rule="nonzero"/></clipPath></defs><g clip-path="url(#ee2625bb74)"><path fill="#b9b085" d="M 154.09375 361.035156 L 166.253906 361.035156 L 166.253906 348.742188 L 263.585938 348.742188 L 263.585938 238.148438 L 251.425781 238.148438 L 251.425781 336.445312 L 154.09375 336.445312 L 154.09375 348.742188 L 141.933594 348.742188 L 141.933594 361.035156 Z M 154.09375 361.035156 " fill-opacity="1" fill-rule="evenodd"/></g><g clip-path="url(#3ef91dc7e8)"><path fill="#a97539" d="M 105.429688 361.035156 L 117.589844 361.035156 L 117.589844 373.328125 C 133.820312 373.328125 150.023438 373.328125 166.253906 373.328125 L 166.253906 361.035156 L 263.585938 361.035156 L 263.585938 348.742188 C 231.152344 348.742188 198.714844 348.742188 166.253906 348.742188 L 166.253906 361.035156 L 117.617188 361.035156 L 117.617188 348.742188 L 20.285156 348.742188 L 20.285156 361.035156 Z M 105.429688 361.035156 " fill-opacity="1" fill-rule="evenodd"/></g><g clip-path="url(#882d6554eb)"><path fill="#ded2a0" d="M 141.933594 348.742188 L 154.09375 348.742188 L 154.09375 336.445312 L 251.425781 336.445312 L 251.425781 225.855469 L 154.09375 225.855469 L 154.09375 238.148438 L 141.933594 238.148438 Z M 141.933594 348.742188 " fill-opacity="1" fill-rule="evenodd"/></g><g clip-path="url(#c6992f8984)"><path fill="#f4e8b3" d="M 129.777344 348.742188 L 141.933594 348.742188 L 141.933594 238.148438 L 129.777344 238.148438 L 129.777344 225.855469 L 32.445312 225.855469 L 32.445312 336.445312 C 64.878906 336.445312 97.3125 336.445312 129.777344 336.445312 Z M 129.777344 348.742188 " fill-opacity="1" fill-rule="evenodd"/></g><g clip-path="url(#95108bcf10)"><path fill="#ded2a0" d="M 32.445312 348.742188 L 117.617188 348.742188 L 117.617188 361.035156 L 141.933594 361.035156 L 141.933594 348.742188 L 129.777344 348.742188 L 129.777344 336.445312 L 32.445312 336.445312 L 32.445312 238.148438 L 20.285156 238.148438 L 20.285156 348.742188 Z M 32.445312 348.742188 " fill-opacity="1" fill-rule="evenodd"/></g><path fill="#808080" d="M 44.605469 250.414062 L 117.589844 250.414062 L 117.589844 238.121094 C 93.269531 238.121094 68.921875 238.121094 44.605469 238.121094 Z M 227.078125 324.152344 L 239.238281 324.152344 L 239.238281 311.859375 C 214.917969 311.859375 190.574219 311.859375 166.253906 311.859375 L 166.253906 324.152344 Z M 105.429688 324.152344 L 117.589844 324.152344 L 117.589844 311.859375 C 93.269531 311.859375 68.921875 311.859375 44.605469 311.859375 L 44.605469 324.152344 Z M 227.078125 299.59375 L 239.238281 299.59375 L 239.238281 287.296875 L 166.253906 287.296875 L 166.253906 299.59375 Z M 105.429688 299.59375 L 117.589844 299.59375 L 117.589844 287.296875 C 93.269531 287.296875 68.921875 287.296875 44.605469 287.296875 L 44.605469 299.59375 Z M 227.078125 275.003906 L 239.238281 275.003906 L 239.238281 262.710938 L 166.253906 262.710938 L 166.253906 275.003906 Z M 105.429688 275.003906 L 117.589844 275.003906 L 117.589844 262.710938 C 93.269531 262.710938 68.921875 262.710938 44.605469 262.710938 L 44.605469 275.003906 Z M 227.078125 250.414062 L 239.238281 250.414062 L 239.238281 238.121094 L 166.253906 238.121094 L 166.253906 250.414062 Z M 227.078125 250.414062 " fill-opacity="1" fill-rule="evenodd"/><g clip-path="url(#be10f66b44)"><path fill="#ded2a0" d="M 493.511719 372.851562 L 501.101562 372.851562 L 501.101562 365.398438 L 508.667969 365.398438 L 508.667969 357.945312 L 599.6875 357.945312 L 599.6875 246.34375 L 592.097656 246.34375 L 592.097656 238.890625 L 584.511719 238.890625 L 584.511719 231.4375 C 556.691406 231.4375 528.898438 231.4375 501.078125 231.4375 L 501.078125 238.890625 L 493.488281 238.890625 L 493.488281 246.34375 L 478.308594 246.34375 L 478.308594 238.890625 L 470.722656 238.890625 L 470.722656 231.4375 C 442.902344 231.4375 415.109375 231.4375 387.289062 231.4375 L 387.289062 238.890625 L 379.699219 238.890625 L 379.699219 246.34375 L 372.109375 246.34375 L 372.109375 357.96875 C 402.441406 357.96875 432.773438 357.96875 463.132812 357.96875 L 463.132812 365.421875 L 470.722656 365.421875 L 470.722656 372.875 L 493.511719 372.875 Z M 493.511719 372.851562 " fill-opacity="1" fill-rule="evenodd"/></g><g clip-path="url(#f122e0cc26)"><path fill="#990000" d="M 493.511719 372.851562 L 501.101562 372.851562 L 501.101562 365.398438 L 508.667969 365.398438 L 508.667969 357.945312 L 599.6875 357.945312 L 599.6875 350.492188 C 566.820312 350.492188 533.949219 350.492188 501.101562 350.492188 L 501.101562 357.945312 L 493.511719 357.945312 L 493.511719 365.398438 C 488.460938 365.398438 483.410156 365.398438 478.335938 365.398438 L 478.335938 357.945312 L 470.746094 357.945312 L 470.746094 350.492188 C 437.875 350.492188 405.003906 350.492188 372.160156 350.492188 L 372.160156 357.945312 C 402.492188 357.945312 432.824219 357.945312 463.179688 357.945312 L 463.179688 365.398438 L 470.769531 365.398438 L 470.769531 372.851562 Z M 493.511719 372.851562 " fill-opacity="1" fill-rule="evenodd"/></g><g clip-path="url(#953d8fad9f)"><path fill="#b9b085" d="M 470.746094 357.96875 L 478.335938 357.96875 L 478.335938 365.421875 L 485.921875 365.421875 L 485.921875 357.96875 L 478.335938 357.96875 L 478.335938 350.515625 L 470.746094 350.515625 L 470.746094 343.0625 C 440.414062 343.0625 410.082031 343.0625 379.722656 343.0625 L 379.722656 246.34375 L 372.132812 246.34375 L 372.132812 350.515625 L 470.722656 350.515625 L 470.722656 357.96875 Z M 470.746094 357.96875 " fill-opacity="1" fill-rule="evenodd"/></g><g clip-path="url(#9502a35039)"><path fill="#a39977" d="M 592.097656 350.542969 L 599.6875 350.542969 L 599.6875 246.34375 L 592.097656 246.34375 L 592.097656 343.089844 L 501.101562 343.089844 L 501.101562 350.542969 L 493.511719 350.542969 L 493.511719 357.96875 L 485.921875 357.96875 L 485.921875 365.421875 L 493.511719 365.421875 L 493.511719 357.96875 L 501.101562 357.96875 L 501.101562 350.542969 Z M 592.097656 350.542969 " fill-opacity="1" fill-rule="evenodd"/></g><path fill="#c9bc8e" d="M 584.511719 343.089844 L 592.097656 343.089844 L 592.097656 238.914062 L 584.511719 238.914062 L 584.511719 335.660156 L 493.511719 335.660156 L 493.511719 343.089844 L 485.921875 343.089844 L 485.921875 357.96875 L 493.511719 357.96875 L 493.511719 350.542969 L 501.101562 350.542969 L 501.101562 343.089844 Z M 584.511719 343.089844 " fill-opacity="1" fill-rule="evenodd"/><path fill="#ded2a0" d="M 379.75 343.089844 L 470.746094 343.089844 L 470.746094 350.542969 L 478.335938 350.542969 L 478.335938 357.96875 L 485.921875 357.96875 L 485.921875 343.089844 L 478.335938 343.089844 L 478.335938 335.660156 L 387.335938 335.660156 L 387.335938 238.914062 L 379.75 238.914062 Z M 379.75 343.089844 " fill-opacity="1" fill-rule="evenodd"/><g clip-path="url(#d9d5b5e8dc)"><path fill="#ded2a0" d="M 584.511719 238.914062 L 584.511719 231.460938 C 556.691406 231.460938 528.898438 231.460938 501.078125 231.460938 L 501.078125 238.914062 L 493.488281 238.914062 L 493.488281 246.34375 L 485.898438 246.34375 L 485.898438 343.089844 L 493.488281 343.089844 L 493.488281 335.636719 L 584.511719 335.636719 Z M 584.511719 238.914062 " fill-opacity="1" fill-rule="evenodd"/></g><g clip-path="url(#69e98b38b7)"><path fill="#f4e8b3" d="M 470.746094 238.914062 L 470.746094 231.460938 C 442.925781 231.460938 415.132812 231.460938 387.3125 231.460938 L 387.3125 335.636719 L 478.335938 335.636719 L 478.335938 343.089844 L 485.921875 343.089844 L 485.921875 246.34375 L 478.335938 246.34375 L 478.335938 238.890625 L 470.746094 238.890625 Z M 470.746094 238.914062 " fill-opacity="1" fill-rule="evenodd"/></g><path fill="#7c7659" d="M 455.589844 320.777344 L 463.179688 320.777344 L 463.179688 313.324219 L 402.492188 313.324219 L 402.492188 320.777344 Z M 402.492188 253.796875 C 422.722656 253.796875 442.949219 253.796875 463.15625 253.796875 L 463.15625 246.34375 L 402.492188 246.34375 Z M 402.492188 276.109375 L 463.15625 276.109375 L 463.15625 268.65625 L 402.492188 268.65625 Z M 402.492188 298.441406 C 422.722656 298.441406 442.949219 298.441406 463.15625 298.441406 L 463.15625 290.988281 C 442.925781 290.988281 422.695312 290.988281 402.492188 290.988281 Z M 402.492188 298.441406 " fill-opacity="1" fill-rule="evenodd"/><path fill="#7c7659" d="M 561.765625 320.777344 L 569.355469 320.777344 L 569.355469 313.324219 C 549.125 313.324219 528.898438 313.324219 508.691406 313.324219 L 508.691406 320.777344 Z M 508.667969 253.796875 C 528.898438 253.796875 549.125 253.796875 569.332031 253.796875 L 569.332031 246.34375 L 508.667969 246.34375 Z M 508.667969 276.109375 L 569.332031 276.109375 L 569.332031 268.65625 L 508.667969 268.65625 Z M 508.667969 298.441406 L 569.332031 298.441406 L 569.332031 290.988281 L 508.667969 290.988281 Z M 508.667969 298.441406 " fill-opacity="1" fill-rule="evenodd"/><g clip-path="url(#1bc193bbf2)"><path fill="#000000" d="M 928.6875 240.324219 L 928.6875 229.523438 L 917.996094 229.523438 L 917.996094 218.71875 L 832.546875 218.71875 L 832.546875 229.523438 L 811.15625 229.523438 L 811.15625 218.71875 L 725.734375 218.71875 L 725.734375 229.523438 L 715.039062 229.523438 L 715.039062 240.324219 L 704.347656 240.324219 L 704.347656 348.308594 L 715.039062 348.308594 L 715.039062 359.109375 L 800.515625 359.109375 L 800.515625 369.914062 C 814.765625 369.914062 828.988281 369.914062 843.242188 369.914062 L 843.242188 359.109375 L 928.714844 359.109375 L 928.714844 348.308594 L 939.410156 348.308594 L 939.410156 240.324219 Z M 928.6875 240.324219 " fill-opacity="1" fill-rule="evenodd"/></g><path fill="#ded2a0" d="M 928.6875 337.503906 L 928.6875 240.324219 L 917.996094 240.324219 L 917.996094 229.523438 L 832.546875 229.523438 L 832.546875 240.324219 L 811.183594 240.324219 L 811.183594 229.523438 L 725.734375 229.523438 L 725.734375 240.324219 L 715.039062 240.324219 L 715.039062 348.308594 L 800.488281 348.308594 L 800.488281 359.109375 C 814.738281 359.109375 828.964844 359.109375 843.214844 359.109375 L 843.214844 348.308594 L 928.660156 348.308594 L 928.660156 337.503906 Z M 928.6875 337.503906 " fill-opacity="1" fill-rule="evenodd"/><path fill="#b9b085" d="M 832.546875 348.308594 L 843.242188 348.308594 L 843.242188 337.503906 L 928.6875 337.503906 L 928.6875 240.324219 L 918.019531 240.324219 L 918.019531 326.699219 L 832.546875 326.699219 L 832.546875 337.503906 L 821.878906 337.503906 L 821.878906 348.308594 Z M 832.546875 348.308594 " fill-opacity="1" fill-rule="evenodd"/><path fill="#996633" d="M 789.820312 348.308594 L 800.515625 348.308594 L 800.515625 359.109375 C 814.765625 359.109375 828.988281 359.109375 843.242188 359.109375 L 843.242188 348.308594 L 928.6875 348.308594 L 928.6875 337.503906 C 900.214844 337.503906 871.714844 337.503906 843.242188 337.503906 L 843.242188 348.308594 L 800.515625 348.308594 L 800.515625 337.503906 L 715.066406 337.503906 L 715.066406 348.308594 Z M 789.820312 348.308594 " fill-opacity="1" fill-rule="evenodd"/><path fill="#ded2a0" d="M 821.878906 337.503906 L 832.546875 337.503906 L 832.546875 326.699219 L 918.019531 326.699219 L 918.019531 229.523438 L 832.546875 229.523438 L 832.546875 240.324219 L 821.878906 240.324219 Z M 821.878906 337.503906 " fill-opacity="1" fill-rule="evenodd"/><path fill="#f4e8b3" d="M 811.183594 337.503906 L 821.878906 337.503906 L 821.878906 240.324219 L 811.183594 240.324219 L 811.183594 229.523438 L 725.734375 229.523438 L 725.734375 326.699219 C 754.207031 326.699219 782.710938 326.699219 811.183594 326.699219 Z M 811.183594 337.503906 " fill-opacity="1" fill-rule="evenodd"/><path fill="#ded2a0" d="M 725.734375 337.503906 L 800.515625 337.503906 L 800.515625 348.308594 L 821.878906 348.308594 L 821.878906 337.503906 L 811.183594 337.503906 L 811.183594 326.699219 L 725.734375 326.699219 L 725.734375 240.324219 L 715.066406 240.324219 L 715.066406 337.503906 Z M 725.734375 337.503906 " fill-opacity="1" fill-rule="evenodd"/><path fill="#808080" d="M 736.429688 251.101562 L 800.515625 251.101562 L 800.515625 240.300781 C 779.152344 240.300781 757.792969 240.300781 736.429688 240.300781 Z M 896.660156 315.898438 L 907.328125 315.898438 L 907.328125 305.09375 C 885.964844 305.09375 864.601562 305.09375 843.242188 305.09375 L 843.242188 315.898438 Z M 789.820312 315.898438 L 800.515625 315.898438 L 800.515625 305.09375 C 779.152344 305.09375 757.792969 305.09375 736.429688 305.09375 L 736.429688 315.898438 Z M 896.660156 294.316406 L 907.328125 294.316406 L 907.328125 283.511719 L 843.242188 283.511719 L 843.242188 294.316406 Z M 789.820312 294.316406 L 800.515625 294.316406 L 800.515625 283.511719 C 779.152344 283.511719 757.792969 283.511719 736.429688 283.511719 L 736.429688 294.316406 Z M 896.660156 272.710938 L 907.328125 272.710938 L 907.328125 261.90625 L 843.242188 261.90625 L 843.242188 272.710938 Z M 789.820312 272.710938 L 800.515625 272.710938 L 800.515625 261.90625 C 779.152344 261.90625 757.792969 261.90625 736.429688 261.90625 L 736.429688 272.710938 Z M 896.660156 251.101562 L 907.328125 251.101562 L 907.328125 240.300781 L 843.242188 240.300781 L 843.242188 251.101562 Z M 896.660156 251.101562 " fill-opacity="1" fill-rule="evenodd"/></svg>