<svg xmlns="http://www.w3.org/2000/svg" xmlns:xlink="http://www.w3.org/1999/xlink" width="1280" zoomAndPan="magnify" viewBox="0 0 960 540.000001" height="720" preserveAspectRatio="xMidYMid meet" version="1.0"><defs><clipPath id="c9ee1ec469"><path d="M 422.699219 255 L 496.808594 255 L 496.808594 335.636719 L 422.699219 335.636719 Z M 422.699219 255 " clip-rule="nonzero"/></clipPath><clipPath id="f63a273dc9"><path d="M 422.699219 233.078125 L 496.808594 233.078125 L 496.808594 262 L 422.699219 262 Z M 422.699219 233.078125 " clip-rule="nonzero"/></clipPath></defs><path fill="#ffffff" d="M 479.722656 250.171875 L 434.136719 250.171875 L 434.136719 261.613281 L 439.796875 261.613281 L 439.796875 273 L 445.519531 273 L 445.519531 278.660156 L 451.179688 278.660156 L 451.179688 290.042969 L 445.519531 290.042969 L 445.519531 295.761719 L 439.796875 295.761719 L 439.796875 307.148438 L 434.136719 307.148438 L 434.136719 318.53125 L 439.796875 318.53125 L 439.796875 312.808594 L 445.519531 312.808594 L 445.519531 301.429688 L 451.179688 301.429688 L 451.179688 295.761719 L 456.898438 295.761719 L 456.898438 273 L 451.179688 273 L 451.179688 267.277344 L 445.519531 267.277344 L 445.519531 261.613281 L 451.179688 261.613281 L 451.179688 255.894531 L 468.28125 255.894531 L 468.28125 261.613281 L 474 261.613281 L 474 267.277344 L 468.28125 267.277344 L 468.28125 273 L 462.621094 273 L 462.621094 295.761719 L 468.28125 295.761719 L 468.28125 301.429688 L 474 301.429688 L 474 312.808594 L 479.722656 312.808594 L 479.722656 318.53125 L 485.382812 318.53125 L 485.382812 307.148438 L 479.722656 307.148438 L 479.722656 295.761719 L 474 295.761719 L 474 290.042969 L 468.28125 290.042969 L 468.28125 278.660156 L 474 278.660156 L 474 273 L 479.722656 273 L 479.722656 261.613281 L 485.382812 261.613281 L 485.382812 250.171875 Z M 479.722656 250.171875 " fill-opacity="1" fill-rule="nonzero"/><g clip-path="url(#c9ee1ec469)"><path fill="#0e0e11" d="M 491.101562 318.53125 L 491.101562 307.148438 L 485.382812 307.148438 L 485.382812 318.53125 L 479.722656 318.53125 L 479.722656 312.808594 L 474 312.808594 L 474 301.429688 L 468.28125 301.429688 L 468.28125 295.761719 L 462.621094 295.761719 L 462.621094 273 L 468.28125 273 L 468.28125 267.277344 L 474 267.277344 L 474 261.613281 L 468.28125 261.613281 L 468.28125 255.894531 L 451.179688 255.894531 L 451.179688 261.613281 L 445.519531 261.613281 L 445.519531 267.277344 L 451.179688 267.277344 L 451.179688 273 L 456.898438 273 L 456.898438 295.761719 L 451.179688 295.761719 L 451.179688 301.429688 L 445.519531 301.429688 L 445.519531 312.808594 L 439.796875 312.808594 L 439.796875 318.53125 L 434.136719 318.53125 L 434.136719 307.148438 L 428.417969 307.148438 L 428.417969 318.53125 L 422.699219 318.53125 L 422.699219 335.574219 L 496.820312 335.574219 L 496.820312 318.53125 Z M 491.101562 318.53125 " fill-opacity="1" fill-rule="nonzero"/></g><path fill="#0e0e11" d="M 479.722656 307.148438 L 485.382812 307.148438 L 485.382812 295.761719 L 479.722656 295.761719 Z M 479.722656 307.148438 " fill-opacity="1" fill-rule="nonzero"/><path fill="#0e0e11" d="M 479.722656 267.277344 L 479.722656 273 L 485.382812 273 L 485.382812 261.613281 L 479.722656 261.613281 Z M 479.722656 267.277344 " fill-opacity="1" fill-rule="nonzero"/><path fill="#0e0e11" d="M 474 290.042969 L 479.722656 290.042969 L 479.722656 295.761719 L 474 295.761719 Z M 474 290.042969 " fill-opacity="1" fill-rule="nonzero"/><path fill="#0e0e11" d="M 474 273 L 479.722656 273 L 479.722656 278.660156 L 474 278.660156 Z M 474 273 " fill-opacity="1" fill-rule="nonzero"/><path fill="#0e0e11" d="M 468.28125 284.378906 L 468.28125 290.042969 L 474 290.042969 L 474 278.660156 L 468.28125 278.660156 Z M 468.28125 284.378906 " fill-opacity="1" fill-rule="nonzero"/><path fill="#0e0e11" d="M 451.179688 284.378906 L 451.179688 278.660156 L 445.519531 278.660156 L 445.519531 290.042969 L 451.179688 290.042969 Z M 451.179688 284.378906 " fill-opacity="1" fill-rule="nonzero"/><path fill="#0e0e11" d="M 439.796875 290.042969 L 445.519531 290.042969 L 445.519531 295.761719 L 439.796875 295.761719 Z M 439.796875 290.042969 " fill-opacity="1" fill-rule="nonzero"/><path fill="#0e0e11" d="M 439.796875 273 L 445.519531 273 L 445.519531 278.660156 L 439.796875 278.660156 Z M 439.796875 273 " fill-opacity="1" fill-rule="nonzero"/><path fill="#0e0e11" d="M 439.796875 301.429688 L 439.796875 295.761719 L 434.136719 295.761719 L 434.136719 307.148438 L 439.796875 307.148438 Z M 439.796875 301.429688 " fill-opacity="1" fill-rule="nonzero"/><path fill="#0e0e11" d="M 439.796875 261.613281 L 434.136719 261.613281 L 434.136719 273 L 439.796875 273 Z M 439.796875 261.613281 " fill-opacity="1" fill-rule="nonzero"/><g clip-path="url(#f63a273dc9)"><path fill="#0e0e11" d="M 434.136719 250.171875 L 485.382812 250.171875 L 485.382812 261.613281 L 491.101562 261.613281 L 491.101562 250.171875 L 496.820312 250.171875 L 496.820312 233.128906 L 422.699219 233.128906 L 422.699219 250.171875 L 428.417969 250.171875 L 428.417969 261.613281 L 434.136719 261.613281 Z M 434.136719 250.171875 " fill-opacity="1" fill-rule="nonzero"/></g></svg>