<svg xmlns="http://www.w3.org/2000/svg" xmlns:xlink="http://www.w3.org/1999/xlink" width="1280" zoomAndPan="magnify" viewBox="0 0 960 540.000001" height="720" preserveAspectRatio="xMidYMid meet" version="1.0"><defs><clipPath id="4b6332776c"><path d="M 368.609375 189.5 L 591.695312 189.5 L 591.695312 412.589844 L 368.609375 412.589844 Z M 368.609375 189.5 " clip-rule="nonzero"/></clipPath></defs><g clip-path="url(#4b6332776c)"><path fill="#1a4789" d="M 591.707031 301.046875 C 591.707031 302.871094 591.664062 304.695312 591.574219 306.519531 C 591.484375 308.34375 591.347656 310.164062 591.171875 311.980469 C 590.992188 313.796875 590.769531 315.609375 590.5 317.414062 C 590.230469 319.21875 589.921875 321.019531 589.5625 322.808594 C 589.207031 324.597656 588.808594 326.378906 588.363281 328.148438 C 587.921875 329.921875 587.433594 331.679688 586.90625 333.425781 C 586.375 335.171875 585.800781 336.90625 585.1875 338.625 C 584.570312 340.34375 583.914062 342.046875 583.214844 343.734375 C 582.519531 345.421875 581.777344 347.089844 580.996094 348.738281 C 580.21875 350.390625 579.398438 352.019531 578.535156 353.628906 C 577.675781 355.238281 576.777344 356.828125 575.835938 358.390625 C 574.898438 359.957031 573.921875 361.5 572.910156 363.019531 C 571.894531 364.535156 570.84375 366.027344 569.757812 367.496094 C 568.667969 368.960938 567.546875 370.398438 566.386719 371.808594 C 565.230469 373.222656 564.039062 374.601562 562.8125 375.957031 C 561.585938 377.308594 560.328125 378.628906 559.035156 379.921875 C 557.746094 381.210938 556.425781 382.46875 555.070312 383.695312 C 553.71875 384.921875 552.335938 386.113281 550.925781 387.273438 C 549.515625 388.429688 548.078125 389.554688 546.609375 390.640625 C 545.144531 391.726562 543.652344 392.777344 542.132812 393.792969 C 540.617188 394.808594 539.074219 395.785156 537.507812 396.722656 C 535.941406 397.660156 534.355469 398.558594 532.746094 399.421875 C 531.132812 400.28125 529.503906 401.101562 527.855469 401.882812 C 526.203125 402.664062 524.535156 403.402344 522.847656 404.101562 C 521.164062 404.800781 519.460938 405.457031 517.742188 406.070312 C 516.023438 406.6875 514.289062 407.257812 512.542969 407.789062 C 510.796875 408.320312 509.035156 408.804688 507.265625 409.25 C 505.496094 409.691406 503.714844 410.09375 501.925781 410.449219 C 500.132812 410.804688 498.335938 411.117188 496.53125 411.382812 C 494.722656 411.652344 492.914062 411.875 491.097656 412.054688 C 489.28125 412.234375 487.460938 412.367188 485.636719 412.457031 C 483.8125 412.546875 481.988281 412.589844 480.164062 412.589844 C 478.335938 412.589844 476.511719 412.546875 474.691406 412.457031 C 472.867188 412.367188 471.046875 412.234375 469.230469 412.054688 C 467.414062 411.875 465.601562 411.652344 463.796875 411.382812 C 461.992188 411.117188 460.191406 410.804688 458.402344 410.449219 C 456.613281 410.09375 454.832031 409.691406 453.058594 409.25 C 451.289062 408.804688 449.53125 408.320312 447.785156 407.789062 C 446.035156 407.257812 444.304688 406.6875 442.585938 406.070312 C 440.867188 405.457031 439.164062 404.800781 437.476562 404.101562 C 435.789062 403.402344 434.121094 402.664062 432.472656 401.882812 C 430.820312 401.101562 429.191406 400.28125 427.582031 399.421875 C 425.972656 398.558594 424.382812 397.660156 422.816406 396.722656 C 421.253906 395.785156 419.710938 394.808594 418.191406 393.792969 C 416.675781 392.777344 415.183594 391.726562 413.714844 390.640625 C 412.25 389.554688 410.8125 388.429688 409.398438 387.273438 C 407.988281 386.113281 406.605469 384.921875 405.253906 383.695312 C 403.902344 382.46875 402.582031 381.210938 401.289062 379.921875 C 400 378.628906 398.738281 377.308594 397.515625 375.957031 C 396.289062 374.601562 395.097656 373.222656 393.9375 371.808594 C 392.78125 370.398438 391.65625 368.960938 390.570312 367.492188 C 389.480469 366.027344 388.429688 364.535156 387.417969 363.019531 C 386.402344 361.5 385.425781 359.957031 384.488281 358.390625 C 383.550781 356.828125 382.648438 355.238281 381.789062 353.628906 C 380.929688 352.019531 380.109375 350.390625 379.328125 348.738281 C 378.546875 347.089844 377.808594 345.421875 377.109375 343.734375 C 376.410156 342.046875 375.753906 340.34375 375.140625 338.625 C 374.523438 336.90625 373.953125 335.171875 373.421875 333.425781 C 372.890625 331.679688 372.40625 329.921875 371.960938 328.148438 C 371.519531 326.378906 371.117188 324.597656 370.761719 322.808594 C 370.40625 321.019531 370.09375 319.21875 369.824219 317.414062 C 369.558594 315.609375 369.335938 313.796875 369.15625 311.980469 C 368.976562 310.164062 368.84375 308.34375 368.753906 306.519531 C 368.664062 304.695312 368.617188 302.871094 368.617188 301.046875 C 368.617188 299.222656 368.664062 297.398438 368.753906 295.574219 C 368.84375 293.75 368.976562 291.929688 369.15625 290.113281 C 369.335938 288.296875 369.558594 286.484375 369.824219 284.679688 C 370.09375 282.875 370.40625 281.078125 370.761719 279.285156 C 371.117188 277.496094 371.519531 275.714844 371.960938 273.945312 C 372.40625 272.171875 372.890625 270.414062 373.421875 268.667969 C 373.953125 266.921875 374.523438 265.1875 375.140625 263.46875 C 375.753906 261.75 376.410156 260.046875 377.109375 258.359375 C 377.808594 256.675781 378.546875 255.007812 379.328125 253.355469 C 380.109375 251.707031 380.929688 250.074219 381.789062 248.464844 C 382.648438 246.855469 383.550781 245.269531 384.488281 243.703125 C 385.425781 242.136719 386.402344 240.59375 387.417969 239.078125 C 388.429688 237.558594 389.480469 236.066406 390.570312 234.601562 C 391.65625 233.132812 392.78125 231.695312 393.9375 230.285156 C 395.097656 228.875 396.289062 227.492188 397.515625 226.136719 C 398.738281 224.785156 400 223.464844 401.289062 222.171875 C 402.582031 220.882812 403.902344 219.625 405.253906 218.398438 C 406.605469 217.171875 407.988281 215.980469 409.398438 214.824219 C 410.8125 213.664062 412.25 212.542969 413.714844 211.453125 C 415.183594 210.367188 416.675781 209.316406 418.191406 208.300781 C 419.710938 207.289062 421.253906 206.3125 422.816406 205.371094 C 424.382812 204.433594 425.972656 203.535156 427.582031 202.675781 C 429.191406 201.8125 430.820312 200.992188 432.472656 200.210938 C 434.121094 199.433594 435.789062 198.691406 437.476562 197.992188 C 439.164062 197.296875 440.867188 196.636719 442.585938 196.023438 C 444.304688 195.410156 446.035156 194.835938 447.785156 194.304688 C 449.53125 193.777344 451.289062 193.289062 453.058594 192.847656 C 454.832031 192.402344 456.613281 192.003906 458.402344 191.644531 C 460.191406 191.289062 461.992188 190.976562 463.796875 190.710938 C 465.601562 190.441406 467.414062 190.21875 469.230469 190.039062 C 471.046875 189.859375 472.867188 189.726562 474.691406 189.636719 C 476.511719 189.546875 478.335938 189.503906 480.164062 189.503906 C 481.988281 189.503906 483.8125 189.546875 485.636719 189.636719 C 487.460938 189.726562 489.28125 189.859375 491.097656 190.039062 C 492.914062 190.21875 494.722656 190.441406 496.53125 190.710938 C 498.335938 190.976562 500.132812 191.289062 501.925781 191.644531 C 503.714844 192.003906 505.496094 192.402344 507.265625 192.847656 C 509.035156 193.289062 510.796875 193.777344 512.542969 194.304688 C 514.289062 194.835938 516.023438 195.410156 517.742188 196.023438 C 519.460938 196.636719 521.164062 197.296875 522.847656 197.992188 C 524.535156 198.691406 526.203125 199.433594 527.855469 200.210938 C 529.503906 200.992188 531.132812 201.8125 532.746094 202.675781 C 534.355469 203.535156 535.941406 204.433594 537.507812 205.371094 C 539.074219 206.3125 540.617188 207.289062 542.132812 208.300781 C 543.652344 209.316406 545.144531 210.367188 546.609375 211.453125 C 548.078125 212.542969 549.515625 213.664062 550.925781 214.824219 C 552.335938 215.980469 553.71875 217.171875 555.070312 218.398438 C 556.425781 219.625 557.746094 220.882812 559.035156 222.171875 C 560.328125 223.464844 561.585938 224.785156 562.8125 226.136719 C 564.039062 227.492188 565.230469 228.875 566.386719 230.285156 C 567.546875 231.695312 568.667969 233.132812 569.757812 234.601562 C 570.84375 236.066406 571.894531 237.558594 572.910156 239.078125 C 573.921875 240.59375 574.898438 242.136719 575.835938 243.703125 C 576.777344 245.269531 577.675781 246.855469 578.535156 248.464844 C 579.398438 250.074219 580.21875 251.707031 580.996094 253.355469 C 581.777344 255.007812 582.519531 256.675781 583.214844 258.359375 C 583.914062 260.046875 584.570312 261.75 585.1875 263.46875 C 585.800781 265.1875 586.375 266.921875 586.90625 268.667969 C 587.433594 270.414062 587.921875 272.171875 588.363281 273.945312 C 588.808594 275.714844 589.207031 277.496094 589.5625 279.285156 C 589.921875 281.078125 590.230469 282.875 590.5 284.679688 C 590.769531 286.484375 590.992188 288.296875 591.171875 290.113281 C 591.347656 291.929688 591.484375 293.75 591.574219 295.574219 C 591.664062 297.398438 591.707031 299.222656 591.707031 301.046875 Z M 591.707031 301.046875 " fill-opacity="1" fill-rule="nonzero"/></g><path fill="#ffffff" d="M 508.160156 306.785156 L 511.316406 282.332031 L 487.097656 282.332031 L 487.097656 266.71875 C 487.097656 259.636719 489.074219 254.8125 499.226562 254.8125 L 512.164062 254.804688 L 512.164062 232.9375 C 509.929688 232.636719 502.25 231.972656 493.296875 231.972656 C 474.625 231.972656 461.851562 243.371094 461.851562 264.300781 L 461.851562 282.332031 L 440.734375 282.332031 L 440.734375 306.785156 L 461.851562 306.785156 L 461.851562 369.527344 L 487.097656 369.527344 L 487.097656 306.785156 Z M 508.160156 306.785156 " fill-opacity="1" fill-rule="nonzero"/></svg>