<svg xmlns="http://www.w3.org/2000/svg" xmlns:xlink="http://www.w3.org/1999/xlink" width="1280" zoomAndPan="magnify" viewBox="0 0 960 540.000001" height="720" preserveAspectRatio="xMidYMid meet" version="1.0"><defs><clipPath id="f9c6b555f7"><path d="M 142.140625 150 L 799 150 L 799 260 L 142.140625 260 Z M 142.140625 150 " clip-rule="nonzero"/></clipPath><clipPath id="a2248073bd"><path d="M 142.140625 32 L 799 32 L 799 310 L 142.140625 310 Z M 142.140625 32 " clip-rule="nonzero"/></clipPath></defs><path fill="#663300" d="M 160.859375 259.417969 C 180.53125 307.933594 156.328125 318.777344 190.542969 360.261719 C 205.089844 378.023438 230.839844 357.519531 265.414062 415.570312 C 290.6875 457.769531 378.433594 442.746094 414.085938 476.007812 C 454.382812 513.433594 477.03125 527.261719 532.949219 508.785156 C 578.609375 493.765625 542.125 468.617188 642.871094 443.582031 C 694.375 430.710938 680.304688 421.652344 731.214844 397.691406 C 758.515625 384.816406 804.058594 218.53125 740.035156 218.53125 C 620.097656 218.53125 597.804688 211.855469 471.191406 236.648438 C 435.785156 243.441406 358.050781 222.582031 304.761719 222.582031 C 272.929688 222.582031 174.570312 230.808594 154.660156 254.527344 Z M 160.859375 259.417969 " fill-opacity="1" fill-rule="evenodd"/><g clip-path="url(#f9c6b555f7)"><path fill="#33cc33" d="M 196.503906 150.46875 L 744.320312 150.46875 C 774.246094 150.46875 798.808594 175.023438 798.808594 204.945312 L 798.808594 259.417969 L 142.140625 259.417969 L 142.140625 204.945312 C 142.140625 175.023438 166.578125 150.46875 196.503906 150.46875 Z M 196.503906 150.46875 " fill-opacity="1" fill-rule="evenodd"/></g><path fill="#4a2805" d="M 418.730469 433.214844 C 385.351562 403.890625 303.445312 417.242188 279.839844 379.929688 C 247.53125 328.792969 223.445312 346.914062 209.855469 331.296875 C 200.796875 320.925781 196.984375 312.34375 193.644531 305.3125 C 193.050781 304.121094 189.828125 302.691406 189.828125 304.003906 C 191.136719 325.578125 186.371094 337.855469 209.855469 364.675781 C 223.445312 380.292969 247.53125 362.289062 279.839844 413.429688 C 303.445312 450.617188 385.347656 437.269531 418.730469 466.589844 C 456.285156 499.730469 477.507812 511.886719 529.847656 495.558594 C 572.527344 482.328125 538.429688 460.152344 632.496094 438.101562 C 680.542969 426.773438 667.425781 418.789062 714.996094 397.574219 C 727.632812 392.089844 747.066406 354.066406 750.882812 316.277344 C 751.117188 313.417969 743.011719 315.800781 741.703125 318.664062 C 731.332031 340.953125 723.460938 360.382812 715 364.199219 C 667.429688 385.296875 680.546875 393.402344 632.5 404.605469 C 538.433594 426.660156 572.53125 448.949219 529.851562 462.179688 C 477.507812 478.386719 456.285156 466.230469 418.730469 433.214844 Z M 418.730469 433.214844 " fill-opacity="1" fill-rule="evenodd"/><g clip-path="url(#a2248073bd)"><path fill="#996633" d="M 250.035156 221.035156 C 189.472656 262.636719 153.109375 211.382812 142.140625 210.1875 L 142.140625 267.761719 C 142.140625 278.847656 189.472656 320.210938 250.035156 278.609375 C 284.847656 254.769531 335.753906 301.375 365.796875 306.265625 C 400.132812 311.746094 443.527344 288.863281 471.546875 282.78125 C 511.007812 274.199219 505.640625 323.074219 594.34375 279.207031 C 612.820312 270.148438 627.722656 257.152344 668.378906 286.121094 C 726.796875 327.597656 798.808594 309.601562 798.808594 272.769531 L 798.808594 215.191406 C 780.925781 247.496094 726.796875 270.027344 668.378906 228.542969 C 627.722656 199.699219 612.820312 212.570312 594.34375 221.632812 C 505.640625 265.496094 494.078125 229.5 471.546875 225.207031 C 449.488281 221.03125 418.132812 241.296875 389.046875 247.496094 C 389.285156 247.257812 389.640625 247.019531 389.882812 246.78125 C 391.554688 244.753906 391.3125 241.65625 389.289062 239.984375 C 387.261719 238.199219 384.160156 238.433594 382.492188 240.464844 C 380.703125 242.492188 380.941406 245.585938 382.96875 247.257812 C 383.5625 247.851562 384.277344 248.09375 384.878906 248.332031 C 378.320312 249.402344 372.003906 249.640625 365.800781 248.6875 C 345.058594 245.351562 314.296875 222.105469 285.804688 215.90625 C 285.925781 215.3125 285.925781 214.835938 285.925781 214.359375 C 285.566406 211.734375 283.179688 209.828125 280.558594 210.066406 C 278.171875 210.421875 276.503906 212.210938 276.265625 214.472656 C 266.964844 213.761719 258.140625 215.550781 250.035156 221.035156 Z M 693.773438 88.605469 C 693.414062 90.394531 694.609375 92.179688 696.515625 92.539062 C 698.304688 93.015625 700.210938 91.703125 700.570312 89.914062 C 700.925781 88.007812 699.734375 86.21875 697.828125 85.863281 C 695.917969 85.503906 694.128906 86.699219 693.773438 88.605469 Z M 775.199219 77.636719 C 776.75 76.566406 777.109375 74.421875 776.035156 72.871094 C 774.84375 71.320312 772.699219 70.960938 771.265625 72.035156 C 769.714844 73.105469 769.359375 75.25 770.433594 76.800781 C 771.503906 78.351562 773.652344 78.710938 775.199219 77.636719 Z M 647.277344 90.75 C 646.324219 89.199219 644.417969 88.605469 642.746094 89.441406 C 641.195312 90.277344 640.601562 92.300781 641.433594 93.851562 C 642.269531 95.402344 644.292969 95.996094 645.84375 95.160156 C 647.515625 94.324219 648.113281 92.300781 647.277344 90.75 Z M 740.03125 82.167969 C 739.195312 80.496094 737.171875 79.902344 735.5 80.859375 C 733.828125 81.695312 733.234375 83.71875 734.191406 85.386719 C 735.027344 87.058594 737.050781 87.652344 738.722656 86.699219 C 740.390625 85.863281 740.984375 83.835938 740.03125 82.167969 Z M 759.941406 114.828125 C 761.371094 113.636719 761.726562 111.488281 760.65625 109.941406 C 759.582031 108.390625 757.4375 108.152344 755.886719 109.226562 C 754.335938 110.296875 753.980469 112.441406 755.050781 113.992188 C 756.242188 115.542969 758.394531 115.898438 759.941406 114.828125 Z M 662.058594 65.003906 C 661.464844 63.929688 660.152344 63.453125 658.957031 64.050781 C 657.886719 64.644531 657.527344 65.957031 658.125 67.03125 C 658.71875 68.222656 660.03125 68.582031 661.105469 67.980469 C 662.179688 67.382812 662.539062 66.074219 662.058594 65.003906 Z M 623.074219 117.09375 C 623.554688 114.707031 622.003906 112.441406 619.617188 111.96875 C 617.230469 111.488281 614.96875 113.039062 614.492188 115.304688 C 614.015625 117.691406 615.5625 119.953125 617.949219 120.429688 C 620.335938 120.90625 622.597656 119.359375 623.074219 117.09375 Z M 520.070312 130.921875 C 518.046875 132.230469 517.683594 134.972656 519.117188 136.878906 C 520.429688 138.910156 523.171875 139.382812 525.078125 137.953125 C 527.109375 136.523438 527.464844 133.78125 526.152344 131.871094 C 524.71875 129.964844 521.976562 129.492188 520.070312 130.921875 Z M 681.972656 114.234375 C 683.042969 116.261719 685.546875 117.09375 687.574219 115.902344 C 689.601562 114.832031 690.316406 112.328125 689.246094 110.421875 C 688.171875 108.394531 685.671875 107.5625 683.640625 108.632812 C 681.613281 109.703125 680.898438 112.203125 681.972656 114.234375 Z M 564.539062 125.082031 C 565.609375 127.109375 568.234375 127.941406 570.261719 126.867188 C 572.289062 125.675781 573.121094 123.171875 572.050781 121.027344 C 570.855469 119 568.351562 118.167969 566.207031 119.359375 C 564.179688 120.429688 563.347656 123.054688 564.539062 125.082031 Z M 539.503906 83.835938 C 537.476562 85.265625 537 88.007812 538.429688 89.914062 C 539.863281 91.824219 542.605469 92.300781 544.511719 90.867188 C 546.421875 89.558594 546.898438 86.816406 545.464844 84.90625 C 544.152344 82.882812 541.410156 82.523438 539.503906 83.835938 Z M 663.253906 146.894531 C 663.96875 148.203125 665.640625 148.679688 667.070312 147.964844 C 668.382812 147.25 668.855469 145.578125 668.140625 144.148438 C 667.425781 142.839844 665.753906 142.363281 664.324219 143.078125 C 663.015625 143.792969 662.539062 145.464844 663.253906 146.894531 Z M 514.109375 63.929688 C 513.632812 66.195312 515.179688 68.460938 517.445312 68.9375 C 519.832031 69.414062 522.097656 67.867188 522.574219 65.601562 C 523.050781 63.214844 521.5 60.949219 519.113281 60.476562 C 516.847656 59.996094 514.582031 61.542969 514.109375 63.929688 Z M 617.113281 50.101562 C 619.023438 48.671875 619.5 45.929688 618.066406 44.023438 C 616.636719 41.992188 613.894531 41.636719 611.984375 42.949219 C 610.078125 44.378906 609.597656 47.121094 611.03125 49.03125 C 612.347656 51.054688 615.089844 51.410156 617.113281 50.101562 Z M 455.214844 66.667969 C 454.140625 64.640625 451.636719 63.925781 449.609375 65 C 447.582031 66.070312 446.75 68.574219 447.9375 70.601562 C 449.011719 72.628906 451.515625 73.34375 453.542969 72.273438 C 455.449219 71.199219 456.285156 68.699219 455.214844 66.667969 Z M 572.648438 55.824219 C 571.453125 53.796875 568.953125 52.964844 566.804688 54.039062 C 564.777344 55.230469 563.945312 57.734375 565.136719 59.878906 C 566.207031 61.90625 568.832031 62.738281 570.859375 61.546875 C 572.882812 60.472656 573.71875 57.847656 572.648438 55.824219 Z M 597.679688 97.066406 C 599.589844 95.636719 600.066406 92.894531 598.632812 90.988281 C 597.203125 89.078125 594.578125 88.601562 592.550781 90.035156 C 590.644531 91.464844 590.164062 94.085938 591.597656 96.117188 C 593.03125 98.019531 595.65625 98.496094 597.679688 97.066406 Z M 473.933594 34.128906 C 473.097656 32.699219 471.429688 32.222656 470.117188 32.9375 C 468.6875 33.652344 468.207031 35.324219 468.921875 36.753906 C 469.636719 38.0625 471.308594 38.660156 472.738281 37.824219 C 474.046875 37.109375 474.648438 35.4375 473.933594 34.128906 Z M 477.746094 204.109375 C 477.507812 201.964844 479.054688 200.054688 481.203125 199.816406 C 483.230469 199.578125 485.136719 201.125 485.375 203.152344 C 485.613281 205.296875 484.183594 207.203125 482.039062 207.445312 C 479.894531 207.6875 477.984375 206.136719 477.746094 204.109375 Z M 567.160156 223.417969 C 568.710938 224.847656 568.949219 227.234375 567.519531 228.785156 C 566.207031 230.453125 563.824219 230.570312 562.15625 229.261719 C 560.605469 227.953125 560.367188 225.445312 561.796875 223.894531 C 563.105469 222.226562 565.492188 222.109375 567.160156 223.417969 Z M 426.363281 197.554688 C 425.292969 199.222656 423.027344 199.699219 421.355469 198.625 C 419.683594 197.554688 419.089844 195.289062 420.28125 193.5 C 421.355469 191.832031 423.621094 191.355469 425.292969 192.429688 C 426.957031 193.5 427.4375 195.765625 426.363281 197.554688 Z M 528.535156 215.191406 C 527.460938 216.980469 525.074219 217.457031 523.410156 216.386719 C 521.621094 215.191406 521.144531 212.929688 522.214844 211.140625 C 523.410156 209.46875 525.671875 208.996094 527.460938 210.066406 C 529.128906 211.140625 529.726562 213.527344 528.535156 215.191406 Z M 553.449219 180.867188 C 555 182.175781 555.238281 184.679688 553.808594 186.230469 C 552.496094 187.902344 550.113281 188.019531 548.441406 186.710938 C 546.890625 185.28125 546.652344 182.894531 548.085938 181.34375 C 549.398438 179.671875 551.785156 179.433594 553.449219 180.867188 Z M 440.429688 227.355469 C 439.714844 228.546875 438.164062 228.902344 437.09375 228.070312 C 435.898438 227.355469 435.542969 225.804688 436.257812 224.730469 C 437.09375 223.539062 438.523438 223.179688 439.714844 224.015625 C 440.90625 224.730469 441.144531 226.28125 440.429688 227.355469 Z M 401.921875 166.203125 C 402.160156 168.824219 400.25 171.210938 397.628906 171.570312 C 395.003906 171.804688 392.617188 169.898438 392.265625 167.277344 C 391.90625 164.652344 393.816406 162.265625 396.554688 161.910156 C 399.179688 161.671875 401.5625 163.582031 401.921875 166.203125 Z M 288.902344 141.648438 C 286.875 139.976562 286.636719 136.878906 288.308594 134.851562 C 290.09375 132.824219 293.074219 132.585938 295.101562 134.375 C 297.132812 136.046875 297.367188 139.140625 295.699219 141.171875 C 293.90625 143.199219 290.925781 143.433594 288.902344 141.648438 Z M 466.898438 174.546875 C 468.328125 172.402344 471.1875 171.804688 473.335938 173.117188 C 475.484375 174.546875 476.082031 177.292969 474.652344 179.4375 C 473.335938 181.582031 470.476562 182.296875 468.332031 180.867188 C 466.1875 179.4375 465.585938 176.691406 466.898438 174.546875 Z M 337.664062 152.019531 C 339.09375 149.871094 341.957031 149.273438 344.21875 150.589844 C 346.363281 152.019531 347.078125 154.996094 345.648438 157.140625 C 344.21875 159.40625 341.238281 160.003906 339.09375 158.574219 C 336.949219 157.140625 336.234375 154.28125 337.664062 152.019531 Z M 306.1875 195.527344 C 304.15625 193.855469 303.921875 190.757812 305.707031 188.730469 C 307.378906 186.703125 310.476562 186.464844 312.503906 188.136719 C 314.535156 189.921875 314.769531 192.902344 312.984375 195.046875 C 311.316406 197.074219 308.214844 197.3125 306.1875 195.527344 Z M 449.132812 136.761719 C 449.96875 135.210938 451.992188 134.851562 453.421875 135.808594 C 454.851562 136.761719 455.210938 138.667969 454.375 140.101562 C 453.421875 141.53125 451.515625 142.007812 449.964844 141.054688 C 448.539062 140.097656 448.179688 138.191406 449.132812 136.761719 Z M 211.285156 207.089844 C 209.855469 209.234375 206.996094 209.949219 204.847656 208.519531 C 202.703125 207.207031 202.105469 204.34375 203.539062 202.199219 C 204.847656 200.054688 207.710938 199.457031 209.855469 200.769531 C 212.003906 202.199219 212.601562 205.0625 211.285156 207.089844 Z M 340.523438 229.617188 C 339.09375 231.765625 336.113281 232.363281 333.96875 231.046875 C 331.703125 229.617188 331.105469 226.640625 332.535156 224.496094 C 333.96875 222.230469 336.832031 221.632812 339.09375 223.0625 C 341.238281 224.492188 341.953125 227.355469 340.523438 229.617188 Z M 372 186.109375 C 374.027344 187.78125 374.265625 190.878906 372.476562 192.90625 C 370.804688 194.933594 367.707031 195.171875 365.679688 193.5 C 363.652344 191.714844 363.414062 188.734375 365.085938 186.707031 C 366.871094 184.679688 369.851562 184.320312 372 186.109375 Z M 372 186.109375 " fill-opacity="1" fill-rule="evenodd"/></g></svg>