<svg xmlns="http://www.w3.org/2000/svg" xmlns:xlink="http://www.w3.org/1999/xlink" width="1280" zoomAndPan="magnify" viewBox="0 0 960 540.000001" height="720" preserveAspectRatio="xMidYMid meet" version="1.0"><defs><clipPath id="112ae9f0d6"><path d="M 58 342.117188 L 238 342.117188 L 238 432 L 58 432 Z M 58 342.117188 " clip-rule="nonzero"/></clipPath><clipPath id="05912d6e09"><path d="M 92 342.117188 L 126 342.117188 L 126 432 L 92 432 Z M 92 342.117188 " clip-rule="nonzero"/></clipPath><clipPath id="ed336d6a77"><path d="M 32.695312 531 L 44 531 L 44 539 L 32.695312 539 Z M 32.695312 531 " clip-rule="nonzero"/></clipPath><clipPath id="e2a558f0a0"><path d="M 244 531 L 255.785156 531 L 255.785156 539 L 244 539 Z M 244 531 " clip-rule="nonzero"/></clipPath><clipPath id="ded5677196"><path d="M 96.390625 283 L 126 283 L 126 314 L 96.390625 314 Z M 96.390625 283 " clip-rule="nonzero"/></clipPath><clipPath id="66469ecfc5"><path d="M 114 178.527344 L 201.945312 178.527344 L 201.945312 342.472656 L 114 342.472656 Z M 114 178.527344 " clip-rule="nonzero"/></clipPath><clipPath id="f76e508e11"><path d="M 137 330 L 150 330 L 150 342.472656 L 137 342.472656 Z M 137 330 " clip-rule="nonzero"/></clipPath><clipPath id="943a02470a"><path d="M 137 330 L 144 330 L 144 342.472656 L 137 342.472656 Z M 137 330 " clip-rule="nonzero"/></clipPath><clipPath id="4973491969"><path d="M 96.390625 283 L 126 283 L 126 314 L 96.390625 314 Z M 96.390625 283 " clip-rule="nonzero"/></clipPath><clipPath id="6be9bb23e8"><path d="M 143 178.527344 L 201.945312 178.527344 L 201.945312 238 L 143 238 Z M 143 178.527344 " clip-rule="nonzero"/></clipPath><clipPath id="370879e105"><path d="M 160 178.527344 L 167 178.527344 L 167 185 L 160 185 Z M 160 178.527344 " clip-rule="nonzero"/></clipPath><clipPath id="b2a6ac3eac"><path d="M 172 178.527344 L 179 178.527344 L 179 185 L 172 185 Z M 172 178.527344 " clip-rule="nonzero"/></clipPath><clipPath id="dcf7802621"><path d="M 196 213 L 201.945312 213 L 201.945312 220 L 196 220 Z M 196 213 " clip-rule="nonzero"/></clipPath></defs><path fill="#23a24d" d="M 81.09375 420.128906 L 214.816406 420.128906 L 214.816406 535.285156 L 81.09375 535.285156 Z M 81.09375 420.128906 " fill-opacity="1" fill-rule="nonzero"/><path fill="#008429" d="M 226.46875 427.558594 L 69.441406 427.558594 C 65.617188 427.558594 62.519531 424.457031 62.519531 420.632812 L 62.519531 352.753906 C 62.519531 348.929688 65.617188 345.832031 69.441406 345.832031 L 226.472656 345.832031 C 230.292969 345.832031 233.390625 348.929688 233.390625 352.753906 L 233.390625 420.636719 C 233.390625 424.457031 230.292969 427.558594 226.46875 427.558594 Z M 226.46875 427.558594 " fill-opacity="1" fill-rule="nonzero"/><path fill="#00bc36" d="M 95.949219 345.832031 L 121.953125 345.832031 L 121.953125 427.558594 L 95.949219 427.558594 Z M 95.949219 345.832031 " fill-opacity="1" fill-rule="nonzero"/><path fill="#00cc3f" d="M 121.953125 427.558594 L 144.242188 427.558594 L 144.242188 535.285156 L 121.953125 535.285156 Z M 121.953125 427.558594 " fill-opacity="1" fill-rule="nonzero"/><g clip-path="url(#112ae9f0d6)"><path fill="#4d007e" d="M 226.46875 431.273438 L 69.441406 431.273438 C 63.578125 431.273438 58.804688 426.496094 58.804688 420.632812 L 58.804688 352.753906 C 58.804688 346.890625 63.578125 342.117188 69.441406 342.117188 L 226.472656 342.117188 C 232.332031 342.117188 237.105469 346.890625 237.105469 352.753906 L 237.105469 420.632812 C 237.105469 426.496094 232.332031 431.273438 226.46875 431.273438 Z M 69.441406 349.546875 C 67.671875 349.546875 66.234375 350.988281 66.234375 352.753906 L 66.234375 420.632812 C 66.234375 422.402344 67.671875 423.84375 69.441406 423.84375 L 226.472656 423.84375 C 228.238281 423.84375 229.675781 422.402344 229.675781 420.632812 L 229.675781 352.753906 C 229.675781 350.988281 228.238281 349.546875 226.46875 349.546875 Z M 69.441406 349.546875 " fill-opacity="1" fill-rule="nonzero"/></g><path fill="#4d007e" d="M 214.816406 539 L 81.09375 539 C 79.042969 539 77.378906 537.335938 77.378906 535.285156 L 77.378906 427.558594 C 77.378906 425.507812 79.042969 423.84375 81.09375 423.84375 L 214.816406 423.84375 C 216.867188 423.84375 218.53125 425.507812 218.53125 427.558594 L 218.53125 535.285156 C 218.53125 537.335938 216.867188 539 214.816406 539 Z M 84.804688 531.570312 L 211.105469 531.570312 L 211.105469 431.273438 L 84.804688 431.273438 Z M 84.804688 531.570312 " fill-opacity="1" fill-rule="nonzero"/><g clip-path="url(#05912d6e09)"><path fill="#4d007e" d="M 121.953125 431.273438 L 95.949219 431.273438 C 93.898438 431.273438 92.234375 429.605469 92.234375 427.558594 L 92.234375 345.832031 C 92.234375 343.78125 93.898438 342.117188 95.949219 342.117188 L 121.953125 342.117188 C 124.003906 342.117188 125.667969 343.78125 125.667969 345.832031 L 125.667969 427.558594 C 125.667969 429.605469 124.003906 431.273438 121.953125 431.273438 Z M 99.664062 423.84375 L 118.238281 423.84375 L 118.238281 349.546875 L 99.664062 349.546875 Z M 99.664062 423.84375 " fill-opacity="1" fill-rule="nonzero"/></g><path fill="#4d007e" d="M 144.242188 539 L 121.953125 539 C 119.902344 539 118.238281 537.335938 118.238281 535.285156 L 118.238281 427.558594 C 118.238281 425.507812 119.902344 423.84375 121.953125 423.84375 L 144.242188 423.84375 C 146.289062 423.84375 147.957031 425.507812 147.957031 427.558594 L 147.957031 535.285156 C 147.957031 537.335938 146.289062 539 144.242188 539 Z M 125.667969 531.570312 L 140.527344 531.570312 L 140.527344 431.273438 L 125.667969 431.273438 Z M 125.667969 531.570312 " fill-opacity="1" fill-rule="nonzero"/><g clip-path="url(#ed336d6a77)"><path fill="#4d007e" d="M 40.230469 539 L 36.515625 539 C 34.464844 539 32.800781 537.335938 32.800781 535.285156 C 32.800781 533.234375 34.464844 531.570312 36.515625 531.570312 L 40.230469 531.570312 C 42.28125 531.570312 43.945312 533.234375 43.945312 535.285156 C 43.945312 537.335938 42.28125 539 40.230469 539 Z M 40.230469 539 " fill-opacity="1" fill-rule="nonzero"/></g><g clip-path="url(#e2a558f0a0)"><path fill="#4d007e" d="M 251.964844 539 L 248.25 539 C 246.199219 539 244.535156 537.335938 244.535156 535.285156 C 244.535156 533.234375 246.199219 531.570312 248.25 531.570312 L 251.964844 531.570312 C 254.015625 531.570312 255.679688 533.234375 255.679688 535.285156 C 255.679688 537.335938 254.015625 539 251.964844 539 Z M 251.964844 539 " fill-opacity="1" fill-rule="nonzero"/></g><path fill="#4d007e" d="M 233.390625 539 L 55.089844 539 C 53.039062 539 51.375 537.335938 51.375 535.285156 C 51.375 533.234375 53.039062 531.570312 55.089844 531.570312 L 233.390625 531.570312 C 235.441406 531.570312 237.105469 533.234375 237.105469 535.285156 C 237.105469 537.335938 235.441406 539 233.390625 539 Z M 233.390625 539 " fill-opacity="1" fill-rule="nonzero"/><g clip-path="url(#ded5677196)"><path fill="#2e1b5b" d="M 114.023438 283.921875 L 108.167969 283.921875 L 108.167969 289.777344 L 102.308594 289.777344 L 102.308594 295.632812 L 96.453125 295.632812 L 96.453125 313.199219 L 114.023438 313.199219 L 114.023438 307.34375 L 119.882812 307.34375 L 119.882812 301.488281 L 125.738281 301.488281 L 125.738281 283.921875 Z M 114.023438 283.921875 " fill-opacity="1" fill-rule="nonzero"/></g><path fill="#2e1b5b" d="M 149.167969 289.777344 L 166.738281 289.777344 L 166.738281 283.921875 L 172.597656 283.921875 L 172.597656 272.210938 L 166.738281 272.210938 L 166.738281 266.355469 L 149.167969 266.355469 L 149.167969 272.210938 L 143.308594 272.210938 L 143.308594 283.921875 L 149.167969 283.921875 Z M 149.167969 289.777344 " fill-opacity="1" fill-rule="nonzero"/><g clip-path="url(#66469ecfc5)"><path fill="#2e1b5b" d="M 196.023438 201.949219 L 190.167969 201.949219 L 190.167969 207.804688 L 184.308594 207.804688 L 184.308594 213.660156 L 172.597656 213.660156 L 172.597656 207.804688 L 178.453125 207.804688 L 178.453125 201.949219 L 184.308594 201.949219 L 184.308594 196.09375 L 190.167969 196.09375 L 190.167969 190.238281 L 196.023438 190.238281 L 196.023438 184.382812 L 190.167969 184.382812 L 190.167969 178.527344 L 160.882812 178.527344 L 160.882812 184.382812 L 149.167969 184.382812 L 149.167969 196.09375 L 137.453125 196.09375 L 137.453125 190.238281 L 131.59375 190.238281 L 131.59375 184.382812 L 114.023438 184.382812 L 114.023438 201.949219 L 119.882812 201.949219 L 119.882812 207.804688 L 125.738281 207.804688 L 125.738281 213.660156 L 119.882812 213.660156 L 119.882812 219.515625 L 114.023438 219.515625 L 114.023438 225.367188 L 119.882812 225.367188 L 119.882812 231.222656 L 125.738281 231.222656 L 125.738281 237.078125 L 137.453125 237.078125 L 137.453125 242.933594 L 131.59375 242.933594 L 131.59375 254.644531 L 125.738281 254.644531 L 125.738281 283.921875 L 131.59375 283.921875 L 131.59375 295.632812 L 137.453125 295.632812 L 137.453125 307.34375 L 143.308594 307.34375 L 143.308594 330.761719 L 137.453125 330.761719 L 137.453125 342.472656 L 149.167969 342.472656 L 149.167969 330.761719 L 155.023438 330.761719 L 155.023438 307.34375 L 149.167969 307.34375 L 149.167969 295.632812 L 143.308594 295.632812 L 143.308594 283.921875 L 137.453125 283.921875 L 137.453125 254.644531 L 149.167969 254.644531 L 149.167969 260.5 L 166.738281 260.5 L 166.738281 254.644531 L 172.597656 254.644531 L 172.597656 248.789062 L 178.453125 248.789062 L 178.453125 242.933594 L 172.597656 242.933594 L 172.597656 237.078125 L 190.167969 237.078125 L 190.167969 231.222656 L 196.023438 231.222656 L 196.023438 225.367188 L 201.882812 225.367188 L 201.882812 201.949219 Z M 196.023438 201.949219 " fill-opacity="1" fill-rule="nonzero"/></g><path fill="#029316" d="M 137.453125 196.09375 L 137.453125 190.238281 L 131.59375 190.238281 L 131.59375 184.382812 L 114.023438 184.382812 L 114.023438 201.949219 L 119.882812 201.949219 L 119.882812 207.804688 L 125.738281 207.804688 L 125.738281 213.660156 L 143.308594 213.660156 L 143.308594 196.09375 Z M 137.453125 196.09375 " fill-opacity="1" fill-rule="nonzero"/><path fill="#10d000" d="M 131.59375 196.09375 L 131.59375 190.238281 L 119.882812 190.238281 L 119.882812 201.949219 L 125.738281 201.949219 L 125.738281 207.804688 L 137.453125 207.804688 L 137.453125 196.09375 Z M 131.59375 196.09375 " fill-opacity="1" fill-rule="nonzero"/><path fill="#029316" d="M 149.167969 219.515625 L 155.023438 219.515625 L 155.023438 225.367188 L 149.167969 225.367188 Z M 149.167969 219.515625 " fill-opacity="1" fill-rule="nonzero"/><path fill="#029316" d="M 172.597656 242.933594 L 172.597656 237.078125 L 166.738281 237.078125 L 166.738281 231.222656 L 160.882812 231.222656 L 160.882812 225.367188 L 149.167969 225.367188 L 149.167969 231.222656 L 143.308594 231.222656 L 143.308594 237.078125 L 137.453125 237.078125 L 137.453125 248.789062 L 143.308594 248.789062 L 143.308594 254.644531 L 149.167969 254.644531 L 149.167969 260.5 L 166.738281 260.5 L 166.738281 254.644531 L 172.597656 254.644531 L 172.597656 248.789062 L 178.453125 248.789062 L 178.453125 242.933594 Z M 172.597656 242.933594 " fill-opacity="1" fill-rule="nonzero"/><path fill="#029316" d="M 143.308594 213.660156 L 143.308594 207.804688 L 125.738281 207.804688 L 125.738281 213.660156 L 119.882812 213.660156 L 119.882812 219.515625 L 114.023438 219.515625 L 114.023438 225.367188 L 119.882812 225.367188 L 119.882812 231.222656 L 125.738281 231.222656 L 125.738281 237.078125 L 143.308594 237.078125 L 143.308594 231.222656 L 149.167969 231.222656 L 149.167969 213.660156 Z M 143.308594 213.660156 " fill-opacity="1" fill-rule="nonzero"/><path fill="#a2f255" d="M 119.882812 190.238281 L 125.738281 190.238281 L 125.738281 196.09375 L 119.882812 196.09375 Z M 119.882812 190.238281 " fill-opacity="1" fill-rule="nonzero"/><path fill="#a2f255" d="M 125.738281 196.09375 L 131.59375 196.09375 L 131.59375 201.949219 L 125.738281 201.949219 Z M 125.738281 196.09375 " fill-opacity="1" fill-rule="nonzero"/><path fill="#a2f255" d="M 131.59375 201.949219 L 137.453125 201.949219 L 137.453125 207.804688 L 131.59375 207.804688 Z M 131.59375 201.949219 " fill-opacity="1" fill-rule="nonzero"/><path fill="#10d000" d="M 160.882812 237.078125 L 160.882812 231.222656 L 149.167969 231.222656 L 149.167969 237.078125 L 143.308594 237.078125 L 143.308594 248.789062 L 149.167969 248.789062 L 149.167969 254.644531 L 166.738281 254.644531 L 166.738281 237.078125 Z M 160.882812 237.078125 " fill-opacity="1" fill-rule="nonzero"/><path fill="#10d000" d="M 149.167969 219.515625 L 143.308594 219.515625 L 143.308594 213.660156 L 125.738281 213.660156 L 125.738281 219.515625 L 119.882812 219.515625 L 119.882812 225.367188 L 125.738281 225.367188 L 125.738281 231.222656 L 143.308594 231.222656 L 143.308594 225.367188 L 149.167969 225.367188 Z M 149.167969 219.515625 " fill-opacity="1" fill-rule="nonzero"/><path fill="#a2f255" d="M 143.308594 237.078125 L 149.167969 237.078125 L 149.167969 242.933594 L 143.308594 242.933594 Z M 143.308594 237.078125 " fill-opacity="1" fill-rule="nonzero"/><path fill="#a2f255" d="M 149.167969 242.933594 L 166.738281 242.933594 L 166.738281 248.789062 L 149.167969 248.789062 Z M 149.167969 242.933594 " fill-opacity="1" fill-rule="nonzero"/><path fill="#a2f255" d="M 155.023438 231.222656 L 160.882812 231.222656 L 160.882812 237.078125 L 155.023438 237.078125 Z M 155.023438 231.222656 " fill-opacity="1" fill-rule="nonzero"/><path fill="#a2f255" d="M 160.882812 248.789062 L 166.738281 248.789062 L 166.738281 254.644531 L 160.882812 254.644531 Z M 160.882812 248.789062 " fill-opacity="1" fill-rule="nonzero"/><path fill="#a2f255" d="M 119.882812 219.515625 L 149.167969 219.515625 L 149.167969 225.367188 L 119.882812 225.367188 Z M 119.882812 219.515625 " fill-opacity="1" fill-rule="nonzero"/><path fill="#a2f255" d="M 131.59375 213.660156 L 137.453125 213.660156 L 137.453125 219.515625 L 131.59375 219.515625 Z M 131.59375 213.660156 " fill-opacity="1" fill-rule="nonzero"/><path fill="#a2f255" d="M 125.738281 225.367188 L 131.59375 225.367188 L 131.59375 231.222656 L 125.738281 231.222656 Z M 125.738281 225.367188 " fill-opacity="1" fill-rule="nonzero"/><path fill="#2e1b5b" d="M 149.167969 219.515625 L 155.023438 219.515625 L 155.023438 225.367188 L 149.167969 225.367188 Z M 149.167969 219.515625 " fill-opacity="1" fill-rule="nonzero"/><path fill="#2e1b5b" d="M 143.308594 225.367188 L 149.167969 225.367188 L 149.167969 231.222656 L 143.308594 231.222656 Z M 143.308594 225.367188 " fill-opacity="1" fill-rule="nonzero"/><path fill="#2e1b5b" d="M 137.453125 237.078125 L 143.308594 237.078125 L 143.308594 248.789062 L 137.453125 248.789062 Z M 137.453125 237.078125 " fill-opacity="1" fill-rule="nonzero"/><path fill="#2e1b5b" d="M 143.308594 248.789062 L 149.167969 248.789062 L 149.167969 254.644531 L 143.308594 254.644531 Z M 143.308594 248.789062 " fill-opacity="1" fill-rule="nonzero"/><path fill="#2e1b5b" d="M 149.167969 254.644531 L 155.023438 254.644531 L 155.023438 260.5 L 149.167969 260.5 Z M 149.167969 254.644531 " fill-opacity="1" fill-rule="nonzero"/><path fill="#2e1b5b" d="M 137.453125 201.949219 L 137.453125 207.804688 L 131.59375 207.804688 L 131.59375 213.660156 L 143.308594 213.660156 L 143.308594 201.949219 Z M 137.453125 201.949219 " fill-opacity="1" fill-rule="nonzero"/><path fill="#2e1b5b" d="M 143.308594 213.660156 L 149.167969 213.660156 L 149.167969 219.515625 L 143.308594 219.515625 Z M 143.308594 213.660156 " fill-opacity="0.498" fill-rule="nonzero"/><path fill="#2e1b5b" d="M 137.453125 196.09375 L 143.308594 196.09375 L 143.308594 201.949219 L 137.453125 201.949219 Z M 137.453125 196.09375 " fill-opacity="0.498" fill-rule="nonzero"/><path fill="#2e1b5b" d="M 125.738281 207.804688 L 131.59375 207.804688 L 131.59375 213.660156 L 125.738281 213.660156 Z M 125.738281 207.804688 " fill-opacity="0.498" fill-rule="nonzero"/><path fill="#2e1b5b" d="M 143.308594 231.222656 L 149.167969 231.222656 L 149.167969 237.078125 L 143.308594 237.078125 Z M 143.308594 231.222656 " fill-opacity="0.498" fill-rule="nonzero"/><path fill="#2e1b5b" d="M 155.023438 254.644531 L 160.882812 254.644531 L 160.882812 260.5 L 155.023438 260.5 Z M 155.023438 254.644531 " fill-opacity="0.498" fill-rule="nonzero"/><g clip-path="url(#f76e508e11)"><path fill="#029316" d="M 137.453125 330.761719 L 149.167969 330.761719 L 149.167969 342.472656 L 137.453125 342.472656 Z M 137.453125 330.761719 " fill-opacity="1" fill-rule="nonzero"/></g><path fill="#029316" d="M 143.308594 307.34375 L 155.023438 307.34375 L 155.023438 330.761719 L 143.308594 330.761719 Z M 143.308594 307.34375 " fill-opacity="1" fill-rule="nonzero"/><path fill="#029316" d="M 137.453125 295.632812 L 149.167969 295.632812 L 149.167969 307.34375 L 137.453125 307.34375 Z M 137.453125 295.632812 " fill-opacity="1" fill-rule="nonzero"/><path fill="#029316" d="M 131.59375 283.921875 L 143.308594 283.921875 L 143.308594 295.632812 L 131.59375 295.632812 Z M 131.59375 283.921875 " fill-opacity="1" fill-rule="nonzero"/><path fill="#029316" d="M 125.738281 254.644531 L 137.453125 254.644531 L 137.453125 283.921875 L 125.738281 283.921875 Z M 125.738281 254.644531 " fill-opacity="1" fill-rule="nonzero"/><path fill="#029316" d="M 131.59375 242.933594 L 143.308594 242.933594 L 143.308594 254.644531 L 131.59375 254.644531 Z M 131.59375 242.933594 " fill-opacity="1" fill-rule="nonzero"/><path fill="#029316" d="M 137.453125 231.222656 L 149.167969 231.222656 L 149.167969 242.933594 L 137.453125 242.933594 Z M 137.453125 231.222656 " fill-opacity="1" fill-rule="nonzero"/><path fill="#2e1b5b" d="M 137.453125 231.222656 L 143.308594 231.222656 L 143.308594 242.933594 L 137.453125 242.933594 Z M 137.453125 231.222656 " fill-opacity="1" fill-rule="nonzero"/><path fill="#2e1b5b" d="M 131.59375 242.933594 L 137.453125 242.933594 L 137.453125 254.644531 L 131.59375 254.644531 Z M 131.59375 242.933594 " fill-opacity="1" fill-rule="nonzero"/><path fill="#2e1b5b" d="M 125.738281 254.644531 L 131.59375 254.644531 L 131.59375 283.921875 L 125.738281 283.921875 Z M 125.738281 254.644531 " fill-opacity="1" fill-rule="nonzero"/><path fill="#2e1b5b" d="M 131.59375 283.921875 L 137.453125 283.921875 L 137.453125 295.632812 L 131.59375 295.632812 Z M 131.59375 283.921875 " fill-opacity="1" fill-rule="nonzero"/><path fill="#2e1b5b" d="M 137.453125 295.632812 L 143.308594 295.632812 L 143.308594 307.34375 L 137.453125 307.34375 Z M 137.453125 295.632812 " fill-opacity="1" fill-rule="nonzero"/><path fill="#2e1b5b" d="M 143.308594 307.34375 L 149.167969 307.34375 L 149.167969 330.761719 L 143.308594 330.761719 Z M 143.308594 307.34375 " fill-opacity="1" fill-rule="nonzero"/><g clip-path="url(#943a02470a)"><path fill="#2e1b5b" d="M 137.453125 330.761719 L 143.308594 330.761719 L 143.308594 342.472656 L 137.453125 342.472656 Z M 137.453125 330.761719 " fill-opacity="1" fill-rule="nonzero"/></g><path fill="#2e1b5b" d="M 143.308594 237.078125 L 149.167969 237.078125 L 149.167969 242.933594 L 143.308594 242.933594 Z M 143.308594 237.078125 " fill-opacity="0.498" fill-rule="nonzero"/><path fill="#2e1b5b" d="M 137.453125 248.789062 L 143.308594 248.789062 L 143.308594 254.644531 L 137.453125 254.644531 Z M 137.453125 248.789062 " fill-opacity="0.498" fill-rule="nonzero"/><path fill="#2e1b5b" d="M 131.59375 260.5 L 137.453125 260.5 L 137.453125 266.355469 L 131.59375 266.355469 Z M 131.59375 260.5 " fill-opacity="0.498" fill-rule="nonzero"/><path fill="#2e1b5b" d="M 131.59375 272.210938 L 137.453125 272.210938 L 137.453125 278.066406 L 131.59375 278.066406 Z M 131.59375 272.210938 " fill-opacity="0.498" fill-rule="nonzero"/><path fill="#2e1b5b" d="M 137.453125 283.921875 L 143.308594 283.921875 L 143.308594 289.777344 L 137.453125 289.777344 Z M 137.453125 283.921875 " fill-opacity="0.498" fill-rule="nonzero"/><path fill="#2e1b5b" d="M 143.308594 295.632812 L 149.167969 295.632812 L 149.167969 301.488281 L 143.308594 301.488281 Z M 143.308594 295.632812 " fill-opacity="0.498" fill-rule="nonzero"/><path fill="#2e1b5b" d="M 149.167969 307.34375 L 155.023438 307.34375 L 155.023438 313.199219 L 149.167969 313.199219 Z M 149.167969 307.34375 " fill-opacity="0.498" fill-rule="nonzero"/><path fill="#2e1b5b" d="M 149.167969 319.050781 L 155.023438 319.050781 L 155.023438 324.90625 L 149.167969 324.90625 Z M 149.167969 319.050781 " fill-opacity="0.498" fill-rule="nonzero"/><path fill="#2e1b5b" d="M 143.308594 330.761719 L 149.167969 330.761719 L 149.167969 336.617188 L 143.308594 336.617188 Z M 143.308594 330.761719 " fill-opacity="0.498" fill-rule="nonzero"/><g clip-path="url(#4973491969)"><path fill="#029316" d="M 108.167969 289.777344 L 102.308594 289.777344 L 102.308594 295.632812 L 96.453125 295.632812 L 96.453125 313.199219 L 114.023438 313.199219 L 114.023438 307.34375 L 119.882812 307.34375 L 119.882812 301.488281 L 125.738281 301.488281 L 125.738281 283.921875 L 108.167969 283.921875 Z M 108.167969 289.777344 " fill-opacity="1" fill-rule="nonzero"/></g><path fill="#029316" d="M 166.738281 272.210938 L 166.738281 266.355469 L 149.167969 266.355469 L 149.167969 272.210938 L 143.308594 272.210938 L 143.308594 283.921875 L 149.167969 283.921875 L 149.167969 289.777344 L 166.738281 289.777344 L 166.738281 283.921875 L 172.597656 283.921875 L 172.597656 272.210938 Z M 166.738281 272.210938 " fill-opacity="1" fill-rule="nonzero"/><path fill="#10d000" d="M 108.167969 295.632812 L 102.308594 295.632812 L 102.308594 307.34375 L 114.023438 307.34375 L 114.023438 301.488281 L 119.882812 301.488281 L 119.882812 289.777344 L 108.167969 289.777344 Z M 108.167969 295.632812 " fill-opacity="1" fill-rule="nonzero"/><path fill="#a2f255" d="M 102.308594 301.488281 L 108.167969 301.488281 L 108.167969 307.34375 L 102.308594 307.34375 Z M 102.308594 301.488281 " fill-opacity="1" fill-rule="nonzero"/><path fill="#a2f255" d="M 108.167969 295.632812 L 114.023438 295.632812 L 114.023438 301.488281 L 108.167969 301.488281 Z M 108.167969 295.632812 " fill-opacity="1" fill-rule="nonzero"/><path fill="#a2f255" d="M 114.023438 289.777344 L 119.882812 289.777344 L 119.882812 295.632812 L 114.023438 295.632812 Z M 114.023438 289.777344 " fill-opacity="1" fill-rule="nonzero"/><path fill="#10d000" d="M 149.167969 272.210938 L 166.738281 272.210938 L 166.738281 283.921875 L 149.167969 283.921875 Z M 149.167969 272.210938 " fill-opacity="1" fill-rule="nonzero"/><path fill="#a2f255" d="M 149.167969 272.210938 L 155.023438 272.210938 L 155.023438 278.066406 L 149.167969 278.066406 Z M 149.167969 272.210938 " fill-opacity="1" fill-rule="nonzero"/><path fill="#a2f255" d="M 160.882812 272.210938 L 166.738281 272.210938 L 166.738281 278.066406 L 160.882812 278.066406 Z M 160.882812 272.210938 " fill-opacity="1" fill-rule="nonzero"/><path fill="#a2f255" d="M 155.023438 278.066406 L 160.882812 278.066406 L 160.882812 283.921875 L 155.023438 283.921875 Z M 155.023438 278.066406 " fill-opacity="1" fill-rule="nonzero"/><path fill="#2e1b5b" d="M 119.882812 289.777344 L 119.882812 295.632812 L 125.738281 295.632812 L 125.738281 283.921875 L 114.023438 283.921875 L 114.023438 289.777344 Z M 119.882812 289.777344 " fill-opacity="1" fill-rule="nonzero"/><path fill="#2e1b5b" d="M 143.308594 272.210938 L 149.167969 272.210938 L 149.167969 283.921875 L 143.308594 283.921875 Z M 143.308594 272.210938 " fill-opacity="1" fill-rule="nonzero"/><path fill="#2e1b5b" d="M 108.167969 283.921875 L 114.023438 283.921875 L 114.023438 289.777344 L 108.167969 289.777344 Z M 108.167969 283.921875 " fill-opacity="0.498" fill-rule="nonzero"/><path fill="#2e1b5b" d="M 119.882812 295.632812 L 125.738281 295.632812 L 125.738281 301.488281 L 119.882812 301.488281 Z M 119.882812 295.632812 " fill-opacity="0.498" fill-rule="nonzero"/><path fill="#2e1b5b" d="M 149.167969 266.355469 L 155.023438 266.355469 L 155.023438 272.210938 L 149.167969 272.210938 Z M 149.167969 266.355469 " fill-opacity="0.498" fill-rule="nonzero"/><path fill="#2e1b5b" d="M 149.167969 283.921875 L 155.023438 283.921875 L 155.023438 289.777344 L 149.167969 289.777344 Z M 149.167969 283.921875 " fill-opacity="0.498" fill-rule="nonzero"/><g clip-path="url(#6be9bb23e8)"><path fill="#ea3d8c" d="M 196.023438 201.949219 L 196.023438 213.660156 L 190.167969 213.660156 L 190.167969 219.515625 L 178.453125 219.515625 L 178.453125 225.367188 L 166.738281 225.367188 L 166.738281 219.515625 L 160.882812 219.515625 L 160.882812 213.660156 L 166.738281 213.660156 L 166.738281 201.949219 L 172.597656 201.949219 L 172.597656 196.09375 L 178.453125 196.09375 L 178.453125 190.238281 L 184.308594 190.238281 L 184.308594 184.382812 L 190.167969 184.382812 L 190.167969 178.527344 L 160.882812 178.527344 L 160.882812 184.382812 L 149.167969 184.382812 L 149.167969 196.09375 L 143.308594 196.09375 L 143.308594 213.660156 L 149.167969 213.660156 L 149.167969 225.367188 L 155.023438 225.367188 L 155.023438 231.222656 L 160.882812 231.222656 L 160.882812 237.078125 L 190.167969 237.078125 L 190.167969 231.222656 L 196.023438 231.222656 L 196.023438 225.367188 L 201.882812 225.367188 L 201.882812 201.949219 Z M 196.023438 201.949219 " fill-opacity="1" fill-rule="nonzero"/></g><path fill="#10d000" d="M 178.453125 207.804688 L 178.453125 201.949219 L 184.308594 201.949219 L 184.308594 196.09375 L 190.167969 196.09375 L 190.167969 190.238281 L 196.023438 190.238281 L 196.023438 184.382812 L 184.308594 184.382812 L 184.308594 190.238281 L 178.453125 190.238281 L 178.453125 196.09375 L 172.597656 196.09375 L 172.597656 201.949219 L 166.738281 201.949219 L 166.738281 213.660156 L 160.882812 213.660156 L 160.882812 219.515625 L 166.738281 219.515625 L 166.738281 225.367188 L 178.453125 225.367188 L 178.453125 219.515625 L 190.167969 219.515625 L 190.167969 213.660156 L 196.023438 213.660156 L 196.023438 201.949219 L 190.167969 201.949219 L 190.167969 207.804688 L 184.308594 207.804688 L 184.308594 213.660156 L 172.597656 213.660156 L 172.597656 207.804688 Z M 178.453125 207.804688 " fill-opacity="1" fill-rule="nonzero"/><path fill="#2e1b5b" d="M 149.167969 219.515625 L 155.023438 219.515625 L 155.023438 225.367188 L 149.167969 225.367188 Z M 149.167969 219.515625 " fill-opacity="1" fill-rule="nonzero"/><path fill="#2e1b5b" d="M 160.882812 231.222656 L 190.167969 231.222656 L 190.167969 237.078125 L 160.882812 237.078125 Z M 160.882812 231.222656 " fill-opacity="1" fill-rule="nonzero"/><path fill="#2e1b5b" d="M 190.167969 225.367188 L 196.023438 225.367188 L 196.023438 231.222656 L 190.167969 231.222656 Z M 190.167969 225.367188 " fill-opacity="1" fill-rule="nonzero"/><path fill="#2e1b5b" d="M 155.023438 225.367188 L 160.882812 225.367188 L 160.882812 231.222656 L 155.023438 231.222656 Z M 155.023438 225.367188 " fill-opacity="1" fill-rule="nonzero"/><path fill="#2e1b5b" d="M 143.308594 196.09375 L 149.167969 196.09375 L 149.167969 213.660156 L 143.308594 213.660156 Z M 143.308594 196.09375 " fill-opacity="0.498" fill-rule="nonzero"/><path fill="#2e1b5b" d="M 143.308594 196.09375 L 149.167969 196.09375 L 149.167969 201.949219 L 143.308594 201.949219 Z M 143.308594 196.09375 " fill-opacity="1" fill-rule="nonzero"/><path fill="#2e1b5b" d="M 155.023438 184.382812 L 149.167969 184.382812 L 149.167969 196.09375 L 155.023438 196.09375 L 155.023438 190.238281 L 160.882812 190.238281 L 160.882812 184.382812 Z M 155.023438 184.382812 " fill-opacity="1" fill-rule="nonzero"/><g clip-path="url(#370879e105)"><path fill="#2e1b5b" d="M 160.882812 178.527344 L 166.738281 178.527344 L 166.738281 184.382812 L 160.882812 184.382812 Z M 160.882812 178.527344 " fill-opacity="1" fill-rule="nonzero"/></g><path fill="#2e1b5b" d="M 149.167969 196.09375 L 155.023438 196.09375 L 155.023438 201.949219 L 149.167969 201.949219 Z M 149.167969 196.09375 " fill-opacity="0.498" fill-rule="nonzero"/><path fill="#2e1b5b" d="M 155.023438 201.949219 L 160.882812 201.949219 L 160.882812 207.804688 L 155.023438 207.804688 Z M 155.023438 201.949219 " fill-opacity="0.498" fill-rule="nonzero"/><path fill="#2e1b5b" d="M 160.882812 207.804688 L 166.738281 207.804688 L 166.738281 219.515625 L 160.882812 219.515625 Z M 160.882812 207.804688 " fill-opacity="0.498" fill-rule="nonzero"/><path fill="#2e1b5b" d="M 166.738281 201.949219 L 172.597656 201.949219 L 172.597656 207.804688 L 166.738281 207.804688 Z M 166.738281 201.949219 " fill-opacity="0.498" fill-rule="nonzero"/><path fill="#2e1b5b" d="M 172.597656 196.09375 L 178.453125 196.09375 L 178.453125 201.949219 L 172.597656 201.949219 Z M 172.597656 196.09375 " fill-opacity="0.498" fill-rule="nonzero"/><path fill="#2e1b5b" d="M 178.453125 190.238281 L 184.308594 190.238281 L 184.308594 196.09375 L 178.453125 196.09375 Z M 178.453125 190.238281 " fill-opacity="0.498" fill-rule="nonzero"/><path fill="#2e1b5b" d="M 184.308594 184.382812 L 190.167969 184.382812 L 190.167969 190.238281 L 184.308594 190.238281 Z M 184.308594 184.382812 " fill-opacity="0.498" fill-rule="nonzero"/><path fill="#2e1b5b" d="M 190.167969 207.804688 L 196.023438 207.804688 L 196.023438 213.660156 L 190.167969 213.660156 Z M 190.167969 207.804688 " fill-opacity="0.498" fill-rule="nonzero"/><path fill="#2e1b5b" d="M 184.308594 213.660156 L 190.167969 213.660156 L 190.167969 219.515625 L 184.308594 219.515625 Z M 184.308594 213.660156 " fill-opacity="0.498" fill-rule="nonzero"/><path fill="#2e1b5b" d="M 166.738281 219.515625 L 178.453125 219.515625 L 178.453125 225.367188 L 166.738281 225.367188 Z M 166.738281 219.515625 " fill-opacity="0.498" fill-rule="nonzero"/><path fill="#2e1b5b" d="M 155.023438 190.238281 L 160.882812 190.238281 L 160.882812 196.09375 L 155.023438 196.09375 Z M 155.023438 190.238281 " fill-opacity="0.498" fill-rule="nonzero"/><path fill="#2e1b5b" d="M 166.738281 184.382812 L 172.597656 184.382812 L 172.597656 190.238281 L 166.738281 190.238281 Z M 166.738281 184.382812 " fill-opacity="0.498" fill-rule="nonzero"/><g clip-path="url(#b2a6ac3eac)"><path fill="#2e1b5b" d="M 172.597656 178.527344 L 178.453125 178.527344 L 178.453125 184.382812 L 172.597656 184.382812 Z M 172.597656 178.527344 " fill-opacity="0.498" fill-rule="nonzero"/></g><path fill="#2e1b5b" d="M 149.167969 213.660156 L 155.023438 213.660156 L 155.023438 219.515625 L 149.167969 219.515625 Z M 149.167969 213.660156 " fill-opacity="0.498" fill-rule="nonzero"/><path fill="#2e1b5b" d="M 178.453125 219.515625 L 190.167969 219.515625 L 190.167969 225.367188 L 178.453125 225.367188 Z M 178.453125 219.515625 " fill-opacity="0.498" fill-rule="nonzero"/><g clip-path="url(#dcf7802621)"><path fill="#2e1b5b" d="M 196.023438 213.660156 L 201.882812 213.660156 L 201.882812 219.515625 L 196.023438 219.515625 Z M 196.023438 213.660156 " fill-opacity="0.498" fill-rule="nonzero"/></g><path fill="#2e1b5b" d="M 125.738281 231.222656 L 143.308594 231.222656 L 143.308594 237.078125 L 125.738281 237.078125 Z M 125.738281 231.222656 " fill-opacity="1" fill-rule="nonzero"/><path fill="#2e1b5b" d="M 114.023438 219.515625 L 119.882812 219.515625 L 119.882812 225.367188 L 114.023438 225.367188 Z M 114.023438 219.515625 " fill-opacity="1" fill-rule="nonzero"/><path fill="#2e1b5b" d="M 119.882812 225.367188 L 125.738281 225.367188 L 125.738281 231.222656 L 119.882812 231.222656 Z M 119.882812 225.367188 " fill-opacity="1" fill-rule="nonzero"/><path fill="#2e1b5b" d="M 114.023438 184.382812 L 119.882812 184.382812 L 119.882812 201.949219 L 114.023438 201.949219 Z M 114.023438 184.382812 " fill-opacity="1" fill-rule="nonzero"/><path fill="#2e1b5b" d="M 119.882812 201.949219 L 125.738281 201.949219 L 125.738281 207.804688 L 119.882812 207.804688 Z M 119.882812 201.949219 " fill-opacity="1" fill-rule="nonzero"/><path fill="#2e1b5b" d="M 125.738281 207.804688 L 131.59375 207.804688 L 131.59375 213.660156 L 125.738281 213.660156 Z M 125.738281 207.804688 " fill-opacity="1" fill-rule="nonzero"/><path fill="#2e1b5b" d="M 119.882812 213.660156 L 125.738281 213.660156 L 125.738281 219.515625 L 119.882812 219.515625 Z M 119.882812 213.660156 " fill-opacity="1" fill-rule="nonzero"/></svg>