<svg xmlns="http://www.w3.org/2000/svg" xmlns:xlink="http://www.w3.org/1999/xlink" width="1280" zoomAndPan="magnify" viewBox="0 0 960 540.000001" height="720" preserveAspectRatio="xMidYMid meet" version="1.0"><defs><clipPath id="4b099e2135"><path d="M 212.066406 142 L 709.894531 142 L 709.894531 451.875 L 212.066406 451.875 Z M 212.066406 142 " clip-rule="nonzero"/></clipPath><clipPath id="0d3b249404"><path d="M 212.066406 402 L 709.894531 402 L 709.894531 451.875 L 212.066406 451.875 Z M 212.066406 402 " clip-rule="nonzero"/></clipPath><clipPath id="e4a3f29d83"><path d="M 212.066406 174 L 462 174 L 462 436 L 212.066406 436 Z M 212.066406 174 " clip-rule="nonzero"/></clipPath><clipPath id="b642659a50"><path d="M 461 174 L 709.894531 174 L 709.894531 436 L 461 436 Z M 461 174 " clip-rule="nonzero"/></clipPath></defs><g clip-path="url(#4b099e2135)"><path fill="#ded2a0" d="M 477.636719 451.761719 L 494.238281 451.761719 L 494.238281 435.4375 L 510.785156 435.4375 L 510.785156 419.109375 L 709.894531 419.109375 L 709.894531 174.65625 L 693.292969 174.65625 L 693.292969 158.332031 L 676.691406 158.332031 L 676.691406 142.007812 C 615.839844 142.007812 555.039062 142.007812 494.183594 142.007812 L 494.183594 158.332031 L 477.582031 158.332031 L 477.582031 174.65625 L 444.378906 174.65625 L 444.378906 158.332031 L 427.777344 158.332031 L 427.777344 142.007812 C 366.925781 142.007812 306.125 142.007812 245.269531 142.007812 L 245.269531 158.332031 L 228.667969 158.332031 L 228.667969 174.65625 L 212.066406 174.65625 L 212.066406 419.164062 C 278.417969 419.164062 344.769531 419.164062 411.175781 419.164062 L 411.175781 435.488281 L 427.777344 435.488281 L 427.777344 451.816406 L 477.636719 451.816406 Z M 477.636719 451.761719 " fill-opacity="1" fill-rule="evenodd"/></g><g clip-path="url(#0d3b249404)"><path fill="#990000" d="M 477.636719 451.761719 L 494.238281 451.761719 L 494.238281 435.4375 L 510.785156 435.4375 L 510.785156 419.109375 L 709.894531 419.109375 L 709.894531 402.785156 C 637.992188 402.785156 566.085938 402.785156 494.238281 402.785156 L 494.238281 419.109375 L 477.636719 419.109375 L 477.636719 435.4375 C 466.585938 435.4375 455.535156 435.4375 444.433594 435.4375 L 444.433594 419.109375 L 427.832031 419.109375 L 427.832031 402.785156 C 355.929688 402.785156 284.023438 402.785156 212.171875 402.785156 L 212.171875 419.109375 C 278.527344 419.109375 344.878906 419.109375 411.285156 419.109375 L 411.285156 435.4375 L 427.886719 435.4375 L 427.886719 451.761719 Z M 477.636719 451.761719 " fill-opacity="1" fill-rule="evenodd"/></g><g clip-path="url(#e4a3f29d83)"><path fill="#b9b085" d="M 427.832031 419.164062 L 444.433594 419.164062 L 444.433594 435.488281 L 461.035156 435.488281 L 461.035156 419.164062 L 444.433594 419.164062 L 444.433594 402.839844 L 427.832031 402.839844 L 427.832031 386.511719 C 361.480469 386.511719 295.128906 386.511719 228.722656 386.511719 L 228.722656 174.65625 L 212.121094 174.65625 L 212.121094 402.839844 L 427.777344 402.839844 L 427.777344 419.164062 Z M 427.832031 419.164062 " fill-opacity="1" fill-rule="evenodd"/></g><g clip-path="url(#b642659a50)"><path fill="#a39977" d="M 693.292969 402.890625 L 709.894531 402.890625 L 709.894531 174.65625 L 693.292969 174.65625 L 693.292969 386.566406 L 494.238281 386.566406 L 494.238281 402.890625 L 477.636719 402.890625 L 477.636719 419.164062 L 461.035156 419.164062 L 461.035156 435.488281 L 477.636719 435.488281 L 477.636719 419.164062 L 494.238281 419.164062 L 494.238281 402.890625 Z M 693.292969 402.890625 " fill-opacity="1" fill-rule="evenodd"/></g><path fill="#c9bc8e" d="M 676.691406 386.566406 L 693.292969 386.566406 L 693.292969 158.386719 L 676.691406 158.386719 L 676.691406 370.292969 L 477.636719 370.292969 L 477.636719 386.566406 L 461.035156 386.566406 L 461.035156 419.164062 L 477.636719 419.164062 L 477.636719 402.890625 L 494.238281 402.890625 L 494.238281 386.566406 Z M 676.691406 386.566406 " fill-opacity="1" fill-rule="evenodd"/><path fill="#ded2a0" d="M 228.773438 386.566406 L 427.832031 386.566406 L 427.832031 402.890625 L 444.433594 402.890625 L 444.433594 419.164062 L 461.035156 419.164062 L 461.035156 386.566406 L 444.433594 386.566406 L 444.433594 370.292969 L 245.375 370.292969 L 245.375 158.386719 L 228.773438 158.386719 Z M 228.773438 386.566406 " fill-opacity="1" fill-rule="evenodd"/><path fill="#ded2a0" d="M 676.691406 158.386719 L 676.691406 142.058594 C 615.839844 142.058594 555.039062 142.058594 494.183594 142.058594 L 494.183594 158.386719 L 477.582031 158.386719 L 477.582031 174.65625 L 460.980469 174.65625 L 460.980469 386.566406 L 477.582031 386.566406 L 477.582031 370.242188 L 676.691406 370.242188 Z M 676.691406 158.386719 " fill-opacity="1" fill-rule="evenodd"/><path fill="#f4e8b3" d="M 427.832031 158.386719 L 427.832031 142.058594 C 366.976562 142.058594 306.175781 142.058594 245.324219 142.058594 L 245.324219 370.242188 L 444.433594 370.242188 L 444.433594 386.566406 L 461.035156 386.566406 L 461.035156 174.65625 L 444.433594 174.65625 L 444.433594 158.332031 L 427.832031 158.332031 Z M 427.832031 158.386719 " fill-opacity="1" fill-rule="evenodd"/><path fill="#7c7659" d="M 394.683594 337.699219 L 411.285156 337.699219 L 411.285156 321.371094 L 278.527344 321.371094 L 278.527344 337.699219 Z M 278.527344 190.980469 C 322.777344 190.980469 367.03125 190.980469 411.230469 190.980469 L 411.230469 174.65625 L 278.527344 174.65625 Z M 278.527344 239.851562 L 411.230469 239.851562 L 411.230469 223.527344 L 278.527344 223.527344 Z M 278.527344 288.773438 C 322.777344 288.773438 367.03125 288.773438 411.230469 288.773438 L 411.230469 272.449219 C 366.976562 272.449219 322.726562 272.449219 278.527344 272.449219 Z M 278.527344 288.773438 " fill-opacity="1" fill-rule="evenodd"/><path fill="#7c7659" d="M 626.941406 337.699219 L 643.542969 337.699219 L 643.542969 321.371094 C 599.289062 321.371094 555.039062 321.371094 510.839844 321.371094 L 510.839844 337.699219 Z M 510.785156 190.980469 C 555.039062 190.980469 599.289062 190.980469 643.488281 190.980469 L 643.488281 174.65625 L 510.785156 174.65625 Z M 510.785156 239.851562 L 643.488281 239.851562 L 643.488281 223.527344 L 510.785156 223.527344 Z M 510.785156 288.773438 L 643.488281 288.773438 L 643.488281 272.449219 L 510.785156 272.449219 Z M 510.785156 288.773438 " fill-opacity="1" fill-rule="evenodd"/></svg>